<svg width="160" height="33" viewBox="0 0 160 33" fill="none" xmlns="http://www.w3.org/2000/svg">
<path d="M16.8625 32.2665C25.7008 32.2665 32.8656 25.1017 32.8656 16.2634C32.8656 7.4251 25.7008 0.260254 16.8625 0.260254C8.02422 0.260254 0.859375 7.4251 0.859375 16.2634C0.859375 25.1017 8.02422 32.2665 16.8625 32.2665Z" fill="#0052FF"/>
<path d="M22.3822 17.307C21.8933 19.8976 19.6201 21.8565 16.8878 21.8565C13.7983 21.8565 11.2945 19.3527 11.2945 16.2632C11.2945 13.1738 13.7983 10.67 16.8878 10.67C19.6201 10.67 21.8933 12.63 22.3822 15.2195H28.026C27.4997 9.53064 22.714 5.07666 16.8878 5.07666C10.7089 5.07666 5.70117 10.0855 5.70117 16.2632C5.70117 22.4421 10.71 27.4498 16.8878 27.4498C22.714 27.4498 27.4997 22.9958 28.026 17.307H22.3822Z" fill="white"/>
<path d="M62.7851 9.07218C58.3882 9.07218 54.9527 12.4099 54.9527 16.8782C54.9527 21.3475 58.3014 24.6556 62.7851 24.6556C67.2687 24.6556 70.6757 21.2893 70.6757 16.8496C70.6746 12.4385 67.327 9.07218 62.7851 9.07218ZM62.8137 21.4354C60.3098 21.4354 58.475 19.4908 58.475 16.8793C58.475 14.2381 60.2801 12.2946 62.784 12.2946C65.3175 12.2946 67.1512 14.2678 67.1512 16.8793C67.1523 19.4908 65.3175 21.4354 62.8137 21.4354ZM71.6359 12.4681H73.8201V24.3667H77.3138V9.36333H71.6359V12.4681ZM46.1601 12.2935C47.9949 12.2935 49.4506 13.4251 50.0032 15.1082H53.7013C53.0312 11.5101 50.0615 9.07218 46.1898 9.07218C41.7929 9.07218 38.3574 12.4099 38.3574 16.8782C38.3574 21.3475 41.7061 24.6556 46.1898 24.6556C49.9747 24.6556 53.0026 22.2177 53.6728 18.5899H50.0043C49.4803 20.273 48.0246 21.4343 46.1898 21.4343C43.6563 21.4343 41.8808 19.4897 41.8808 16.8782C41.8797 14.2381 43.6266 12.2935 46.1601 12.2935ZM138.019 15.4279L135.457 15.0511C134.234 14.8775 133.361 14.471 133.361 13.513C133.361 12.4681 134.497 11.9463 136.04 11.9463C137.728 11.9463 138.806 12.6714 139.039 13.8613H142.416C142.037 10.8432 139.708 9.07328 136.127 9.07328C132.429 9.07328 129.984 10.9597 129.984 13.6294C129.984 16.1827 131.586 17.6637 134.817 18.1274L137.379 18.5042C138.631 18.6778 139.33 19.1722 139.33 20.1006C139.33 21.2904 138.107 21.7837 136.419 21.7837C134.351 21.7837 133.186 20.9421 133.012 19.6655H129.576C129.897 22.5967 132.196 24.6567 136.389 24.6567C140.203 24.6567 142.736 22.9153 142.736 19.9259C142.736 17.2561 140.901 15.863 138.019 15.4279ZM75.5658 3.18116C74.2848 3.18116 73.3235 4.10953 73.3235 5.38617C73.3235 6.66282 74.2848 7.59229 75.5658 7.59229C76.8469 7.59229 77.8082 6.66391 77.8082 5.38727C77.8082 4.11062 76.848 3.18116 75.5658 3.18116ZM126.838 14.4996C126.838 11.2497 124.858 9.07328 120.666 9.07328C116.706 9.07328 114.494 11.0761 114.056 14.1524H117.522C117.696 12.9625 118.628 11.9759 120.608 11.9759C122.384 11.9759 123.258 12.7593 123.258 13.7173C123.258 14.9654 121.656 15.284 119.676 15.4873C116.997 15.7773 113.678 16.7057 113.678 20.1884C113.678 22.8879 115.688 24.6281 118.89 24.6281C121.394 24.6281 122.967 23.5833 123.753 21.9287C123.87 23.4086 124.976 24.3667 126.52 24.3667H128.558V21.2618H126.839V14.4996H126.838ZM123.403 18.2724C123.403 20.2752 121.656 21.7551 119.53 21.7551C118.219 21.7551 117.113 21.2036 117.113 20.0434C117.113 18.5635 118.889 18.157 120.52 17.9834C122.092 17.8384 122.965 17.4901 123.403 16.8221V18.2724ZM104.856 9.07218C102.905 9.07218 101.275 9.8852 100.11 11.2486V3.03613H96.6162V24.3667H100.052V22.3935C101.216 23.8151 102.876 24.6567 104.856 24.6567C109.049 24.6567 112.223 21.3486 112.223 16.8793C112.223 12.4099 108.99 9.07218 104.856 9.07218ZM104.332 21.4354C101.828 21.4354 99.9935 19.4908 99.9935 16.8793C99.9935 14.2678 101.857 12.2946 104.361 12.2946C106.894 12.2946 108.67 14.2392 108.67 16.8793C108.671 19.4908 106.836 21.4354 104.332 21.4354ZM88.2609 9.07218C85.9899 9.07218 84.5046 10.0006 83.6311 11.3069V9.36223H80.1659V24.3656H83.6597V16.2113C83.6597 13.9184 85.1154 12.2935 87.2699 12.2935C89.2793 12.2935 90.5307 13.7151 90.5307 15.7762V24.3667H94.0245V15.5158C94.0256 11.743 92.0743 9.07218 88.2609 9.07218ZM159.389 16.386C159.389 12.0913 156.245 9.07328 152.023 9.07328C147.539 9.07328 144.249 12.4396 144.249 16.8793C144.249 21.5519 147.772 24.6567 152.081 24.6567C155.721 24.6567 158.574 22.5088 159.301 19.4622H155.662C155.138 20.7971 153.857 21.5519 152.138 21.5519C149.896 21.5519 148.207 20.1588 147.829 17.7209H159.388V16.386H159.389ZM148.035 15.2247C148.588 13.135 150.161 12.1199 151.966 12.1199C153.946 12.1199 155.459 13.2515 155.809 15.2247H148.035Z" fill="#0052FF"/>
</svg>
