<svg width="139" height="37" viewBox="0 0 139 37" fill="none" xmlns="http://www.w3.org/2000/svg">
<path d="M56.7622 27H61.9102L53.8142 13.47C53.4182 13.074 52.9928 12.8247 52.5382 12.722C52.0835 12.6193 51.6802 12.568 51.3282 12.568C50.9762 12.568 50.5728 12.6193 50.1182 12.722C49.6635 12.8247 49.2382 13.074 48.8422 13.47L40.7462 27H45.8942L47.0162 25.13H55.6182L56.7622 27ZM51.3282 17.848L53.2202 21.038H49.4142L51.3282 17.848ZM77.8969 17.694H67.5789V16.77H80.3609V12.568H63.2669V27H80.3609V22.798H67.5789V21.874H77.8969V17.694ZM86.2489 19.014V27H81.9369V14.174C81.9369 14.0273 81.9809 13.866 82.0689 13.69C82.1715 13.4993 82.2889 13.3233 82.4209 13.162C82.5529 12.986 82.6849 12.8467 82.8169 12.744C82.9635 12.6267 83.0809 12.568 83.1689 12.568H84.6869C84.9509 12.568 85.4715 12.8687 86.2489 13.47L95.1589 20.598V12.568H99.4709V25.394C99.4709 25.5113 99.4195 25.6653 99.3169 25.856C99.2289 26.032 99.1189 26.208 98.9869 26.384C98.8549 26.5453 98.7155 26.692 98.5689 26.824C98.4369 26.9413 98.3269 27 98.2389 27H96.7209C96.5742 27 96.3689 26.934 96.1049 26.802C95.8555 26.6553 95.5402 26.4207 95.1589 26.098L86.2489 19.014ZM115.688 17.694H105.37V16.77H118.152V12.568H101.058V27H105.37V21.918H115.688V17.694ZM126.262 16.77H119.728V12.568H137.086V16.77H130.552V27H126.262V16.77Z" fill="#06182C"/>
<path d="M5.76787 24.3701V31.2761L2.74166 29.4003L2.7151 29.3835L0 27.7013V19.9028L5.76787 24.3701Z" fill="#0052FF"/>
<path d="M21.9681 22.2011C21.9635 22.6031 21.892 28.0277 21.8659 32.873L16.5246 36.2001V19.2168L21.9681 22.2011Z" fill="#0052FF"/>
<path d="M30.1742 7.9609V16.003L21.9691 22.1775C21.9691 22.1775 21.9691 22.1852 21.9691 22.201L16.5276 19.2167V0L30.1742 7.9609Z" fill="#0052FF"/>
<path d="M8.53967 22.2011C8.54427 22.6031 8.61579 28.0277 8.64184 32.873L13.9832 36.2001V19.2168L8.53967 22.2011Z" fill="#0052FF"/>
<path d="M0.333588 7.9609V16.003L8.53866 22.1775C8.53866 22.1775 8.53866 22.1852 8.53866 22.201L13.9801 19.2167V0L0.333588 7.9609Z" fill="#0052FF"/>
<path d="M30.1741 19.9028V27.7013L29.6817 28.0057L29.5443 28.0916L24.4063 31.2761V24.3701L30.1741 19.9028Z" fill="#0052FF"/>
</svg>
