<svg width="77" height="93" viewBox="0 0 77 93" fill="none" xmlns="http://www.w3.org/2000/svg">
<path d="M14.7187 62.1886V79.8117L6.99631 75.0249L6.92852 74.9819L0 70.6892V50.7888L14.7187 62.1886Z" fill="#0052FF"/>
<path d="M56.0592 56.6536C56.0475 57.6795 55.865 71.5222 55.7985 83.8867L42.1683 92.3769V49.0381L56.0592 56.6536Z" fill="#0052FF"/>
<path d="M76.9996 20.315V40.8372L56.0615 56.5936C56.0615 56.5936 56.0615 56.6132 56.0615 56.6536L42.1758 49.0381V0L76.9996 20.315Z" fill="#0052FF"/>
<path d="M21.7919 56.6536C21.8036 57.6795 21.9861 71.5222 22.0526 83.8867L35.6828 92.3769V49.0381L21.7919 56.6536Z" fill="#0052FF"/>
<path d="M0.851158 20.315V40.8372L21.7892 56.5936C21.7892 56.5936 21.7892 56.6132 21.7892 56.6536L35.675 49.0381V0L0.851158 20.315Z" fill="#0052FF"/>
<path d="M77 50.7888V70.6892L75.7434 71.4661L75.3927 71.6851L62.2813 79.8117V62.1886L77 50.7888Z" fill="#0052FF"/>
</svg>
