<svg width="151" height="46" viewBox="0 0 151 46" fill="none" xmlns="http://www.w3.org/2000/svg">
<path d="M69.2667 31H74.4147L66.3187 17.47C65.9227 17.074 65.4974 16.8247 65.0427 16.722C64.588 16.6193 64.1847 16.568 63.8327 16.568C63.4807 16.568 63.0774 16.6193 62.6227 16.722C62.168 16.8247 61.7427 17.074 61.3467 17.47L53.2507 31H58.3987L59.5207 29.13H68.1227L69.2667 31ZM63.8327 21.848L65.7247 25.038H61.9187L63.8327 21.848ZM90.4015 21.694H80.0835V20.77H92.8655V16.568H75.7715V31H92.8655V26.798H80.0835V25.874H90.4015V21.694ZM98.7534 23.014V31H94.4414V18.174C94.4414 18.0273 94.4854 17.866 94.5734 17.69C94.6761 17.4993 94.7934 17.3233 94.9254 17.162C95.0574 16.986 95.1894 16.8467 95.3214 16.744C95.4681 16.6267 95.5854 16.568 95.6734 16.568H97.1914C97.4554 16.568 97.9761 16.8687 98.7534 17.47L107.663 24.598V16.568H111.975V29.394C111.975 29.5113 111.924 29.6653 111.821 29.856C111.733 30.032 111.623 30.208 111.491 30.384C111.359 30.5453 111.22 30.692 111.073 30.824C110.941 30.9413 110.831 31 110.743 31H109.225C109.079 31 108.873 30.934 108.609 30.802C108.36 30.6553 108.045 30.4207 107.663 30.098L98.7534 23.014ZM128.193 21.694H117.875V20.77H130.657V16.568H113.563V31H117.875V25.918H128.193V21.694ZM138.766 20.77H132.232V16.568H149.59V20.77H143.056V31H138.766V20.77Z" fill="#06182C"/>
<path d="M7.20242 30.4309V39.0545L3.42356 36.7122L3.39039 36.6911L0 34.5906V24.8525L7.20242 30.4309Z" fill="#06182C"/>
<path d="M27.4319 27.7226C27.4261 28.2247 27.3368 34.9984 27.3043 41.0488L20.6345 45.2034V23.9961L27.4319 27.7226Z" fill="#06182C"/>
<path d="M37.6789 9.94088V19.9832L27.4331 27.6934C27.4331 27.6934 27.4331 27.7029 27.4331 27.7227L20.6383 23.9962V0L37.6789 9.94088Z" fill="#06182C"/>
<path d="M10.6636 27.7226C10.6693 28.2247 10.7586 34.9984 10.7912 41.0488L17.4609 45.2034V23.9961L10.6636 27.7226Z" fill="#06182C"/>
<path d="M0.416565 9.94088V19.9832L10.6624 27.6934C10.6624 27.6934 10.6624 27.7029 10.6624 27.7227L17.4572 23.9962V0L0.416565 9.94088Z" fill="#06182C"/>
<path d="M37.679 24.8525V34.5906L37.0641 34.9708L36.8925 35.0779L30.4766 39.0545V30.4309L37.679 24.8525Z" fill="#06182C"/>
</svg>
