<svg width="141" height="175" viewBox="0 0 141 175" fill="none" xmlns="http://www.w3.org/2000/svg">
<g opacity="0.7">
<path d="M114.054 144.42C114.054 144.42 116.458 148.333 119.566 143.924C122.675 139.514 120.955 133.727 117.527 133.154C114.098 132.58 113.051 136.703 113.051 136.703C112.977 128.784 112.354 120.879 111.188 113.046C106.911 109.838 102.766 101.956 102.766 101.956C102.766 101.956 103.306 110.907 101.432 111.04C96.4823 111.04 91.5105 102.088 91.5105 102.088C91.5105 102.088 88.2034 108.769 86.2962 108.24C84.3891 107.71 87.101 101.691 87.101 101.691C71.7226 109.309 70.2565 107.303 73.0676 103.83C55.0215 112.252 52.1222 111.04 56.7632 105.836C45.5299 115.593 36.4352 115.449 36.4352 115.449C35.3869 118.776 35.1154 122.298 35.6415 125.746C36.0641 130.027 35.8822 134.347 35.1013 138.577C32.169 133.76 26.6791 137.475 26.5578 142.447C26.4365 147.418 31.2319 151.806 34.8367 150.075C35.6415 159.82 47.6685 168.981 47.6685 168.981C47.6685 168.981 68.9116 182.408 98.5879 167.78C115.355 158.619 114.054 144.42 114.054 144.42Z" fill="#FBD0B4"/>
<g style="mix-blend-mode:multiply" opacity="0.5">
<path d="M114.969 139.282C115.983 141.366 117.086 143.405 118.177 145.445C118.734 145.021 119.214 144.507 119.599 143.923C122.708 139.514 120.988 133.726 117.56 133.153C115.057 132.734 113.823 134.84 113.338 135.986C113.889 137.088 114.429 138.18 114.969 139.282Z" fill="#EDB89A"/>
</g>
<g style="mix-blend-mode:multiply" opacity="0.5">
<path d="M35.95 130.75C36.9834 129.107 38.2496 127.621 39.7091 126.341C42.7297 123.739 46.6762 122.791 50.5236 122.152C52.6071 121.821 54.7016 121.567 56.7741 121.193C57.7773 121.005 58.7915 120.807 59.7726 120.52C60.4887 120.275 61.1761 119.954 61.823 119.561C62.9916 118.933 64.2924 118.106 65.6814 118.382C66.4483 118.593 67.1882 118.893 67.8862 119.275C68.5816 119.621 69.3247 119.863 70.091 119.991C73.2438 120.52 77.1022 120.355 79.5825 118.095C79.6339 118.044 79.6974 118.008 79.7669 117.989C79.8364 117.97 79.9096 117.97 79.9795 117.988C80.0493 118.005 80.1133 118.041 80.1655 118.09C80.2176 118.14 80.256 118.202 80.277 118.271C80.9826 120.002 82.9007 120.719 84.5984 121.049C86.5697 121.374 88.576 121.43 90.5623 121.215C92.3923 121.049 94.1892 120.686 96.0081 120.41C97.943 119.979 99.9601 120.101 101.829 120.763C104.034 121.711 105.687 123.783 107.131 125.657C108.711 127.75 110.126 129.961 111.364 132.272C111.938 133.319 112.467 134.388 113.018 135.469C112.897 127.962 112.278 120.471 111.166 113.046C106.889 109.838 102.744 101.956 102.744 101.956C102.744 101.956 103.284 110.907 101.41 111.04C96.4601 111.04 91.4883 102.088 91.4883 102.088C91.4883 102.088 88.1812 108.769 86.274 108.24C84.3669 107.71 87.0788 101.691 87.0788 101.691C71.7005 109.309 70.2343 107.303 73.0454 103.83C54.9993 112.252 52.1 111.04 56.741 105.836C45.5077 115.593 36.413 115.449 36.413 115.449C35.3647 118.776 35.0932 122.298 35.6193 125.746C35.8544 127.403 35.9649 129.076 35.95 130.75Z" fill="#EDB89A"/>
</g>
<path d="M70.973 175C56.7081 175 47.6464 169.378 47.5583 169.323C47.0512 168.937 35.7407 160.217 34.6162 150.583C33.5691 150.853 32.4669 150.821 31.4369 150.491C30.407 150.162 29.4913 149.547 28.7956 148.719C27.1664 147.053 26.2627 144.81 26.2822 142.48C26.3814 139.052 28.9279 136.042 31.7941 136.042C32.4288 136.053 33.0519 136.214 33.613 136.511C34.1741 136.808 34.6575 137.232 35.0241 137.751C35.6936 133.811 35.8271 129.799 35.421 125.823C34.8806 122.322 35.1637 118.744 36.2478 115.372L36.3249 115.152H36.5564C36.9533 115.152 45.8055 115.042 56.653 105.605L57.116 106.09C55.1427 108.295 55.1648 109.078 55.264 109.309C55.3632 109.541 55.9695 109.651 56.3002 109.651C57.9758 109.651 62.2531 108.548 73.0345 103.555L74.3463 102.948L73.4313 104.051C72.2077 105.572 72.3289 106.145 72.3951 106.255C72.4612 106.366 73.0455 106.575 73.3431 106.575C74.8203 106.575 78.4031 105.671 87.0569 101.383L87.8947 100.964L87.5088 101.813C86.9687 103.048 85.6679 106.487 86.197 107.633C86.2249 107.698 86.2672 107.756 86.3207 107.801C86.3742 107.847 86.4375 107.88 86.5057 107.898C86.5453 107.909 86.5873 107.909 86.6269 107.898C87.8616 107.898 90.1656 104.227 91.3231 101.901L91.6097 101.339L91.9184 101.89C91.9184 101.978 96.824 110.709 101.509 110.709C102.402 110.643 102.766 106.145 102.512 101.978L102.424 100.424L103.141 101.802C103.141 101.879 107.297 109.662 111.464 112.826L111.574 112.903V113.046C112.672 120.347 113.29 127.712 113.426 135.094C113.745 134.419 114.245 133.844 114.869 133.434C115.493 133.024 116.218 132.793 116.965 132.768C117.194 132.77 117.422 132.789 117.648 132.823C118.408 133.003 119.11 133.372 119.688 133.896C120.266 134.421 120.702 135.083 120.955 135.822C121.472 137.187 121.642 138.659 121.449 140.105C121.257 141.552 120.708 142.929 119.853 144.111C118.751 145.6 117.648 146.316 116.546 146.316C116.131 146.305 115.723 146.211 115.344 146.041C114.966 145.87 114.625 145.627 114.341 145.324C114.264 148.719 112.897 160.261 98.7201 168.022C90.1337 172.459 80.6367 174.847 70.973 175ZM35.2005 149.645V150.131C35.9942 159.633 47.7898 168.717 47.911 168.805C48.0323 168.893 56.8845 174.317 70.9399 174.317C80.5276 174.211 89.9606 171.887 98.4997 167.526C107.01 162.863 110.703 156.844 112.302 152.633C113.334 150.048 113.83 147.28 113.757 144.497L113.624 143.097L114.374 144.288C114.61 144.678 114.93 145.011 115.312 145.261C115.694 145.511 116.127 145.672 116.579 145.732C117.483 145.732 118.398 145.071 119.313 143.77C120.102 142.678 120.609 141.408 120.788 140.073C120.966 138.738 120.812 137.38 120.338 136.119C120.123 135.481 119.75 134.908 119.252 134.455C118.754 134.002 118.149 133.683 117.494 133.529C114.44 133.021 113.404 136.836 113.393 136.836L112.743 139.371V136.748C112.664 128.888 112.053 121.043 110.913 113.267C107.66 110.764 104.552 105.748 103.196 103.345C103.284 106.255 103.196 111.227 101.476 111.36C97.0665 111.36 92.7562 104.745 91.5546 102.761C90.7168 104.37 88.3136 108.581 86.5497 108.581C86.4475 108.598 86.3433 108.598 86.2411 108.581C86.0802 108.539 85.9312 108.46 85.8052 108.351C85.6792 108.242 85.5794 108.106 85.5135 107.953C84.9292 106.685 85.9104 103.852 86.4836 102.441C79.8693 105.671 75.4597 107.303 73.2549 107.303C72.4502 107.303 71.921 107.071 71.7006 106.619C71.6077 106.294 71.5942 105.951 71.6614 105.619C71.7285 105.287 71.8742 104.976 72.0864 104.712C63.9838 108.449 58.6373 110.334 56.212 110.334C55.3411 110.334 54.7789 110.092 54.5695 109.596C54.4828 109.314 54.4626 109.016 54.5105 108.726C54.5583 108.435 54.6728 108.159 54.8451 107.92C45.585 115.13 38.0998 115.78 36.7108 115.835C35.7558 119.051 35.5113 122.437 35.9942 125.757C36.4289 130.074 36.247 134.432 35.4541 138.699L35.2887 139.537L34.8477 138.809C34.5551 138.216 34.1099 137.711 33.5577 137.347C33.0056 136.983 32.3664 136.772 31.7059 136.737C29.2806 136.737 26.9877 139.492 26.9105 142.513C26.8951 144.664 27.7266 146.735 29.2255 148.279C30.9012 149.987 33.0729 150.627 34.7375 149.822L35.2005 149.645Z" fill="#B56A4D"/>
<g style="mix-blend-mode:multiply" opacity="0.6">
<path d="M43.8541 147.804C46.4314 147.773 48.988 148.266 51.3697 149.251C53.7514 150.236 55.9086 151.694 57.7112 153.536L57.4356 151.387C57.4356 151.387 65.5932 149.975 64.3806 138.345C64.0168 134.928 61.8451 130.386 58.2403 129.24C54.1945 127.95 50.711 130.805 49.355 134.3C48.5681 136.312 48.103 138.437 47.977 140.594C47.977 140.98 48.1645 145.147 48.407 145.103C46.6323 145.474 45.031 146.424 43.8541 147.804Z" fill="#FBD0B4"/>
</g>
<path d="M45.0117 147.341C45.199 147.286 45.3909 147.249 45.585 147.23C46.0963 147.16 46.6123 147.13 47.1283 147.142C47.448 147.142 47.7897 147.208 48.1535 147.241C48.5279 147.268 48.8978 147.339 49.2559 147.451L50.4465 147.782C50.8433 147.903 51.2292 148.101 51.6261 148.256C52.0229 148.41 52.4087 148.608 52.7284 148.818L53.7647 149.49C54.1064 149.711 54.4151 149.931 54.7128 150.152C55.0104 150.372 55.2419 150.637 55.4734 150.846C56.3884 151.739 56.9506 152.356 56.9506 152.356C56.9506 152.356 56.2451 151.871 55.2529 151.111C55.0104 150.923 54.7568 150.703 54.4482 150.504C54.1395 150.306 53.8088 150.152 53.4781 149.942L52.4639 149.314C52.1001 149.126 51.7143 148.983 51.3615 148.818C51.0087 148.652 50.6229 148.443 50.2591 148.311L49.1567 147.958C48.7956 147.842 48.4273 147.75 48.0543 147.682C47.7126 147.616 47.3818 147.528 47.0732 147.484C46.5763 147.412 46.0758 147.368 45.5739 147.352C45.2322 147.33 45.0117 147.341 45.0117 147.341Z" fill="#B56A4D"/>
<path d="M63.2671 137.21C63.8508 140.528 63.2291 143.945 61.5143 146.845C60.1694 148.94 56.8512 150.461 54.3929 149.689C51.5818 148.818 49.6967 145.952 49.1125 143.174C48.1313 138.423 49.333 131.665 53.8528 129.46C57.7993 127.542 61.5694 131.125 62.749 134.972C62.9781 135.704 63.1513 136.452 63.2671 137.21Z" fill="#FEF6EC"/>
<path d="M63.2673 137.21C63.2673 137.21 63.2673 137.42 63.3444 137.839C63.4191 138.431 63.4632 139.028 63.4767 139.625C63.4759 140.555 63.3985 141.485 63.2452 142.403C63.0172 143.596 62.6471 144.759 62.1428 145.864L61.6578 146.757C61.4684 147.059 61.2623 147.349 61.0405 147.628L60.2357 148.4C59.927 148.609 59.6184 148.841 59.2877 149.05C57.8791 149.92 56.1998 150.242 54.5694 149.954C54.1545 149.848 53.7489 149.708 53.3568 149.535C52.982 149.326 52.5851 149.094 52.2544 148.841C51.5466 148.293 50.9323 147.634 50.4355 146.889C49.4159 145.389 48.7904 143.657 48.6165 141.852C48.4276 140.063 48.5168 138.255 48.8811 136.494C49.2099 134.778 49.9056 133.154 50.9205 131.732C51.8788 130.397 53.2567 129.423 54.834 128.965C55.5383 128.813 56.2665 128.809 56.9724 128.953C57.6783 129.097 58.3466 129.386 58.9349 129.802C59.9525 130.474 60.8166 131.353 61.4704 132.382C61.9883 133.156 62.3964 133.998 62.683 134.884C63.0909 136.34 63.2673 137.21 63.2673 137.21ZM63.2673 137.21C63.2673 137.21 63.0799 136.34 62.694 134.84C62.3934 133.963 61.9783 133.129 61.4594 132.36C60.8047 131.348 59.9306 130.496 58.9018 129.869C58.3143 129.489 57.6535 129.236 56.9622 129.128C56.271 129.02 55.5647 129.058 54.8891 129.24C53.3872 129.72 52.0929 130.695 51.2182 132.007C49.4385 134.933 48.7221 138.382 49.1898 141.774C49.3245 143.491 49.8935 145.145 50.8434 146.581C51.7111 147.992 53.0632 149.038 54.6466 149.524C56.1758 149.844 57.7694 149.589 59.1223 148.808C59.442 148.62 59.7396 148.4 60.0483 148.212C60.357 148.025 60.5885 147.749 60.831 147.507C61.0735 147.264 61.305 146.956 61.4814 146.68C61.6578 146.404 61.8231 146.096 61.9885 145.809C62.5086 144.729 62.8795 143.583 63.0909 142.403C63.3846 140.903 63.4441 139.367 63.2673 137.85C63.3444 137.42 63.2673 137.21 63.2673 137.21Z" fill="#9E5116"/>
<g style="mix-blend-mode:multiply" opacity="0.5">
<g style="mix-blend-mode:multiply" opacity="0.5">
<path d="M53.8528 129.46C53.985 129.394 54.1283 129.35 54.2606 129.295C50.1487 131.334 49.0573 137.508 49.9613 141.851C50.4904 144.409 52.2212 147.043 54.8008 147.837C56.0249 148.09 57.2964 147.977 58.4568 147.512C59.6172 147.048 60.6153 146.252 61.3269 145.224C62.9026 142.572 63.4774 139.444 62.9475 136.405C62.8392 135.711 62.6807 135.026 62.4734 134.355C62.3852 134.09 62.286 133.826 62.1758 133.572C62.4082 134.028 62.6 134.504 62.749 134.994C62.9764 135.715 63.1496 136.452 63.2671 137.199C63.8508 140.517 63.2291 143.934 61.5143 146.834C60.1694 148.928 56.8512 150.45 54.3929 149.678C51.5818 148.807 49.6967 145.941 49.1125 143.163C48.1313 138.423 49.333 131.665 53.8528 129.46Z" fill="#BBAC9A"/>
</g>
</g>
<path d="M49.5866 134.718C48.9959 134.603 48.4439 134.34 47.9815 133.955C47.5191 133.569 47.1612 133.074 46.9409 132.514C46.9796 133.212 47.2045 133.886 47.5922 134.468C47.9799 135.05 48.5163 135.517 49.1457 135.821L49.5866 134.718Z" fill="#9E5116"/>
<path d="M49.0796 136.67C48.4781 136.625 47.8971 136.431 47.3891 136.106C46.8811 135.781 46.4619 135.334 46.1693 134.807C46.2926 135.501 46.5986 136.15 47.0559 136.686C47.5131 137.223 48.1051 137.628 48.7709 137.86L49.0796 136.67Z" fill="#9E5116"/>
<g style="mix-blend-mode:screen">
<g style="mix-blend-mode:screen">
<path d="M60.5003 139.437C60.5003 139.326 60.346 139.437 60.357 139.437C60.3169 140.683 60.0902 141.917 59.6846 143.097C59.475 143.728 59.1252 144.305 58.6612 144.782C58.1973 145.259 57.6313 145.625 57.0058 145.853C56.7743 145.963 56.5648 146.569 56.9507 146.624C58.3727 146.845 59.4972 145.577 60.0814 144.199C60.6632 142.682 60.8083 141.032 60.5003 139.437Z" fill="#3F634A"/>
</g>
</g>
<g style="mix-blend-mode:screen">
<g style="mix-blend-mode:screen">
<path d="M53.6213 144.387C52.8794 142.722 52.4425 140.937 52.3316 139.118C52.3316 138.985 52.1772 139.018 52.1662 139.118C51.8244 140.914 51.9347 143.472 53.2024 144.817C53.4229 145.037 53.7316 144.652 53.6213 144.387Z" fill="#739963"/>
</g>
</g>
<g style="mix-blend-mode:multiply" opacity="0.6">
<path d="M103.78 145.72C97.899 146.078 92.4001 148.754 88.4899 153.161L88.6221 150.791C88.6221 150.791 79.2078 149.942 79.6046 137.122C79.7259 133.352 81.8094 128.192 85.8111 126.627C90.2978 124.885 94.5199 127.729 96.3499 131.411C97.416 133.539 98.1308 135.824 98.4665 138.18C98.5216 138.599 98.6429 143.174 98.3563 143.152C100.393 143.403 102.295 144.304 103.78 145.72Z" fill="#FBD0B4"/>
</g>
<path d="M102.413 145.313C102.192 145.319 101.971 145.337 101.752 145.368C101.344 145.368 100.759 145.534 100.065 145.644C99.7232 145.71 99.3594 145.842 98.9625 145.942C98.5517 146.04 98.1498 146.173 97.7609 146.338L96.4932 146.823C96.0633 146.989 95.6774 147.242 95.2585 147.452C94.8396 147.661 94.4207 147.871 94.0238 148.102L92.9214 148.874L91.819 149.568C91.5117 149.798 91.2172 150.045 90.9371 150.307C89.8348 151.233 89.1072 151.828 89.1072 151.828C89.1072 151.828 89.7025 151.09 90.6836 150.02C90.9411 149.727 91.2134 149.448 91.4994 149.182L92.5246 148.378L93.627 147.54C94.0349 147.297 94.4758 147.077 94.8947 146.845C95.3136 146.614 95.7546 146.382 96.1955 146.217L97.5294 145.765C97.9397 145.617 98.3647 145.513 98.7972 145.456C99.2051 145.39 99.5909 145.302 99.9547 145.269C100.534 145.222 101.117 145.222 101.696 145.269C101.936 145.256 102.177 145.271 102.413 145.313Z" fill="#B56A4D"/>
<path d="M81.523 136.725C81.178 140.158 82.1166 143.599 84.1577 146.381C85.0922 147.459 86.3133 148.25 87.6792 148.662C89.0452 149.074 90.4999 149.09 91.8744 148.707C94.7737 147.605 96.5375 144.54 96.9344 141.663C97.6069 136.758 95.832 129.989 90.8382 128.104C86.5058 126.461 82.8238 130.419 81.8647 134.399C81.6894 135.164 81.5752 135.941 81.523 136.725Z" fill="#FEF6EC"/>
<path d="M81.5228 136.725C81.5228 136.725 81.5228 136.945 81.5228 137.375C81.4822 137.992 81.4822 138.611 81.5228 139.227C81.5669 139.624 81.622 140.065 81.6882 140.55C81.7874 141.013 81.8866 141.531 82.0409 142.061C82.3847 143.257 82.9009 144.397 83.5732 145.445C84.342 146.703 85.5045 147.672 86.8804 148.201C88.3528 148.863 90.0106 148.988 91.5656 148.554C93.1793 147.965 94.5235 146.809 95.3467 145.302C96.2544 143.773 96.7377 142.03 96.7468 140.253C96.8259 138.466 96.6137 136.679 96.1184 134.961C95.6542 133.297 94.851 131.747 93.7593 130.408C92.7196 129.161 91.2909 128.299 89.7025 127.961C88.2619 127.716 86.7828 128.053 85.5906 128.898C84.5646 129.607 83.7067 130.533 83.0771 131.61C82.5882 132.432 82.2171 133.319 81.9748 134.245C81.7984 135.027 81.7212 135.656 81.6441 136.075C81.5669 136.493 81.5228 136.725 81.5228 136.725ZM81.5228 136.725C81.5228 136.725 81.5228 136.493 81.622 136.075C81.7212 135.656 81.7653 135.027 81.9307 134.234C82.1693 133.296 82.5405 132.398 83.033 131.566C83.6579 130.474 84.5025 129.525 85.5134 128.777C86.1152 128.318 86.8026 127.984 87.5352 127.795C88.2679 127.605 89.031 127.565 89.7797 127.674C91.455 127.981 92.9799 128.838 94.1121 130.111C95.3217 131.46 96.211 133.066 96.7137 134.807C97.2483 136.593 97.4903 138.455 97.4303 140.319C97.3832 142.202 96.8476 144.041 95.8759 145.654C95.3917 146.44 94.7936 147.15 94.101 147.76C93.7479 148.034 93.3798 148.288 92.9986 148.521C92.6087 148.733 92.1988 148.906 91.775 149.039C90.1102 149.445 88.3559 149.258 86.8143 148.51C86.1065 148.182 85.4494 147.756 84.863 147.242C84.5984 146.977 84.3559 146.713 84.1134 146.437L83.5181 145.555C82.8765 144.48 82.3833 143.323 82.0519 142.116C81.8976 141.576 81.8094 141.013 81.7102 140.583C81.611 140.153 81.611 139.668 81.5669 139.272C81.5297 138.651 81.5297 138.029 81.5669 137.408L81.5228 136.725Z" fill="#9E5116"/>
<g style="mix-blend-mode:multiply" opacity="0.5">
<g style="mix-blend-mode:multiply" opacity="0.5">
<path d="M90.9042 128.104L90.4522 127.972C94.961 129.724 96.6146 135.898 95.9642 140.396C95.8176 141.784 95.3115 143.11 94.4956 144.243C93.6798 145.376 92.5824 146.276 91.3121 146.856C90.0462 147.211 88.7051 147.199 87.4459 146.82C86.1867 146.441 85.0615 145.712 84.2017 144.717C82.3414 142.173 81.482 139.034 81.7875 135.898C81.8512 135.181 81.9654 134.471 82.1292 133.77C82.1954 133.495 82.2836 133.219 82.3718 132.954C82.1738 133.438 82.0117 133.935 81.8867 134.443C81.7003 135.207 81.5749 135.985 81.5119 136.769C81.1669 140.203 82.1054 143.643 84.1466 146.426C85.081 147.504 86.3021 148.294 87.6681 148.706C89.034 149.118 90.4888 149.134 91.8633 148.752C94.7626 147.649 96.5264 144.585 96.9233 141.707C97.6398 136.758 95.8209 129.989 90.9042 128.104Z" fill="#BBAC9A"/>
</g>
</g>
<path d="M95.7988 133.109C96.4018 132.951 96.9561 132.645 97.412 132.22C97.868 131.795 98.2114 131.263 98.4115 130.673C98.4115 130.673 98.7312 132.569 96.3831 134.245L95.7988 133.109Z" fill="#9E5116"/>
<path d="M96.4822 135.06C97.1062 134.968 97.6988 134.727 98.2094 134.356C98.7199 133.986 99.1334 133.497 99.4145 132.933C99.4145 132.933 99.4145 134.851 96.9121 136.24L96.4822 135.06Z" fill="#9E5116"/>
<path d="M70.8296 145.312C70.9312 145.534 71.0052 145.767 71.0501 146.007C71.1779 146.557 71.1629 147.13 71.0066 147.672C70.8503 148.214 70.5579 148.707 70.1571 149.105C69.9918 149.281 69.7823 149.413 69.5949 149.579C69.4075 149.744 69.154 149.843 68.9225 149.965L68.1839 150.262L67.4122 150.483C67.2579 150.549 66.861 150.615 66.7618 150.725C66.6239 150.828 66.5264 150.977 66.4862 151.144C66.4114 151.599 66.4808 152.065 66.6846 152.478C66.8694 152.927 67.1062 153.352 67.3902 153.746C67.6529 154.137 67.9479 154.506 68.2721 154.848C68.5595 155.151 68.8731 155.427 69.2091 155.675C69.4948 155.88 69.7972 156.061 70.1131 156.215C70.3536 156.345 70.609 156.445 70.8737 156.513C71.3146 156.612 71.5792 156.645 71.5792 156.645C71.3332 156.659 71.0866 156.659 70.8406 156.645C70.5593 156.606 70.2824 156.539 70.0138 156.447C69.6571 156.337 69.3162 156.181 68.9996 155.984C68.6081 155.758 68.239 155.496 67.8973 155.201C67.5164 154.875 67.1759 154.505 66.883 154.099C66.544 153.684 66.2656 153.224 66.0562 152.732C65.7835 152.19 65.6946 151.575 65.8027 150.979C65.8974 150.632 66.1226 150.336 66.4311 150.152C66.6818 150.013 66.9537 149.916 67.2358 149.865L67.9634 149.689L68.6469 149.446L69.2642 149.138C69.4469 149.018 69.6235 148.889 69.7934 148.752C70.1035 148.497 70.3586 148.182 70.543 147.826C70.8138 147.271 70.9354 146.656 70.8958 146.04C70.8939 145.796 70.8717 145.553 70.8296 145.312Z" fill="#B56A4D"/>
<path d="M69.1321 136.416C69.1321 136.416 74.0046 144.739 71.1274 148.818C70.3337 150.505 77.2567 146.9 69.1321 136.416Z" fill="#FCECE3"/>
<path d="M69.5619 150.296C69.7272 150.527 69.4296 151.012 68.9004 151.398C68.3713 151.784 67.798 151.861 67.6437 151.619C67.4894 151.376 67.776 150.891 68.3051 150.516C68.8343 150.141 69.3965 150.053 69.5619 150.296Z" fill="#FCECE3"/>
<path d="M50.0166 127.686C50.0166 127.686 53.6545 119.363 61.0405 126.583C59.1003 121.336 52.949 117.599 50.0166 127.686Z" fill="#4C1F2E"/>
<g style="mix-blend-mode:multiply" opacity="0.6">
<path d="M50.0166 128.699C50.0166 128.699 53.6545 120.376 61.0405 127.597C59.1003 122.349 52.949 118.601 50.0166 128.699Z" fill="#FBD0B4"/>
</g>
<path d="M81.4678 126.186C81.4678 126.186 88.8979 115.327 96.3059 126.021C94.3106 119.164 87.09 115.085 81.4678 126.186Z" fill="#4C1F2E"/>
<g style="mix-blend-mode:multiply" opacity="0.6">
<path d="M81.4678 127.201C81.4678 127.201 88.8979 116.331 96.3059 127.024C94.3106 120.178 87.09 116.1 81.4678 127.201Z" fill="#FBD0B4"/>
</g>
<path d="M32.9076 141.51C31.8934 140.33 28.498 139.481 28.5751 141.807C28.5751 141.94 28.8067 141.807 28.8067 141.752C28.8838 140.396 30.2949 140.738 31.1658 141.091C31.8301 141.391 32.3766 141.903 32.7201 142.546C32.8891 142.836 33.0365 143.138 33.1611 143.45L33.0839 143.527C32.9186 143.792 32.8745 144.1 32.7091 144.365C32.5803 144.546 32.4162 144.698 32.2268 144.814C32.0373 144.93 31.8264 145.006 31.6067 145.037C31.1923 145.115 30.7644 145.072 30.3736 144.914C29.9828 144.755 29.6456 144.488 29.4019 144.144C29.3468 144.056 29.2145 144.144 29.2586 144.255C29.4817 144.728 29.866 145.107 30.3426 145.323C30.8192 145.539 31.3572 145.578 31.8603 145.434C32.1945 145.338 32.5052 145.174 32.7727 144.952C33.0403 144.73 33.2589 144.455 33.4146 144.144C33.603 144.657 33.6584 145.209 33.5755 145.749C33.4926 146.289 33.2742 146.799 32.9406 147.231C32.7863 147.418 32.8635 147.76 33.1832 147.639C35.5864 146.702 34.0981 142.888 32.9076 141.51Z" fill="#9F5216"/>
<path d="M115.73 138.015C116.458 136.736 119.478 135.325 119.798 137.497C119.798 137.629 119.588 137.574 119.566 137.497C119.258 136.262 118.012 136.835 117.273 137.32C116.708 137.716 116.293 138.291 116.094 138.952C115.988 139.25 115.907 139.556 115.851 139.867L115.94 139.922C116.149 140.142 116.237 140.418 116.436 140.628C116.736 140.904 117.13 141.054 117.538 141.046C117.936 141.041 118.324 140.924 118.657 140.707C118.991 140.491 119.257 140.184 119.423 139.823C119.423 139.724 119.599 139.823 119.577 139.889C119.46 140.372 119.173 140.796 118.768 141.084C118.362 141.371 117.867 141.503 117.373 141.454C117.046 141.428 116.728 141.335 116.44 141.179C116.151 141.023 115.898 140.809 115.697 140.55C115.617 141.059 115.666 141.58 115.84 142.066C116.013 142.551 116.305 142.985 116.689 143.328C116.877 143.461 116.866 143.791 116.546 143.747C114.198 143.317 114.881 139.503 115.73 138.015Z" fill="#9F5216"/>
<g style="mix-blend-mode:multiply" opacity="0.5">
<path d="M117.571 133.109C114.154 132.546 113.095 136.658 113.095 136.658C113.02 128.739 112.394 120.834 111.221 113.001C106.944 109.793 102.799 101.911 102.799 101.911C102.799 101.911 103.339 110.862 101.465 110.995C96.5153 110.995 91.5435 102.043 91.5435 102.043C91.5435 102.043 88.2364 108.724 86.3293 108.195C84.4221 107.666 87.134 101.646 87.134 101.646C71.7667 109.264 70.2895 107.258 73.1006 103.785C55.0545 112.207 52.1552 110.995 56.7963 105.791C45.5629 115.548 36.4792 115.404 36.4792 115.404C35.4238 118.729 35.1484 122.252 35.6745 125.701C36.1041 129.981 35.926 134.302 35.1454 138.532C32.202 133.715 26.7231 137.43 26.5908 142.402C26.4585 147.374 31.2649 151.761 34.8698 150.03C35.6745 159.775 47.7015 168.936 47.7015 168.936C47.7015 168.936 68.9556 182.363 98.6209 167.735C115.333 158.574 114.054 144.375 114.054 144.375C114.054 144.375 116.458 148.289 119.566 143.879C122.675 139.469 120.988 133.726 117.571 133.109ZM71.7998 172.144C38.9155 170.535 32.1138 150.295 41.3187 146.084C37.9123 135.06 41.1203 123.033 41.1203 123.033C41.7266 119.417 46.7314 119.825 52.552 114.412C53.1473 118.414 66.1776 114.809 69.3855 111.193C69.7934 116.815 79.6157 111.601 82.6142 109.198C82.0079 114.809 88.4238 113.2 90.0223 109.793C96.4492 118.822 100.252 120.023 101.652 115.404C106.668 128.236 105.665 137.066 105.467 142.876C120.514 149.733 100.66 171.791 71.7998 172.188V172.144Z" fill="#EDB89A"/>
</g>
<g style="mix-blend-mode:multiply" opacity="0.8">
<path d="M117.571 133.109C114.154 132.546 113.095 136.658 113.095 136.658C113.02 128.739 112.394 120.834 111.221 113.001C106.944 109.793 102.799 101.911 102.799 101.911C102.799 101.911 103.339 110.862 101.465 110.995C96.5153 110.995 91.5435 102.043 91.5435 102.043C91.5435 102.043 88.2364 108.724 86.3292 108.195C84.4221 107.666 87.134 101.646 87.134 101.646C71.7667 109.264 70.2895 107.258 73.1006 103.785C55.0545 112.207 52.1552 110.995 56.7962 105.791C45.5629 115.548 36.4792 115.404 36.4792 115.404C35.4237 118.729 35.1484 122.252 35.6745 125.701C36.1041 129.981 35.9259 134.302 35.1453 138.532C33.2823 135.49 30.4161 135.865 28.531 137.794C30.7358 137.21 33.7012 137.617 35.917 142.137C38.0446 145.588 36.2477 127.685 38.21 118.491C44.2952 117.168 52.541 111.877 53.6434 111.094C52.3316 114.544 63.4988 113.067 69.9036 107.478C69.4076 110.785 77.6204 109.782 84.3559 105.351C83.2536 110.444 87.3103 112.737 91.753 105.516C96.6806 116.022 103.571 116.54 104.232 111.094C109.821 117.344 111.949 129.835 112.279 140.66C113.613 137.353 116.469 133.77 119.456 134.134C118.946 133.609 118.289 133.251 117.571 133.109Z" fill="#EDB89A"/>
</g>
<g style="mix-blend-mode:multiply" opacity="0.6">
<path d="M70.1242 140.22C70.1242 140.22 71.2266 148.168 65.406 149.458C61.7461 150.56 61.7461 154.826 70.1242 156.756C74.8535 157.406 77.6425 153.967 76.5732 151.817C75.5039 149.667 72.4613 156.745 66.3541 151.916C65.1855 150.318 67.3352 151.177 69.4849 149.237C71.6345 147.297 71.6345 144.133 70.1242 140.22Z" fill="#FBD0B4"/>
</g>
<path d="M95.1595 139.581C95.6004 144.189 94.0571 147.992 90.8381 148.587C87.6192 149.182 84.5104 146.25 84.2238 141.631C83.9372 137.012 86.2853 132.437 89.1846 132.062C92.0838 131.687 94.7185 134.984 95.1595 139.581Z" fill="#2C7CAC"/>
<g style="mix-blend-mode:multiply" opacity="0.6">
<path d="M95.1594 139.581C94.7185 134.984 92.0397 131.687 89.1514 132.062C86.2632 132.437 83.86 137.001 84.1907 141.631C84.5214 146.261 87.6191 149.193 90.805 148.587C93.9909 147.981 95.6004 144.189 95.1594 139.581ZM85.2379 137.266C86.1529 135.888 86.3403 136.681 86.1199 137.85C85.8994 139.018 85.0726 142.866 87.0789 145.081C88.027 146.129 89.2837 146.459 89.3498 146.834C89.416 147.209 86.9797 147.683 85.6348 145.324C84.1356 142.612 84.345 138.621 85.282 137.266H85.2379Z" fill="#4A5F70"/>
</g>
<g style="mix-blend-mode:multiply" opacity="0.4">
<path d="M93.9028 140.154C93.561 137.034 91.6208 134.917 89.4932 135.347L89.0633 135.469C88.7766 134.984 86.5719 136.758 86.1971 139.206C86.0073 140.014 85.9404 140.847 85.9986 141.675C86.2412 144.784 88.468 146.768 90.7389 146.327C93.0098 145.886 94.2114 143.274 93.9028 140.154Z" fill="#4A5F70"/>
</g>
<g style="mix-blend-mode:multiply" opacity="0.6">
<path d="M95.1594 139.581C94.7185 134.984 92.0397 131.687 89.1514 132.062C86.2632 132.437 83.86 137.001 84.1907 141.631C84.5214 146.261 87.6191 149.193 90.805 148.587C93.9909 147.981 95.6004 144.189 95.1594 139.581ZM90.7499 147.485C87.7183 148.058 84.808 145.28 84.5435 141.069C84.2789 136.858 86.4616 132.635 89.1404 132.25C91.8192 131.864 94.3437 134.873 94.7515 139.118C95.1594 143.362 93.7814 146.911 90.7499 147.441V147.485Z" fill="#4A5F70"/>
</g>
<path d="M92.8883 140.573C93.1529 142.899 92.1828 144.916 90.4631 145.247C88.7433 145.578 87.0897 144.067 86.9023 141.741C86.7149 139.415 87.9165 137.332 89.5371 136.979C91.1576 136.626 92.6237 138.247 92.8883 140.573Z" fill="black"/>
<g style="mix-blend-mode:multiply" opacity="0.4">
<path d="M89.4601 137.651C88.6222 135.953 88.8868 133.924 89.9782 133.351C91.0695 132.778 92.5688 133.858 93.2853 135.556C94.0019 137.254 94.0791 139.271 92.9767 139.734C91.8743 140.197 90.2868 139.326 89.4601 137.651Z" fill="#4A5F70"/>
</g>
<g style="mix-blend-mode:overlay" opacity="0.4">
<path d="M85.5686 139.316C85.4915 141.168 85.6789 144.828 88.2585 146.04C89.7577 146.768 86.219 146.944 85.2379 143.086C84.4772 140.11 85.6789 136.979 85.5686 139.316Z" fill="white"/>
</g>
<g style="mix-blend-mode:overlay" opacity="0.4">
<path d="M85.8444 137.287C86.2413 137.353 86.098 138.389 85.5468 138.257C85.172 138.18 85.3153 137.199 85.8444 137.287Z" fill="white"/>
</g>
<path d="M90.2429 137.21C89.6256 135.909 89.7909 134.399 90.5957 133.98C91.4004 133.561 92.5138 134.388 93.076 135.667C93.6383 136.945 93.6713 138.467 92.8556 138.83C92.0398 139.194 90.9043 138.5 90.2429 137.21Z" fill="white"/>
<path d="M61.1949 140.418C61.6358 145.015 60.0925 148.818 56.8735 149.424C53.6545 150.03 50.5458 147.076 50.2592 142.457C49.9726 137.838 52.3096 133.263 55.2089 132.888C58.1082 132.514 60.7539 135.821 61.1949 140.418Z" fill="#2C7CAC"/>
<g style="mix-blend-mode:multiply" opacity="0.6">
<path d="M61.1948 140.418C60.7539 135.821 58.0751 132.514 55.1758 132.888C52.2765 133.263 49.8954 137.838 50.2261 142.457C50.5568 147.076 53.6435 150.019 56.8404 149.424C60.0373 148.829 61.6358 145.015 61.1948 140.418ZM51.2733 138.092C52.1883 136.714 52.3757 137.507 52.1553 138.676C51.9348 139.844 51.108 143.692 53.1143 145.908C54.0624 146.955 55.3191 147.286 55.3852 147.66C55.4514 148.035 53.0151 148.509 51.6702 146.15C50.1158 143.438 50.3804 139.492 51.3174 138.092H51.2733Z" fill="#4A5F70"/>
</g>
<g style="mix-blend-mode:multiply" opacity="0.4">
<path d="M59.927 140.98C59.5963 137.872 57.6561 135.755 55.5175 136.174L55.0876 136.295C54.8009 135.81 52.5962 137.585 52.2213 140.032C52.0316 140.841 51.9647 141.673 52.0229 142.502C52.2655 145.61 54.4923 147.595 56.7632 147.165C59.0341 146.735 60.2578 144.133 59.927 140.98Z" fill="#4A5F70"/>
</g>
<g style="mix-blend-mode:multiply" opacity="0.6">
<path d="M61.1948 140.418C60.7539 135.821 58.0751 132.514 55.1758 132.888C52.2765 133.263 49.8954 137.838 50.2261 142.457C50.5568 147.076 53.6435 150.019 56.8404 149.424C60.0373 148.829 61.6358 145.015 61.1948 140.418ZM56.7853 148.311C53.7537 148.884 50.8434 146.106 50.5789 141.906C50.3143 137.706 52.497 133.462 55.1758 133.087C57.8546 132.712 60.3791 135.721 60.7869 139.955C61.1948 144.188 59.8168 147.738 56.7853 148.311Z" fill="#4A5F70"/>
</g>
<path d="M58.9349 141.399C59.1884 143.725 58.2293 145.742 56.5096 146.073C54.7899 146.404 53.1363 144.893 52.9379 142.567C52.7394 140.241 53.9631 138.158 55.5836 137.805C57.2041 137.452 58.6593 139.073 58.9349 141.399Z" fill="black"/>
<g style="mix-blend-mode:multiply" opacity="0.4">
<path d="M55.4955 138.478C54.6576 136.78 54.9222 134.752 56.0136 134.178C57.1049 133.605 58.6042 134.685 59.3207 136.383C60.0373 138.081 60.1145 140.098 59.0121 140.561C57.9097 141.024 56.3222 140.153 55.4955 138.478Z" fill="#4A5F70"/>
</g>
<g style="mix-blend-mode:overlay" opacity="0.4">
<path d="M51.604 140.142C51.5269 141.994 51.7143 145.654 54.2939 146.867C55.7931 147.594 52.2544 147.77 51.2733 143.912C50.5126 140.936 51.7143 137.805 51.604 140.142Z" fill="white"/>
</g>
<g style="mix-blend-mode:overlay" opacity="0.4">
<path d="M51.8798 138.114C52.2656 138.18 52.1333 139.216 51.5821 139.084C51.2183 139.007 51.3506 138.026 51.8798 138.114Z" fill="white"/>
</g>
<path d="M56.2782 138.037C55.6608 136.736 55.8262 135.226 56.6309 134.807C57.4357 134.388 58.5491 135.215 59.1113 136.494C59.6735 137.772 59.7066 139.294 58.8908 139.658C58.0751 140.021 56.8955 139.327 56.2782 138.037Z" fill="white"/>
<path d="M79.9794 164.119C79.2105 162.456 78.0022 161.034 76.4848 160.007C75.6012 159.53 74.6076 159.292 73.6035 159.319C72.5993 159.347 71.6199 159.637 70.7634 160.162C69.1236 161.321 67.8804 162.957 67.2027 164.847C66.2546 167.052 65.5381 169.609 66.7066 171.847C66.7727 171.979 66.9822 171.847 67.0153 171.726C67.1031 171.736 67.192 171.736 67.2799 171.726C67.3975 171.665 67.5052 171.587 67.5995 171.494H67.6547C71.4138 169.29 76.3746 167.581 80.6849 168.97C80.7863 168.993 80.8924 168.983 80.9877 168.941C81.083 168.9 81.1623 168.829 81.214 168.738C81.9637 167.206 80.6739 165.31 79.9794 164.119Z" fill="#A05627"/>
<path d="M67.6218 170.822C67.518 170.809 67.413 170.833 67.3241 170.888L67.1478 171.042H67.0927L67.0155 171.097H66.9493H66.8942C66.2989 169.344 66.8942 167.239 67.5557 165.585C68.1428 163.841 69.1631 162.274 70.5211 161.032C71.2397 160.453 72.1074 160.089 73.0242 159.981C73.941 159.874 74.8694 160.028 75.7023 160.426C77.1382 161.233 78.2923 162.46 79.0095 163.943C79.4496 164.655 79.8507 165.391 80.2111 166.147C80.5435 166.73 80.729 167.384 80.7513 168.055C76.2866 166.996 71.392 168.518 67.6218 170.822Z" fill="#9E0000"/>
<path d="M72.4723 167.284C71.8021 167.462 71.1793 167.786 70.6479 168.232C70.1165 168.677 69.6893 169.234 69.3966 169.863C72.0832 168.458 75.0739 167.735 78.1055 167.758C76.3357 166.966 74.3495 166.799 72.4723 167.284Z" fill="#E84F65"/>
<path d="M72.6927 162.642C73.8855 162.164 75.0002 161.51 75.9999 160.702C75.876 160.624 75.7471 160.554 75.614 160.492C74.7811 160.095 73.8527 159.941 72.9359 160.048C72.0191 160.155 71.1514 160.519 70.4328 161.099C69.7928 161.633 69.242 162.265 68.8013 162.973C70.0986 163.305 71.4701 163.189 72.6927 162.642Z" fill="white"/>
<path d="M127.768 82.7961C129.578 80.6568 131.59 78.6966 133.776 76.9424C136.099 74.9746 137.978 72.5359 139.288 69.7879C140.499 66.9449 140.833 63.8046 140.247 60.7704C139.145 54.7182 134.471 50.2425 129.366 47.244C126.908 45.8109 124.262 44.7747 121.705 43.54C119.332 42.5622 117.229 41.027 115.576 39.0643C114.775 37.8867 114.248 36.5451 114.032 35.1375C113.817 33.7299 113.918 32.2919 114.33 30.9287C114.705 29.4515 115.311 27.9853 115.774 26.5191C115.774 26.0341 115.774 25.549 115.774 25.053C115.843 23.6669 115.558 22.2862 114.947 21.0403C115.141 22.1204 115.108 23.2291 114.85 24.2958C114.592 25.3625 114.114 26.3637 113.448 27.2357C111.901 29.0837 110.093 30.6955 108.079 32.0201C105.825 33.5427 103.89 35.4897 102.38 37.7525L102.248 37.984C102.336 37.1026 102.491 36.2292 102.711 35.3713C103.56 32.0641 105.301 28.6578 103.813 25.2955C102.545 22.3411 99.7011 20.7757 97.1987 19.056C95.6448 18.1626 94.3407 16.8926 93.4065 15.363C92.6018 13.7535 93.0207 11.9235 92.9876 10.2038C92.9876 9.96125 92.7341 9.89511 92.5356 9.9833C91.9075 10.2788 91.351 10.7072 90.9046 11.2389C90.4582 11.7705 90.1325 12.3927 89.9501 13.0626C89.7677 13.7324 89.7329 14.4338 89.8482 15.1184C89.9634 15.803 90.2259 16.4544 90.6175 17.0276C91.5655 18.4276 93.197 19.508 93.4396 21.2938C93.5174 23.166 92.8743 24.9967 91.6427 26.4089C90.0773 28.3381 87.6741 29.2531 85.7339 30.7523C86.217 29.2119 86.4514 27.6042 86.4284 25.99C86.3387 24.3576 85.9305 22.7585 85.2268 21.2828C83.6961 18.3444 81.4138 15.8643 78.6125 14.0952C75.3411 12.0084 71.8376 10.3103 68.1728 9.03525C66.4972 8.39586 64.4137 7.80057 63.6751 5.97061C63.2711 4.99582 63.1975 3.91552 63.4656 2.89495C63.8987 2.06082 64.2672 1.19474 64.568 0.304332C64.568 0.061807 64.3255 -0.0263888 64.1381 0.00668282C62.4294 0.260232 61.0404 1.96893 60.2136 3.31385C59.6796 4.20661 59.352 5.20747 59.2547 6.24318C59.1574 7.27889 59.293 8.32325 59.6514 9.29983C60.3349 11.1849 62.1869 13.0259 61.8561 15.1645C61.5839 16.2944 60.995 17.3231 60.1585 18.13C59.4228 18.8973 58.6017 19.5779 57.7112 20.1583C55.7505 21.4201 53.6937 22.5258 51.5598 23.4655C49.2448 24.5679 46.8637 25.4939 44.4715 26.3979C42.2667 27.2136 40.0619 27.9192 37.8572 28.7019C35.746 29.362 33.7707 30.3963 32.0255 31.7555C31.3352 32.3402 30.7531 33.0417 30.3058 33.828C30.1113 33.1781 30.055 32.4946 30.1404 31.8216C30.2344 30.9802 30.5247 30.1727 30.9882 29.4642C31.4516 28.7557 32.075 28.166 32.8082 27.7428C33.1389 27.5664 33.3153 26.927 32.7421 27.0373C28.915 27.7132 25.4573 29.7394 22.9969 32.7476C21.7607 34.2847 20.9889 36.1427 20.7721 38.1033C20.5554 40.0639 20.9027 42.0456 21.7733 43.8156C22.2954 44.8053 22.8886 45.7559 23.5481 46.6598C24.2036 47.4901 24.6972 48.4362 25.0033 49.4488C25.1071 50.2904 24.9992 51.1446 24.6892 51.9339C24.3793 52.7231 23.8771 53.4225 23.2284 53.9686C21.2 55.9198 18.2787 56.6584 15.7432 57.6947C14.9839 58.0112 14.2473 58.3795 13.5385 58.7971C13.5385 58.5545 13.5385 58.312 13.5385 58.0805C13.4798 57.0913 13.2562 56.1188 12.877 55.2033C12.877 55.1041 12.7888 55.0049 12.7447 54.8946C12.4018 54.6449 12.032 54.4341 11.6424 54.2663C11.758 54.8395 11.8134 55.4233 11.8077 56.008C11.8063 56.1067 11.7702 56.2017 11.7057 56.2763C11.6411 56.3509 11.5523 56.4003 11.4549 56.4159C11.4549 56.5592 11.3447 56.6915 11.2785 56.8238C10.4021 58.5233 9.28856 60.0897 7.97138 61.4759C4.37759 65.5988 0.717682 70.0966 0.100345 75.7408C-0.288999 78.8644 0.462596 82.0235 2.21691 84.6371C4.00498 86.921 6.20787 88.8471 8.71 90.3144C11.0801 91.8798 13.7259 93.3239 15.3243 95.8263C17.1322 98.6925 16.6362 102.165 15.1149 105.042C13.9574 107.247 12.392 109.176 11.477 111.513C11.3203 111.912 11.1914 112.321 11.0912 112.737C10.8178 112.549 10.563 112.335 10.3305 112.098C9.75605 111.464 9.38237 110.675 9.25679 109.829C9.1312 108.983 9.25932 108.119 9.62497 107.346C9.76828 106.971 9.21708 106.96 9.0407 107.17C7.4641 109.344 6.68542 111.996 6.83592 114.677C6.92198 115.809 7.28987 116.901 7.90602 117.854C8.52216 118.807 9.36701 119.591 10.3636 120.134C12.5022 121.49 14.8723 122.394 16.8677 123.981C17.8975 124.764 18.7502 125.756 19.3701 126.892C19.9935 128.179 20.183 129.633 19.9103 131.037C19.3921 133.991 17.7055 136.549 16.8236 139.404C16.1462 141.64 16.0027 144.003 16.4047 146.305C16.8985 148.463 17.9263 150.464 19.394 152.122C20.8617 153.78 22.7221 155.044 24.8049 155.796C27.1084 156.595 29.4929 157.139 31.9153 157.417C34.1972 157.803 36.6114 158.387 38.2871 160.107C38.4414 160.283 38.5957 160.459 38.7391 160.647C38.8824 160.834 39.0257 161.209 39.158 161.496C39.158 161.584 39.2792 161.595 39.3674 161.573C39.4556 161.727 39.7753 161.573 39.7092 161.374V161.297C39.7145 161.264 39.7145 161.231 39.7092 161.198C38.8925 159.296 37.9421 157.454 36.865 155.686C36.3499 154.721 35.9077 153.719 35.5421 152.688C35.3106 152.037 34.7705 151.078 34.9358 150.372C34.9358 150.229 34.8697 150.086 34.7043 150.141C33.8763 150.314 33.0184 150.279 32.2068 150.041C31.3953 149.802 30.6552 149.367 30.0522 148.774C29.0643 147.907 28.3387 146.78 27.9577 145.522C27.0978 143.02 27.0868 139.911 28.9168 137.805C29.3843 137.193 30.0602 136.775 30.8162 136.628C31.5722 136.482 32.3556 136.618 33.0177 137.012C33.6396 139.143 34.572 141.171 35.7847 143.031C36.7878 144.486 37.9233 145.842 38.8052 147.44C38.9816 147.749 39.621 147.352 39.4887 147.054C37.7485 142.902 37.052 138.387 37.4603 133.903C37.8701 130.356 39.0638 126.944 40.9549 123.915C41.7531 122.538 42.8354 121.347 44.1297 120.421C45.4511 120.644 46.7927 120.726 48.1314 120.663C50.9365 120.501 53.7141 120.02 56.4103 119.23C57.8082 118.871 59.1757 118.403 60.5002 117.83C61.8171 117.23 63.1014 116.56 64.3476 115.824C66.9172 117.119 69.7725 117.745 72.6485 117.643C75.6328 117.414 78.5486 116.633 81.2472 115.339C82.8897 117.929 87.1449 118.061 90.0663 117.731C92.7416 117.476 95.3389 116.689 97.7058 115.416C99.0056 114.713 100.103 113.688 100.892 112.439C100.892 112.362 100.969 112.274 101.013 112.197C100.898 113.547 101.149 114.903 101.741 116.121C102.757 117.989 104.046 119.694 105.566 121.181C107.092 122.695 108.483 124.341 109.722 126.098C110.301 126.987 110.716 127.972 110.946 129.008C111.19 130.417 111.231 131.854 111.067 133.274C110.881 134.788 110.833 136.316 110.923 137.838C111.089 139.439 111.761 140.945 112.842 142.138C113.018 142.358 113.371 142.138 113.338 141.862C113.073 140.434 113.073 138.969 113.338 137.541C113.715 136.3 114.346 135.152 115.19 134.167L115.664 133.55C115.953 133.397 116.273 133.31 116.601 133.297C117.198 133.28 117.786 133.445 118.287 133.771C119.433 134.676 120.215 135.963 120.492 137.397C120.905 138.979 120.804 140.65 120.206 142.171C119.824 143.496 119.057 144.678 118.001 145.566C116.468 146.58 115.046 145.191 114.396 143.868C114.242 143.56 113.657 143.957 113.812 144.276C113.837 144.334 113.866 144.389 113.9 144.442C113.886 146.324 113.705 148.202 113.36 150.053C112.89 152.174 111.986 154.175 110.703 155.929C110.494 156.204 110.824 156.358 111.045 156.281C111.873 156.076 112.727 155.991 113.58 156.028C114.417 155.985 115.25 155.882 116.072 155.719C117.792 155.412 119.469 154.898 121.065 154.187C123.454 153.099 125.662 151.653 127.614 149.898C129.658 148.244 131.138 145.994 131.847 143.461C132.464 140.627 131.064 138.07 129.94 135.567C129.271 134.214 128.821 132.763 128.606 131.268C128.442 129.755 128.71 128.226 129.377 126.859C130.612 124.257 132.806 122.284 134.195 119.781C135.866 116.993 136.388 113.665 135.65 110.499C134.845 107.644 132.63 105.571 130.8 103.356C129.004 101.39 127.921 98.878 127.724 96.2232C127.685 95.0522 127.942 93.8903 128.469 92.8443C128.997 91.7983 129.78 90.9018 130.744 90.2372C130.866 90.149 131.009 90.0718 131.141 89.9947C131.666 89.5403 132.257 89.1686 132.894 88.8923C132.914 88.8629 132.929 88.8296 132.936 88.7946C132.943 88.7595 132.943 88.7234 132.936 88.6884C132.928 88.6533 132.914 88.6201 132.894 88.5908C132.873 88.5614 132.847 88.5365 132.817 88.5175C132.034 88.1282 131.175 87.9155 130.3 87.8946C129.426 87.8736 128.558 88.0449 127.757 88.3962C127.257 88.5864 126.783 88.8382 126.346 89.1458C126.116 88.7901 125.907 88.4221 125.718 88.0434C125.723 87.4794 125.79 86.9176 125.916 86.3678C126.286 85.0645 126.916 83.8495 127.768 82.7961Z" fill="#3F4244"/>
<path d="M125.442 91.0306C125.645 90.7723 125.878 90.5391 126.136 90.3361C126.167 90.2872 126.204 90.2427 126.247 90.2038L126.467 90.0715C126.585 89.9735 126.71 89.885 126.842 89.8069V89.7297C127.235 89.448 127.666 89.2218 128.121 89.0573C129.229 88.6213 130.451 88.567 131.593 88.9029C129.622 89.8378 128.086 91.4959 127.305 93.533C126.579 95.8138 126.765 98.287 127.823 100.434C129.036 103.102 131.207 105.031 132.949 107.324C133.886 108.475 134.566 109.813 134.945 111.248C135.3 112.899 135.262 114.609 134.834 116.242C134.416 117.818 133.73 119.309 132.806 120.652C132.012 121.831 131.097 122.912 130.259 124.058C128.529 126.384 127.36 128.975 127.79 131.929C128.22 134.884 130.149 137.529 130.921 140.484C131.174 141.734 131.12 143.028 130.762 144.253C130.405 145.478 129.756 146.598 128.87 147.517C126.914 149.787 124.521 151.641 121.834 152.966C119.146 154.292 116.219 155.063 113.227 155.234C112.715 155.262 112.206 155.336 111.706 155.454C112.815 153.796 113.636 151.962 114.131 150.03C114.445 148.404 114.545 146.744 114.429 145.092C114.742 145.587 115.204 145.971 115.749 146.187C116.294 146.402 116.893 146.44 117.461 146.293C118.872 145.863 119.665 144.408 120.294 143.163C121.177 141.493 121.524 139.591 121.286 137.717C121.032 136.107 120.316 134.09 118.839 133.208C118.451 132.977 118.022 132.825 117.575 132.76C117.129 132.696 116.674 132.721 116.237 132.833C116.661 132.286 117.03 131.699 117.339 131.08C117.895 129.934 118.242 128.699 118.365 127.431C118.543 124.854 117.885 122.287 116.491 120.112C115.397 118.43 114.534 116.609 113.922 114.699C113.584 113.631 113.482 112.503 113.624 111.392C113.822 110.261 114.392 109.228 115.245 108.459C115.531 108.173 115.168 107.875 114.881 108.096C111.089 110.885 113.084 116.011 114.936 119.329C115.509 120.354 116.16 121.335 116.634 122.416C117.184 123.677 117.494 125.031 117.549 126.406C117.593 127.803 117.341 129.193 116.81 130.485C116.255 131.677 115.543 132.789 114.694 133.792C113.746 134.915 113.063 136.238 112.698 137.662C112.517 138.712 112.517 139.786 112.698 140.836C111.386 138.72 111.53 136.173 111.772 133.715C112.015 131.257 112.158 128.721 111.012 126.417C109.138 122.647 105.412 120.222 103.13 116.738C102.485 115.859 102.031 114.855 101.797 113.79C101.564 112.724 101.556 111.622 101.774 110.554C101.994 109.881 102.16 109.187 102.314 108.492C102.55 107.067 103.043 105.696 103.769 104.447C104.734 103.166 106.003 102.147 107.462 101.481C110.196 100.059 113.25 99.2764 115.84 97.5567C117.074 96.7573 118.135 95.7178 118.958 94.5C119.782 93.2823 120.353 91.9111 120.636 90.4683C120.906 89.0628 120.906 87.6187 120.636 86.2131C120.433 85.2919 120.145 84.3914 119.776 83.5233C118.878 81.4291 118.141 79.2695 117.571 77.0633C117.163 75.1672 117.119 72.9073 118.806 71.5514C119.276 71.1957 119.791 70.903 120.338 70.6805C120.413 70.6492 120.472 70.5898 120.503 70.5151C119.033 70.8736 117.757 71.7858 116.943 73.0616C116.761 73.4829 116.642 73.9286 116.59 74.3845C116.495 76.531 116.91 78.6694 117.802 80.624C118.628 82.4795 119.321 84.3915 119.875 86.3454C120.186 87.7641 120.193 89.2327 119.895 90.6541C119.596 92.0756 119 93.4175 118.144 94.5913C116.248 97.1268 113.261 98.2953 110.427 99.4528C107.782 100.555 104.75 101.779 103.13 104.27C101.509 106.762 101.807 109.672 100.396 112.086C98.8633 114.721 95.6003 115.845 92.7892 116.496C90.7482 116.987 88.6438 117.162 86.5497 117.014C84.6315 116.848 82.3937 116.231 81.4236 114.401C81.1885 113.921 81.0428 113.402 80.9937 112.869C80.9937 112.715 80.696 112.869 80.707 112.968C80.7296 113.655 80.9027 114.329 81.2141 114.941C78.8362 116.041 76.2843 116.716 73.6738 116.937C71.0336 117.123 68.3872 116.673 65.9571 115.625C63.8332 114.876 62.0082 113.461 60.7538 111.59C59.9307 110.046 59.5854 108.293 59.7616 106.552C59.9931 102.76 61.6137 99.2103 61.9003 95.4291C62.1455 93.1734 61.5271 90.9085 60.1695 89.0904C58.6205 87.424 56.6461 86.2119 54.4592 85.5848C52.1221 84.7469 49.4764 84.0635 47.6795 82.2776C47.2474 81.8681 46.9078 81.3711 46.6835 80.8197C46.4591 80.2684 46.3552 79.6755 46.3786 79.0807C46.4187 78.1532 46.7505 77.262 47.3267 76.5341C47.1521 77.0367 47.0961 77.5729 47.163 78.1007C47.2299 78.6285 47.418 79.1337 47.7125 79.5767C48.8601 80.7159 50.3233 81.484 51.9126 81.7815C55.7159 82.8839 59.8829 82.7075 63.4326 84.6146C65.0968 85.4689 66.493 86.7659 67.4673 88.3628C68.3834 89.9904 68.7688 91.8633 68.5697 93.7204C68.3823 95.7929 67.6988 97.9095 68.239 99.9709C68.4635 100.784 68.847 101.545 69.3674 102.209C69.8877 102.873 70.5346 103.428 71.2706 103.84C72.8923 104.617 74.5643 105.283 76.2754 105.836C77.94 106.563 79.2629 107.754 79.1968 109.694C79.1968 109.981 79.6377 109.815 79.6597 109.595C79.7418 108.89 79.6229 108.177 79.3166 107.537C79.0103 106.897 78.5293 106.357 77.929 105.979C76.6459 105.255 75.2801 104.689 73.8612 104.292C72.1906 103.781 70.7268 102.75 69.6831 101.349C68.4705 99.5079 68.7571 97.3913 69.0768 95.3409C69.473 93.4627 69.4201 91.5175 68.9225 89.6636C68.3932 88.0628 67.4364 86.6371 66.1555 85.5407C63.1019 82.8619 59.1333 82.4319 55.297 81.7925C53.1453 81.5713 51.0585 80.9269 49.1567 79.8964C48.5358 79.5528 48.0644 78.9911 47.8338 78.32C47.6715 77.4844 47.7677 76.6192 48.1094 75.8396C48.1976 75.6081 47.933 75.4979 47.7456 75.5861C45.9928 76.3908 45.3424 79.0255 45.8605 80.7453C46.4889 82.8178 48.5503 84.0524 50.4134 84.8572C52.7063 85.8604 55.1977 86.4005 57.3364 87.7234C58.4003 88.3538 59.2971 89.2306 59.9513 90.28C60.6056 91.3294 60.998 92.5207 61.0955 93.7535C61.1679 95.9178 60.8773 98.079 60.2357 100.147C59.7085 102.044 59.3071 103.974 59.0341 105.924C58.7678 107.726 58.9808 109.566 59.6514 111.259C60.5614 113.13 62.0817 114.635 63.9617 115.526L64.1161 115.603C63.0352 116 61.9755 116.452 60.9412 116.959C59.757 117.472 58.5376 117.899 57.2923 118.238C54.9684 118.906 52.5942 119.385 50.1929 119.671C45.9487 120.112 40.7565 119.671 38.0666 115.9C35.7957 112.803 35.476 108.636 35.013 104.943C34.55 101.25 34.0429 97.226 31.0665 94.5913C29.8763 93.62 28.5644 92.8084 27.164 92.177C25.9004 91.8048 24.6973 91.2515 23.5923 90.5345C22.6074 89.7982 21.9096 88.7419 21.619 87.547C21.6237 87.9195 21.6755 88.2899 21.7733 88.6494C22.0682 89.5341 22.607 90.3175 23.3277 90.9093C24.1905 91.578 25.1351 92.1337 26.1388 92.5629C27.0538 93.0369 27.9798 93.4999 28.8617 94.0511C30.6458 95.1071 32.0357 96.7176 32.8193 98.637C33.4746 100.469 33.8932 102.377 34.065 104.314C34.55 108.14 34.7484 112.307 36.7438 115.702C37.5033 116.914 38.5128 117.95 39.7047 118.741C40.8967 119.532 42.2437 120.059 43.6558 120.288C42.6854 120.97 41.8421 121.817 41.1643 122.79C40.1126 124.256 39.2358 125.839 38.5517 127.509C36.9334 131.332 36.3407 135.512 36.832 139.635C37.0346 141.235 37.3777 142.813 37.8572 144.353L37.0414 143.251C36.097 141.973 35.3052 140.589 34.6823 139.128C33.3857 136.273 32.695 133.18 32.6539 130.044C32.6685 129.099 32.7496 128.156 32.8964 127.222C32.5236 128.335 32.2145 129.469 31.9704 130.617C31.9843 131.768 32.0986 132.915 32.3122 134.046C32.4564 134.845 32.6441 135.637 32.8744 136.416C32.3476 136.09 31.7351 135.929 31.1161 135.955C30.4971 135.98 29.9 136.191 29.4018 136.559C28.1005 137.509 27.1973 138.907 26.8664 140.484C26.5433 141.986 26.5869 143.543 26.9938 145.025C27.4006 146.506 28.1586 147.868 29.2034 148.994C29.8719 149.682 30.7033 150.191 31.6206 150.472C32.5379 150.754 33.5114 150.799 34.4508 150.604C34.4257 151.282 34.5578 151.958 34.8367 152.577C35.1784 153.551 35.5759 154.504 36.0272 155.432C36.5674 156.535 37.1296 157.637 37.769 158.662C36.895 158.029 35.9123 157.562 34.8697 157.284C32.6649 156.634 30.2617 156.523 27.9908 155.961C23.5812 154.859 19.4253 152.213 17.7827 147.837C17.0214 145.719 16.8276 143.438 17.2205 141.222C17.6835 138.422 19.0835 135.986 20.0536 133.351C21.0237 130.717 21.2772 128.005 19.6457 125.635C18.1163 123.688 16.1381 122.141 13.8802 121.126C11.8518 120.023 9.47068 119.053 8.30215 116.97C7.73036 115.852 7.50395 114.59 7.65174 113.343C7.73969 111.954 8.04855 110.588 8.56671 109.297V109.209C8.52488 109.811 8.607 110.415 8.80799 110.984C9.00899 111.553 9.32458 112.074 9.73524 112.516C10.1004 112.91 10.5244 113.244 10.992 113.508C10.8589 114.201 10.9034 114.916 11.1212 115.587C11.339 116.258 11.7231 116.862 12.2377 117.345C12.4322 117.51 12.6385 117.661 12.855 117.797C12.3062 117.145 11.916 116.374 11.7152 115.546C11.5143 114.718 11.5083 113.854 11.6975 113.023C11.8003 112.717 11.9333 112.421 12.0944 112.141C13.0987 109.897 14.2936 107.743 15.6661 105.703C17.2535 102.936 18.1465 99.5851 16.8677 96.5204C15.7653 93.8527 13.3841 92.1109 11.036 90.6227C8.48021 89.1585 6.13623 87.3523 4.06898 85.254C1.9546 82.8596 0.855441 79.7361 1.00434 76.5452C1.22482 70.7135 5.02804 66.0615 8.66592 61.8503C10.0127 60.4146 11.162 58.8056 12.0833 57.066C12.1847 56.8623 12.2731 56.6524 12.3479 56.4376C12.5901 57.1502 12.7384 57.8914 12.7889 58.6424C12.7889 58.8849 12.7889 59.1274 12.7889 59.37C12.7675 61.2369 12.3386 63.0767 11.5321 64.7606C12.5724 63.2176 13.2576 61.4631 13.5385 59.6235C14.2404 59.1934 14.978 58.8246 15.7433 58.5211C18.2677 57.4849 21.0568 56.7793 23.2175 55.0265C24.292 54.18 25.1309 53.0716 25.6537 51.8076C26.0467 50.8958 26.1205 49.8782 25.8632 48.9193C25.5448 47.9755 25.0758 47.0895 24.4742 46.2956C23.1518 44.6314 22.211 42.6971 21.7182 40.6293C21.3978 38.6269 21.7302 36.5746 22.6663 34.7757C23.5911 33.1532 24.8313 31.7321 26.3137 30.5962C27.7961 29.4602 29.4908 28.6324 31.298 28.1613C30.3269 29.1456 29.6806 30.4036 29.446 31.7661C29.2614 32.8404 29.3995 33.9452 29.8428 34.941C29.3962 35.9865 29.2304 37.1304 29.3619 38.2596C29.4934 39.3888 29.9176 40.4641 30.5924 41.379C30.1105 39.9116 29.8976 38.3692 29.9641 36.8261C29.9991 36.4086 30.0729 35.9952 30.1846 35.5914C30.2397 35.4261 30.2948 35.2607 30.3609 35.0953V35.0182C30.4269 34.8514 30.5043 34.6893 30.5924 34.5331C30.6725 34.3814 30.7608 34.2342 30.857 34.0922C30.985 33.9311 31.1251 33.7801 31.2759 33.6402C31.605 33.1625 31.994 32.7291 32.4334 32.3504C34.1187 31.0512 36.0281 30.0723 38.0666 29.4621C40.1942 28.7015 42.3439 28.029 44.4605 27.2574C48.8928 25.7094 53.1704 23.7496 57.2372 21.4037C59.0064 20.4186 60.5469 19.0698 61.757 17.4461C62.3759 16.6282 62.7573 15.6556 62.8593 14.635C62.8605 13.7617 62.6446 12.9018 62.231 12.1326C61.5937 11.0665 61.0231 9.96201 60.5223 8.82542C60.0954 7.6436 60.0339 6.36067 60.3459 5.14345C60.6372 4.16142 61.1331 3.25221 61.8011 2.47567C62.2585 1.86833 62.8461 1.37111 63.5208 1.02051C63.2783 1.68194 62.8042 2.26621 62.6058 2.93867C62.3729 3.7682 62.3427 4.64153 62.5176 5.48519C62.6859 6.28769 63.054 7.03475 63.5877 7.65718C64.1215 8.2796 64.8037 8.75727 65.5712 9.04591C67.2799 9.82861 69.0768 10.4349 70.8186 11.1404C72.7234 11.8959 74.5663 12.799 76.3305 13.8413C79.3086 15.49 81.84 17.8398 83.7055 20.6871C84.5935 22.1256 85.1752 23.7318 85.4142 25.4054C85.5913 27.1279 85.4341 28.8685 84.9512 30.5315C84.841 30.9283 84.7307 31.3472 84.6315 31.7661C84.5433 31.8543 84.4662 31.9646 84.378 32.0528C84.3008 32.3945 84.2126 32.7252 84.1134 33.0559C84.8037 32.1616 85.69 31.4375 86.704 30.9394C88.4568 29.6826 90.4852 28.7346 91.9514 27.1692C93.0271 25.9848 93.7856 24.5475 94.1562 22.9911C94.3491 22.2054 94.3491 21.3847 94.1562 20.5989C93.9384 19.8615 93.5621 19.1805 93.0538 18.6036C91.9514 17.3028 90.7057 16.2114 90.5624 14.4256C90.4894 13.7426 90.605 13.0527 90.8965 12.4308C91.188 11.8089 91.6444 11.2787 92.216 10.8979C92.0795 12.235 92.1202 13.5842 92.3372 14.9106C92.8554 16.4102 93.8309 17.7095 95.1263 18.6257C97.5184 20.5659 100.539 21.8226 102.325 24.4353C103.365 25.9932 103.76 27.8942 103.427 29.7377C103.04 31.5436 102.546 33.3252 101.95 35.0733C101.49 36.6743 101.274 38.3356 101.311 40.001C100.73 41.7324 100.642 43.5912 101.057 45.3696C101.375 46.7105 101.915 47.9886 102.656 49.1508C101.532 47.1376 101.036 44.8338 101.233 42.5365C101.398 41.1839 101.869 39.8868 102.611 38.7443C102.785 38.3907 102.98 38.0483 103.196 37.719C104.786 35.5517 106.749 33.6851 108.994 32.2071C110.962 30.8868 112.72 29.2776 114.209 27.4338C114.435 27.1301 114.638 26.8095 114.815 26.4747C114.495 27.5771 114.109 28.5692 113.779 29.5834C112.693 32.305 112.693 35.3392 113.779 38.0608C115.983 42.9333 121.936 44.4767 126.335 46.6704C131.637 49.3162 136.896 53.2848 138.814 59.1384C139.824 62.1324 139.866 65.3681 138.935 68.3875C137.897 71.3307 136.125 73.9602 133.787 76.027C131.163 78.4633 127.492 81.1201 125.806 84.5265C125.203 86.6405 125.078 88.8624 125.442 91.0306Z" fill="#76797B"/>
<g style="mix-blend-mode:screen">
<path d="M42.5976 104.337C42.4799 103.084 42.4615 101.823 42.5425 100.567C42.6503 98.7138 42.117 96.8804 41.0322 95.3744C39.7534 93.8635 37.9798 92.8556 36.0273 92.5303C36.479 92.9069 36.9027 93.3158 37.2951 93.7539C38.397 95.0724 39.1815 96.6262 39.5881 98.2958C39.9605 100.287 40.2291 102.296 40.3928 104.315C40.944 107.975 42.7078 111.976 46.3457 113.299C45.3756 111.326 44.2181 109.452 43.4023 107.413C43.0032 106.426 42.7328 105.392 42.5976 104.337Z" fill="#76797B"/>
</g>
<g style="mix-blend-mode:screen">
<path d="M59.7065 106.53C59.5302 108.271 59.8755 110.024 60.6986 111.568C60.9791 112.047 61.3159 112.492 61.7018 112.891C61.1283 111.596 60.7566 110.22 60.5994 108.812C60.3673 106.83 60.4566 104.824 60.864 102.87C61.4711 100.545 62.2297 98.2617 63.1349 96.0354C63.9176 93.7204 64.2373 91.229 62.9585 89.0132C62.2257 87.7751 61.1392 86.7845 59.8388 86.169C57.0828 84.78 53.9189 84.5044 51.0196 83.4902C49.6487 83.0675 48.38 82.3656 47.2936 81.4287C47.0497 81.2052 46.8247 80.9619 46.6211 80.7012C46.8536 81.2771 47.2027 81.7988 47.6463 82.2335C49.4432 84.0414 52.0559 84.7249 54.426 85.5407C56.613 86.1678 58.5874 87.3799 60.1364 89.0462C61.494 90.8643 62.1124 93.1292 61.8671 95.385C61.5585 99.1882 59.938 102.738 59.7065 106.53Z" fill="#76797B"/>
</g>
<g style="mix-blend-mode:screen">
<path d="M16.8235 96.5098C17.2772 97.6013 17.4843 98.7795 17.4298 99.9603C17.4804 99.6537 17.5135 99.3445 17.5291 99.0342C17.5226 97.2687 16.9722 95.548 15.9526 94.1066C13.9904 91.075 11.0911 88.749 8.55559 86.2355C6.0201 83.7221 3.46256 80.7236 2.97751 76.9644C2.42631 72.7092 4.67521 68.8288 6.85794 65.3783C8.01544 63.5484 9.29422 61.6963 10.3415 59.7451C9.80132 60.4727 9.23907 61.1672 8.62173 61.8397C4.98385 66.0508 1.18063 70.6588 0.96015 76.5345C0.811252 79.7254 1.91042 82.8489 4.02479 85.2434C6.09205 87.3416 8.43606 89.1478 10.9919 90.612C13.34 92.1333 15.7101 93.842 16.8235 96.5098Z" fill="#76797B"/>
</g>
<g style="mix-blend-mode:screen">
<path d="M9.6911 112.505C9.28044 112.063 8.96488 111.542 8.76388 110.973C8.56289 110.404 8.48074 109.8 8.52257 109.198V109.286C8.47187 109.409 8.42772 109.534 8.39029 109.661C8.30445 110.684 8.39771 111.713 8.66588 112.704C9.08901 114.273 10.0995 115.619 11.488 116.463C10.9895 115.568 10.8106 114.53 10.9809 113.52C10.5 113.252 10.0647 112.91 9.6911 112.505Z" fill="#76797B"/>
</g>
<g style="mix-blend-mode:screen">
<path d="M24.0114 124.146C24.8846 123.112 25.4195 121.835 25.5437 120.487C25.5903 119.022 25.2641 117.569 24.5956 116.264C23.8806 114.816 23.012 113.449 22.005 112.186C22.2806 113.156 22.5341 114.126 22.7546 115.118C23.3607 118.098 23.7805 121.114 24.0114 124.146Z" fill="#76797B"/>
</g>
<g style="mix-blend-mode:screen">
<path d="M19.9765 77.2839C19.3514 75.104 19.1788 72.8193 19.4695 70.5703C18.7032 73.8596 19.0925 77.3124 20.5718 80.3485C22.4141 83.9913 25.5941 86.7802 29.4461 88.1314C27.6933 86.5549 25.753 85.199 24.0223 83.5785C22.1356 81.8794 20.7386 79.7058 19.9765 77.2839Z" fill="#76797B"/>
</g>
<g style="mix-blend-mode:screen">
<path d="M46.2684 47.2663C47.4153 49.1201 48.2809 51.1336 48.837 53.2413C49.0612 54.5677 48.928 55.9299 48.4511 57.1878C49.6701 55.8376 50.3729 54.1002 50.4355 52.2822C50.4355 49.4821 48.4732 47.3104 46.8747 45.2049C45.8373 43.9095 45.0181 42.4537 44.4495 40.8945C44.5464 43.1319 45.1696 45.3149 46.2684 47.2663Z" fill="#76797B"/>
</g>
<g style="mix-blend-mode:screen">
<path d="M76.7824 91.5928C74.6548 87.8777 74.9855 83.3469 74.1808 79.2791C73.9338 77.4007 73.105 75.6467 71.8106 74.2632C70.9137 73.4529 69.8118 72.9039 68.6248 72.6758C69.2298 73.2018 69.7902 73.7771 70.3004 74.3955C71.8096 76.5219 72.5058 79.1192 72.2626 81.7154C72.18 83.1252 72.18 84.5387 72.2626 85.9486C72.3784 87.0517 72.6647 88.1302 73.1115 89.1455C73.8727 90.9756 75.1921 92.5187 76.8816 93.555C77.8237 94.116 78.8516 94.5183 79.9242 94.7456C78.6105 93.9989 77.5245 92.9091 76.7824 91.5928Z" fill="#76797B"/>
</g>
<g style="mix-blend-mode:screen">
<path d="M76.7165 67.9359C76.1101 66.9768 75.4267 66.0729 74.7762 65.1579C73.7643 63.897 73.0146 62.4465 72.5715 60.8917C71.877 57.7168 72.9463 54.5419 74.0266 51.5765C75.1142 48.7452 76.02 45.8473 76.7385 42.9007C77.3854 40.2175 77.6453 37.4556 77.5102 34.6989C77.4271 33.404 77.2428 32.1177 76.959 30.8516C76.959 31.502 76.8598 32.1524 76.7606 32.8028C76.1294 36.2299 75.1505 39.5838 73.8392 42.8125C72.5396 46.0731 71.4353 49.4082 70.532 52.8001C69.6498 55.7074 69.6498 58.8111 70.532 61.7184C71.7528 64.485 73.9564 66.7004 76.7165 67.9359Z" fill="#76797B"/>
</g>
<g style="mix-blend-mode:screen">
<path d="M102.424 76.116C101.101 74.5506 99.5249 73.2167 98.0918 71.7064C95.3591 69.0166 93.0143 65.9593 91.1248 62.6227C89.9668 60.5193 89.1237 58.2574 88.6223 55.9092C88.7044 58.9053 89.3358 61.861 90.4854 64.6291C91.2018 66.3416 92.1077 67.9686 93.1862 69.4796C94.3462 71.0345 95.645 72.4809 97.0666 73.8009C99.8827 76.4114 102.258 79.4603 104.1 82.8295C105.388 85.298 106.165 88.0016 106.382 90.7777C107.11 87.4821 106.794 84.0413 105.478 80.9334C104.697 79.1889 103.669 77.5663 102.424 76.116Z" fill="#76797B"/>
</g>
<g style="mix-blend-mode:screen">
<path d="M120.856 104.446C121.077 106.717 121.709 108.928 122.719 110.973C124.351 114.787 125.607 118.921 125.023 123.022C125.726 121.427 126.187 119.737 126.39 118.006C126.736 115.716 126.379 113.375 125.365 111.292C124.329 109.275 122.984 107.434 121.815 105.483C121.473 104.92 121.154 104.38 120.867 103.752C120.856 103.983 120.845 104.215 120.856 104.446Z" fill="#76797B"/>
</g>
<g style="mix-blend-mode:screen">
<path d="M132.927 107.302C132.012 106.09 130.965 104.976 130.006 103.797C131.384 106.608 133.313 109.309 133.622 112.429C133.783 114.342 133.373 116.261 132.442 117.941C131.497 119.584 130.389 121.128 129.135 122.549C127.897 123.905 127.018 125.55 126.577 127.333C126.352 129.075 126.742 130.841 127.68 132.327C127.739 132.434 127.806 132.537 127.878 132.635C127.81 132.389 127.758 132.139 127.724 131.886C127.294 128.931 128.463 126.374 130.193 124.015C131.031 122.912 131.946 121.81 132.74 120.608C133.664 119.266 134.35 117.774 134.768 116.199C135.196 114.566 135.234 112.855 134.878 111.205C134.51 109.781 133.845 108.451 132.927 107.302Z" fill="#76797B"/>
</g>
<g style="mix-blend-mode:screen">
<path d="M45.9819 33.0453C45.7749 33.4408 45.5945 33.8496 45.4418 34.269C46.7221 32.0423 48.4129 30.0785 50.4246 28.4814C48.5457 29.5569 47.0064 31.1382 45.9819 33.0453Z" fill="#76797B"/>
</g>
<g style="mix-blend-mode:screen">
<path d="M19.5685 125.602C21.2 127.973 20.9355 130.729 19.9764 133.319C19.4362 134.785 18.7748 136.185 18.2015 137.629C20.4063 132.713 23.7135 126.319 19.2268 121.733C17.9138 120.464 16.3524 119.481 14.6408 118.845C12.9289 118.281 11.3231 117.435 9.88954 116.342C8.72335 115.282 7.94692 113.862 7.68476 112.308C7.68476 112.638 7.60759 112.98 7.57452 113.311C7.42673 114.558 7.65313 115.82 8.22492 116.938C9.4155 119.021 11.7746 120.024 13.803 121.094C16.0608 122.109 18.0391 123.656 19.5685 125.602Z" fill="#76797B"/>
</g>
<path d="M130.237 64.5846C129.819 60.4506 128.039 56.5728 125.177 53.5607C122.234 50.3748 118.376 48.5228 114.506 46.7038C112.478 45.7447 110.328 44.7636 108.994 42.8344C108.255 41.7285 107.838 40.438 107.793 39.1084C107.813 37.7506 107.95 36.3971 108.201 35.0626C108.201 34.8531 108.09 34.787 107.936 34.798C106.935 35.7726 106.14 36.9385 105.599 38.2264C105.261 39.0885 105.01 39.9822 104.849 40.8942C104.849 41.0706 104.794 41.247 104.772 41.4234C104.975 40.5856 105.259 39.7696 105.621 38.9871C106.05 38.0405 106.59 37.1486 107.23 36.3304C106.787 38.2968 106.925 40.3497 107.627 42.2392C108.508 44.0238 109.959 45.4632 111.75 46.329C113.657 47.3542 115.664 48.181 117.582 49.1732C119.475 50.1159 121.251 51.2777 122.873 52.6347C126.327 55.5451 128.613 59.6046 129.311 64.0664C129.513 65.5294 129.513 67.013 129.311 68.476C129.751 67.2136 130.061 65.9098 130.237 64.5846Z" fill="#3F4244"/>
<path d="M40.8225 53.318C40.4845 51.9328 39.6587 50.7157 38.4965 49.8896C38.3091 49.7353 37.8681 50.0881 38.0555 50.2755C39.015 51.1635 39.6934 52.3133 40.0067 53.5826C40.1434 54.5613 39.9201 55.5563 39.3784 56.3827C38.1106 58.4662 35.8838 59.9324 33.9216 61.3104C31.7733 62.5925 29.8422 64.2073 28.2002 66.0947C27.0588 67.4819 26.3467 69.1717 26.1509 70.9574C25.9551 72.743 26.2841 74.547 27.0978 76.1485C28.1084 77.9402 29.5055 79.4842 31.1876 80.6683C32.8412 81.8589 34.6381 82.818 36.3248 83.9755C36.5122 84.1078 36.887 83.766 36.6665 83.6227C33.7231 81.5282 30.3829 79.8856 28.3104 76.8099C27.1736 75.2062 26.6246 73.2594 26.756 71.298C26.9572 69.3862 27.7249 67.5781 28.9608 66.1058C30.5152 64.2097 32.7089 62.964 34.6932 61.5639C36.8189 60.2849 38.6577 58.5811 40.0949 56.5591C40.7223 55.6026 40.9809 54.4509 40.8225 53.318Z" fill="#3F4244"/>
<path d="M68.1399 63.2623C65.0643 61.5425 61.9665 59.3488 60.8972 55.8101C59.8279 52.2715 61.1397 48.9202 63.0359 46.043C64.3256 44.1028 65.6375 42.1736 66.7509 40.1342C68.0324 38.0616 68.8242 35.724 69.0659 33.2993C69.1414 32.1651 68.86 31.0356 68.2612 30.0693C67.4876 28.9515 66.3498 28.1371 65.0422 27.7654C64.7225 27.6661 64.1272 28.2394 64.513 28.4268C65.6216 28.8698 66.5919 29.6005 67.3241 30.5434C67.8747 31.3914 68.1518 32.388 68.1178 33.3986C67.9069 35.8061 67.1287 38.1294 65.8469 40.1782C63.2563 44.9185 58.6042 49.5706 60.0374 55.4353C61.0295 59.4259 64.4469 61.774 67.8202 63.604C68.0076 63.7142 68.3604 63.3835 68.1399 63.2623Z" fill="#3F4244"/>
<path d="M100.219 82.9065C98.9542 80.5298 97.1996 78.4483 95.0712 76.7993C90.5955 72.985 84.6316 70.1849 82.7686 64.1549C81.3685 59.6792 83.2205 55.3358 85.1497 51.3782C85.2489 51.1798 84.9623 51.1467 84.8852 51.301C83.2095 54.6964 81.3244 58.2902 81.578 62.1926C81.9482 65.6465 83.6051 68.8343 86.219 71.122C88.2033 73.0071 90.5404 74.4953 92.6901 76.1709C94.9258 77.7894 96.8999 79.7413 98.5437 81.9585C99.4256 83.1231 99.9991 84.4915 100.211 85.9368C100.423 87.3821 100.267 88.8576 99.7564 90.2264C99.6241 90.5681 100.142 90.4689 100.252 90.2264C100.795 89.0815 101.074 87.8295 101.068 86.5627C101.062 85.2958 100.772 84.0464 100.219 82.9065Z" fill="#3F4244"/>
<path d="M97.7059 90.1164C97.0911 88.5631 96.3035 87.0839 95.3578 85.7068C95.2586 85.5305 94.9168 85.773 95.016 85.9494C95.841 87.2443 96.5107 88.6318 97.0114 90.0833C97.246 90.7936 97.3469 91.5411 97.309 92.2881C97.1921 93.0749 96.9062 93.827 96.4712 94.4929C96.2948 94.8016 96.7027 94.8677 96.8901 94.6803C97.4255 94.0641 97.7841 93.3145 97.9277 92.5109C98.0713 91.7073 97.9947 90.8799 97.7059 90.1164Z" fill="#3F4244"/>
<g style="mix-blend-mode:multiply" opacity="0.53">
<path d="M130.039 145.753C130.007 145.16 129.926 144.57 129.796 143.989C129.514 142.742 129.042 141.544 128.396 140.44C127.694 139.382 126.917 138.376 126.07 137.43C124.494 135.545 123.193 133.506 123.303 130.948C123.403 128.148 124.758 125.646 125.508 122.989C125.838 121.737 126.096 120.467 126.28 119.186C125.265 122.633 123.431 125.784 120.933 128.369C120.602 128.699 120.007 128.258 120.283 127.862C121.376 126.308 121.993 124.469 122.058 122.57C122.084 120.709 121.846 118.853 121.352 117.058C120.558 113.85 119.346 110.719 118.982 107.423C118.676 104.378 119.274 101.311 120.702 98.6041C122.81 94.6794 125.784 91.2864 129.4 88.6826C128.964 88.7463 128.535 88.8534 128.121 89.0023C127.666 89.1668 127.235 89.3931 126.842 89.6748V89.7519C126.71 89.83 126.585 89.9185 126.467 90.0165L126.247 90.1488C126.204 90.1877 126.167 90.2322 126.136 90.2811C125.878 90.4842 125.645 90.7173 125.442 90.9756C125.072 88.7692 125.208 86.5077 125.839 84.3613C126.642 82.8477 127.684 81.4741 128.925 80.2934C130.943 75.2776 133.754 70.3168 133.875 64.86C133.91 61.8098 133.022 58.8204 131.329 56.2834C129.804 54.0259 128.02 51.9541 126.015 50.11C123.513 47.6958 120.845 45.3918 118.508 42.8122C116.48 41.7077 114.841 40.0067 113.812 37.9397C113.064 36.2281 112.823 34.3382 113.117 32.4939C112.917 31.3667 112.777 30.2296 112.698 29.0875C111.556 30.1735 110.336 31.1756 109.049 32.086C106.804 33.564 104.841 35.4305 103.251 37.5979C103.035 37.9271 102.84 38.2695 102.667 38.6231C101.924 39.7657 101.453 41.0628 101.289 42.4154C101.091 44.7127 101.587 47.0165 102.711 49.0297C101.97 47.8675 101.43 46.5894 101.112 45.2485C100.697 43.4701 100.785 41.6112 101.366 39.8799C101.329 38.2145 101.545 36.5532 102.005 34.9522C102.601 33.2041 103.095 31.4225 103.482 29.6166C103.816 27.7731 103.42 25.8721 102.38 24.3141C100.594 21.7015 97.5735 20.4448 95.1814 18.5045C93.886 17.5884 92.9105 16.2891 92.3923 14.7895C92.1753 13.4631 92.1345 12.1139 92.271 10.7768C91.6994 11.1576 91.2431 11.6878 90.9516 12.3097C90.6601 12.9316 90.5445 13.6215 90.6175 14.3044C90.7608 16.0903 92.0396 17.1817 93.1089 18.4825C93.6172 19.0594 93.9935 19.7404 94.2113 20.4778C94.4042 21.2636 94.4042 22.0843 94.2113 22.87C93.8406 24.4264 93.0822 25.8637 92.0065 27.0481C90.5403 28.6686 88.5119 29.5615 86.7591 30.8182C85.745 31.3164 84.8588 32.0405 84.1685 32.9348C84.2677 32.6041 84.3559 32.2734 84.4331 31.9317C84.5213 31.8435 84.5984 31.7332 84.6866 31.645C84.7858 31.2261 84.8961 30.8072 85.0063 30.4103C85.4892 28.7474 85.6464 27.0068 85.4693 25.2842C85.2303 23.6107 84.6486 22.0045 83.7606 20.566C81.8951 17.7187 79.3637 15.3689 76.3856 13.7202C74.6214 12.6779 72.7785 11.7748 70.8737 11.0193C69.1319 10.3138 67.335 9.7075 65.6263 8.9248C64.8588 8.63616 64.1766 8.15851 63.6428 7.53609C63.1091 6.91366 62.741 6.16658 62.5727 5.36408C62.3977 4.52042 62.428 3.64709 62.6609 2.81756C62.8593 2.1451 63.3333 1.56085 63.5759 0.899414C62.9012 1.25002 62.3136 1.74722 61.8561 2.35456C61.1882 3.1311 60.6922 4.04031 60.401 5.02234C60.089 6.23956 60.1505 7.52249 60.5774 8.70431C61.0781 9.8409 61.6488 10.9454 62.2861 12.0115C62.6997 12.7807 62.9156 13.6406 62.9144 14.5139C62.8124 15.5345 62.4309 16.5071 61.812 17.325C60.602 18.9487 59.0616 20.2975 57.2923 21.2826C53.2168 23.6804 48.9242 25.6882 44.4715 27.2796C42.3549 28.0623 40.2052 28.7347 38.0776 29.4843C36.039 30.0945 34.1297 31.0734 32.4444 32.3726C32.005 32.7512 31.616 33.1847 31.2869 33.6624C31.1361 33.8022 30.996 33.9533 30.868 34.1144C30.7718 34.2564 30.6834 34.4036 30.6034 34.5553C30.5152 34.7115 30.4379 34.8736 30.3719 35.0404V35.1176C30.3058 35.2829 30.2507 35.4483 30.1955 35.6136C30.0839 36.0174 30.0101 36.4308 29.9751 36.8483C29.9086 38.3914 30.1214 39.9338 30.6034 41.4012C29.9285 40.4863 29.5044 39.411 29.3729 38.2818C29.2414 37.1526 29.4072 36.0087 29.8538 34.9632C29.4105 33.9674 29.2724 32.8626 29.457 31.7883C29.6916 30.4258 30.3379 29.1678 31.309 28.1835C29.5018 28.6546 27.8071 29.4825 26.3247 30.6184C24.8423 31.7543 23.6021 33.1754 22.6772 34.7979C21.7412 36.5968 21.4088 38.6491 21.7292 40.6516C22.222 42.7193 23.1628 44.6536 24.4852 46.3178C25.0777 47.0956 25.5428 47.9626 25.8632 48.8864C26.1205 49.8453 26.0467 50.8629 25.6537 51.7746C25.1309 53.0387 24.292 54.1471 23.2174 54.9936C21.0127 56.7464 18.2677 57.4519 15.7432 58.4882C14.978 58.7916 14.2404 59.1605 13.5385 59.5906C13.2623 61.4417 12.5769 63.2079 11.5321 64.7608C12.3341 63.0684 12.7555 61.2208 12.7668 59.3481C12.7668 59.1055 12.7668 58.863 12.7668 58.6205C12.7163 57.8695 12.5681 57.1283 12.3258 56.4157C12.251 56.6305 12.1627 56.8404 12.0613 57.0441L11.9841 57.1874C10.6061 62.2363 7.57451 66.7451 6.6926 71.9704C6.24721 74.5839 6.48263 77.2682 7.37611 79.7643C8.30026 82.04 9.68952 84.0976 11.4549 85.8054C15.1149 89.4874 19.8772 91.7362 23.5812 95.3962C27.1089 98.8306 29.6289 103.165 30.868 107.93C32.033 112.935 31.7966 118.165 30.1845 123.044C30.1537 123.137 30.0915 123.216 30.0087 123.267C29.9259 123.319 29.8277 123.34 29.731 123.327C29.6343 123.314 29.5452 123.267 29.4791 123.196C29.4129 123.124 29.3739 123.031 29.3687 122.934C29.3687 117.257 27.3404 111.304 23.1844 107.357C25.4445 110.891 26.8801 114.889 27.3845 119.053C27.7907 123.588 27 128.149 25.0915 132.282C23.3607 136.24 21.0126 140.495 21.7843 144.982C22.4237 148.719 25.0143 151.827 27.8805 154.142C28.9889 155.041 30.1604 155.859 31.3861 156.59C32.5578 156.744 33.7179 156.976 34.8587 157.284C35.9012 157.562 36.8839 158.029 37.7579 158.662C37.1626 157.56 36.5563 156.535 36.0161 155.432C35.5648 154.504 35.1673 153.551 34.8256 152.577C34.5467 151.958 34.4147 151.282 34.4397 150.604C33.5003 150.799 32.5268 150.754 31.6096 150.472C30.6923 150.191 29.8608 149.683 29.1924 148.994C28.1475 147.868 27.3896 146.506 26.9827 145.025C26.5759 143.544 26.5322 141.986 26.8553 140.484C27.1862 138.907 28.0895 137.509 29.3908 136.559C29.8889 136.191 30.4861 135.98 31.1051 135.955C31.7241 135.929 32.3366 136.09 32.8633 136.416C32.6331 135.637 32.4454 134.846 32.3011 134.046C32.0876 132.915 31.9732 131.768 31.9594 130.617C32.2034 129.469 32.5126 128.335 32.8854 127.222C32.7385 128.156 32.6575 129.099 32.6428 130.044C32.6839 133.18 33.3746 136.273 34.6712 139.128C35.2941 140.59 36.0859 141.973 37.0304 143.251L37.8461 144.353C37.3666 142.814 37.0236 141.235 36.8209 139.635C36.3296 135.512 36.9224 131.332 38.5406 127.509C39.2247 125.84 40.1015 124.256 41.1533 122.791C41.831 121.817 42.6743 120.97 43.6447 120.288C42.2326 120.059 40.8857 119.532 39.6937 118.741C38.5018 117.95 37.4923 116.914 36.7327 115.702C34.7374 112.307 34.5279 108.14 34.0539 104.314C33.8821 102.377 33.4635 100.469 32.8082 98.6372C32.0246 96.7178 30.6348 95.1073 28.8506 94.0513C27.9687 93.5001 27.0427 93.0371 26.1277 92.563C25.1241 92.1339 24.1794 91.5782 23.3166 90.9094C22.596 90.3176 22.0572 89.5342 21.7623 88.6496C21.6645 88.2901 21.6126 87.9197 21.608 87.5472C21.8986 88.742 22.5963 89.7984 23.5812 90.5346C24.6863 91.2517 25.8894 91.8049 27.153 92.1772C28.5534 92.8086 29.8653 93.6202 31.0554 94.5914C34.0318 97.2151 34.539 101.206 35.002 104.943C35.465 108.68 35.7847 112.803 38.0556 115.901C40.7785 119.627 45.9707 120.112 50.1818 119.671C52.5831 119.386 54.9574 118.906 57.2812 118.238C58.5265 117.899 59.7459 117.472 60.9301 116.959C61.9644 116.453 63.0241 116 64.105 115.603L63.9507 115.526C62.0707 114.635 60.5504 113.13 59.6404 111.26C58.9697 109.566 58.7568 107.726 59.023 105.924C59.2961 103.974 59.6975 102.044 60.2246 100.147C60.8663 98.0792 61.1569 95.918 61.0845 93.7536C60.9869 92.5208 60.5945 91.3296 59.9403 90.2801C59.2861 89.2307 58.3892 88.3539 57.3253 87.7235C55.1867 86.4007 52.6953 85.8605 50.4023 84.8573C48.5393 84.0416 46.4778 82.8179 45.8495 80.7454C45.3313 79.0257 45.9817 76.391 47.7345 75.5863C47.9219 75.4981 48.1865 75.5862 48.0984 75.8398C47.7566 76.6194 47.6605 77.4846 47.8228 78.3202C48.0534 78.9913 48.5247 79.553 49.1456 79.8966C51.0474 80.927 53.1342 81.5714 55.2859 81.7927C59.1222 82.4321 63.0908 82.8951 66.1444 85.5408C67.4253 86.6372 68.3821 88.0629 68.9114 89.6637C69.409 91.5176 69.4619 93.4629 69.0658 95.3411C68.7461 97.3915 68.4594 99.5081 69.6721 101.349C70.7157 102.75 72.1795 103.781 73.8501 104.292C75.269 104.689 76.6348 105.255 77.918 105.979C78.5182 106.357 78.9993 106.897 79.3055 107.537C79.6118 108.177 79.7308 108.89 79.6487 109.595C79.6487 109.815 79.1857 109.981 79.1857 109.694C79.2518 107.754 77.929 106.563 76.2644 105.836C74.5532 105.284 72.8812 104.617 71.2595 103.84C70.5235 103.428 69.8767 102.873 69.3563 102.209C68.8359 101.545 68.4524 100.784 68.2279 99.9711C67.6878 97.9096 68.3713 95.793 68.5587 93.7205C68.7577 91.8635 68.3724 89.9906 67.4563 88.3629C66.4625 86.7514 65.0384 85.4494 63.3444 84.6038C59.7947 82.6966 55.6276 82.84 51.8244 81.7706C50.511 81.4754 49.2726 80.9125 48.1865 80.1171C48.6067 80.7779 49.1629 81.3416 49.8181 81.7706C51.4108 82.7377 53.1492 83.4413 54.9662 83.8542C58.3285 84.7802 61.8782 85.7613 64.3917 88.3299C65.6649 89.6858 66.5716 91.3437 67.0263 93.1473C67.5382 95.2255 67.5382 97.3968 67.0263 99.475C66.2216 103.477 64.1932 107.754 65.924 111.8C66.4153 113.033 67.1808 114.139 68.1625 115.032C69.1442 115.926 70.3163 116.585 71.5902 116.959C72.2364 116.997 72.8843 116.997 73.5304 116.959L74.6328 116.86L75.0517 116.727C75.1003 116.699 75.1555 116.685 75.2116 116.685C75.2677 116.685 75.3228 116.699 75.3714 116.727C77.3505 116.364 79.2788 115.765 81.1149 114.942C80.8035 114.329 80.6304 113.655 80.6078 112.968C80.6078 112.836 80.8724 112.715 80.8944 112.869C80.9436 113.402 81.0893 113.921 81.3243 114.401C82.2944 116.231 84.5323 116.849 86.4504 117.014C88.5445 117.162 90.649 116.987 92.6899 116.496C95.501 115.856 98.7641 114.732 100.296 112.086C101.707 109.672 101.476 106.641 103.03 104.27C104.585 101.9 107.682 100.522 110.328 99.453C113.172 98.2955 116.16 97.1269 118.045 94.5914C118.9 93.4177 119.497 92.0758 119.795 90.6543C120.094 89.2328 120.087 87.7642 119.776 86.3456C119.222 84.3916 118.529 82.4796 117.703 80.6242C116.811 78.6695 116.395 76.5311 116.491 74.3846C116.543 73.9288 116.661 73.483 116.843 73.0618C117.658 71.786 118.933 70.8738 120.404 70.5153C120.373 70.5899 120.313 70.6493 120.239 70.6806C119.692 70.9031 119.177 71.1959 118.706 71.5515C117.02 72.8633 117.064 75.1232 117.472 77.0634C118.041 79.2697 118.778 81.4293 119.676 83.5234C120.045 84.3916 120.333 85.292 120.536 86.2133C120.806 87.6188 120.806 89.0629 120.536 90.4685C120.253 91.9113 119.683 93.2824 118.859 94.5002C118.035 95.718 116.975 96.7575 115.741 97.5569C113.15 99.2766 110.097 100.059 107.363 101.481C105.904 102.147 104.635 103.166 103.67 104.447C102.944 105.696 102.451 107.067 102.215 108.493C102.06 109.187 101.895 109.882 101.674 110.554C101.457 111.622 101.465 112.725 101.698 113.79C101.932 114.855 102.385 115.859 103.03 116.738C105.312 120.222 109.038 122.647 110.912 126.417C112.015 128.721 111.927 131.213 111.673 133.715C111.42 136.218 111.287 138.72 112.599 140.837C112.417 139.786 112.417 138.712 112.599 137.662C112.964 136.238 113.646 134.915 114.594 133.792C115.444 132.789 116.156 131.677 116.711 130.485C117.242 129.193 117.493 127.803 117.45 126.406C117.395 125.031 117.085 123.678 116.535 122.416C116.061 121.313 115.432 120.354 114.837 119.329C112.985 116.022 110.99 110.885 114.782 108.096C115.068 107.875 115.432 108.173 115.146 108.459C114.293 109.228 113.722 110.261 113.525 111.392C113.383 112.503 113.485 113.631 113.823 114.699C114.434 116.609 115.298 118.43 116.391 120.112C117.786 122.287 118.443 124.854 118.265 127.432C118.143 128.699 117.796 129.935 117.24 131.08C116.931 131.699 116.562 132.287 116.138 132.833C116.575 132.721 117.03 132.696 117.476 132.761C117.923 132.825 118.352 132.977 118.739 133.208C120.217 134.09 120.944 136.107 121.187 137.717C121.425 139.591 121.078 141.493 120.195 143.163C119.599 144.408 118.772 145.864 117.361 146.293C116.794 146.44 116.195 146.403 115.65 146.187C115.105 145.971 114.643 145.587 114.33 145.092C114.446 146.744 114.346 148.404 114.032 150.031C113.536 151.963 112.716 153.797 111.607 155.454C112.107 155.336 112.616 155.262 113.128 155.234C116.12 155.063 119.047 154.292 121.735 152.967C124.422 151.641 126.815 149.787 128.771 147.517C129.251 146.972 129.675 146.382 130.039 145.753ZM67.4563 50.4297C68.4247 47.5597 69.6998 44.8025 71.2595 42.2059C72.8921 39.5866 74.15 36.7517 74.9966 33.7837C75.5077 31.2994 75.3129 28.7218 74.4344 26.3425C72.7498 22.1506 70.5502 18.1846 67.8862 14.536C67.8448 14.4648 67.8252 14.383 67.83 14.3008C67.8348 14.2186 67.8637 14.1397 67.9131 14.0738C67.9625 14.008 68.0302 13.9581 68.1078 13.9305C68.1853 13.9029 68.2693 13.8988 68.3492 13.9186C71.1642 14.7531 73.6863 16.3657 75.625 18.5707C78.9995 22.6918 80.8074 27.8736 80.729 33.1994C80.836 37.6262 79.7224 41.997 77.5101 45.8328C79.5164 43.8595 80.8172 41.1697 83.2425 39.6153C83.2894 39.5879 83.3413 39.5702 83.3951 39.5632C83.449 39.5561 83.5037 39.5599 83.5561 39.5742C83.6084 39.5886 83.6574 39.6133 83.7001 39.6469C83.7428 39.6804 83.7784 39.7222 83.8047 39.7696C84.4667 41.1756 84.6413 42.7621 84.3008 44.2784C83.905 45.693 83.2469 47.0205 82.3606 48.1919C80.7621 50.4849 78.7117 52.5463 77.6313 55.148C77.0773 56.4081 76.8975 57.8011 77.1132 59.1606C77.4638 60.7456 78.1272 62.2448 79.0644 63.5702C82.6803 69.1703 90.386 75.6965 86.3733 83.0494C86.3253 83.1246 86.2544 83.1825 86.1712 83.2147C86.088 83.2469 85.9966 83.2516 85.9105 83.2283C85.8243 83.2049 85.7479 83.1546 85.6924 83.0848C85.6368 83.0149 85.605 82.9291 85.6016 82.84C85.6183 82.2842 85.5962 81.728 85.5355 81.1754C85.0835 77.0304 82.1621 73.9547 79.0754 71.4413C75.9888 68.9278 72.2848 66.6569 69.6611 63.46C68.3965 61.9734 67.4911 60.2156 67.0153 58.3228C66.4953 55.6967 66.647 52.9817 67.4563 50.4297ZM47.1833 89.0905C48.4252 91.1128 49.18 93.396 49.3881 95.7599C49.493 98.0764 49.2928 100.397 48.7928 102.661C48.2979 104.926 48.0979 107.246 48.1976 109.562C48.2801 110.712 48.607 111.83 49.1564 112.844C49.7058 113.857 50.465 114.741 51.3834 115.438C51.7362 115.702 51.5488 116.353 51.0637 116.198C47.6353 115.096 43.5565 114.412 41.1422 111.48C38.728 108.548 38.6509 104.568 38.0666 101.04C37.8173 99.144 37.313 97.2899 36.5673 95.5285C35.7957 93.8528 34.539 92.067 32.6869 91.5158C31.8822 91.3263 31.0528 91.2631 30.2286 91.3284C29.2738 91.3668 28.3175 91.3114 27.3734 91.163C25.7775 90.8556 24.3257 90.0349 23.2395 88.8259C22.9213 88.458 22.6302 88.0675 22.3686 87.6574C20.8125 86.0867 19.6 84.2097 18.8079 82.1455C17.5428 78.9081 17.1623 75.3924 17.7055 71.9594C18.1336 68.6432 19.6908 65.5755 22.115 63.2726C24.6285 61.0678 27.8034 59.8 30.5924 58.0142C31.9986 57.183 33.2454 56.1079 34.2744 54.8393C35.2574 53.58 35.7893 52.0272 35.7847 50.4297C35.7847 49.8896 36.5453 49.9226 36.6114 50.4297C36.6683 50.8869 36.6977 51.347 36.6996 51.8077C36.6996 55.3684 34.6161 58.2898 32.2239 60.7371C29.8317 63.1844 26.8663 65.3891 24.86 68.2884C23.9018 69.6137 23.2984 71.162 23.1072 72.7862C22.9051 74.833 23.4752 76.8815 24.7057 78.5296C26.1683 80.3068 27.9758 81.7693 30.0191 82.8289C32.0145 83.9313 34.109 84.9345 36.1044 86.1361C38.1655 87.2702 40.0274 88.7336 41.6163 90.4685C42.6438 91.6791 43.4667 93.0494 44.0526 94.5253C44.0171 93.1598 43.8097 91.8042 43.4352 90.4905C42.7857 88.4018 41.8784 86.4021 40.7344 84.5376C40.5029 84.1518 40.9438 83.8211 41.2966 83.9754C43.7249 85.0554 45.775 86.8367 47.1833 89.0905ZM56.5316 48.225C56.5316 48.721 55.8702 48.7431 55.7158 48.3352C54.5363 45.3147 53.5111 42.1949 53.7205 38.9428C52.7558 39.9714 52.1555 41.2882 52.0118 42.691C51.9758 44.2254 52.2496 45.7514 52.8166 47.1777C53.7316 49.8344 55.0214 52.5463 54.6796 55.4346C54.2607 58.5764 51.9016 60.6599 49.311 62.1922C46.7203 63.7245 43.4683 65.0033 41.3407 67.4947C39.2131 69.9861 39.0587 73.2933 38.9375 76.4461C38.9341 76.5353 38.9023 76.621 38.8467 76.6909C38.7912 76.7607 38.7147 76.811 38.6286 76.8344C38.5425 76.8578 38.4512 76.853 38.3679 76.8209C38.2847 76.7887 38.2138 76.7308 38.1658 76.6556C37.3865 75.5711 36.8543 74.3291 36.6067 73.0168C36.3591 71.7045 36.4021 70.354 36.7327 69.0601C37.4958 66.5097 38.8092 64.1578 40.5801 62.1702C42.0936 60.5921 43.391 58.8202 44.4384 56.9007C45.1673 55.2483 45.2421 53.3809 44.6479 51.6754C43.9423 49.4707 42.4431 47.5966 41.6824 45.4359C40.9632 43.6934 40.6977 41.797 40.9108 39.924C41.484 35.6577 44.9675 32.5931 48.3078 30.2781C50.9976 28.415 53.8197 26.7835 56.5867 25.0197C57.9462 24.0418 59.2354 22.9698 60.4451 21.8117C62.2919 19.9493 63.684 17.6858 64.5129 15.1974C64.6121 14.8997 65.1192 14.7454 65.2625 15.0982C65.7743 16.1765 66.0398 17.3551 66.0398 18.5487C66.0398 19.7422 65.7743 20.9208 65.2625 21.9991C64.2203 23.8754 62.7927 25.5097 61.0735 26.7945C59.1994 28.3158 57.182 29.6497 55.2198 31.0608C52.2654 33.1994 48.5503 35.9554 48.1424 39.8799C48.8479 39.0751 49.5755 38.2924 50.3472 37.5538C54.0402 34.0262 59.3868 30.4875 64.6782 32.549C64.7472 32.57 64.8095 32.6084 64.8592 32.6605C64.9089 32.7127 64.9443 32.7767 64.9621 32.8465C64.9798 32.9164 64.9792 32.9896 64.9604 33.0591C64.9416 33.1287 64.9052 33.1922 64.8546 33.2435C63.8294 34.2026 62.7821 35.1506 61.79 36.1317C60.2039 37.5986 58.8738 39.3199 57.8545 41.2248C56.8566 43.4177 56.4029 45.8191 56.5316 48.225ZM90.8269 107.622C90.3878 108.696 90.2102 109.86 90.3088 111.017C90.5967 112.454 91.2979 113.776 92.3262 114.82C92.3771 114.871 92.4136 114.935 92.432 115.004C92.4504 115.074 92.4501 115.147 92.431 115.216C92.412 115.286 92.3749 115.349 92.3236 115.399C92.2723 115.45 92.2085 115.486 92.1388 115.504C91.7761 115.588 91.399 115.588 91.0364 115.504C90.9924 115.578 90.9264 115.637 90.8474 115.673C90.7685 115.709 90.6804 115.719 90.5954 115.702C89.9608 115.593 89.3398 115.416 88.7434 115.173C84.3339 113.332 84.863 108.14 85.0945 104.149C85.2048 102.231 85.5244 99.7396 83.9921 98.2293C82.7134 96.9726 80.5968 96.8844 78.9211 96.5978C76.8357 96.3929 74.8738 95.5144 73.332 94.0954C71.584 92.1245 70.6295 89.5751 70.6532 86.9408C70.554 84.3392 70.9729 81.7155 70.6532 79.1359C70.4803 77.8004 69.9896 76.5258 69.2224 75.419C68.4551 74.3123 67.4337 73.4056 66.2437 72.7752C63.9066 71.4523 61.1396 70.7357 59.6293 68.3105C58.8844 67.0364 58.4222 65.6171 58.2738 64.1488C58.1255 62.6804 58.2945 61.1973 58.7695 59.8C58.9017 59.4583 59.497 59.3481 59.5742 59.8C59.7994 61.524 60.5367 63.1408 61.6908 64.4411C62.7959 65.5312 64.1077 66.3895 65.5491 66.9656C68.1508 68.1451 70.9619 68.8506 73.4202 70.3389C74.6581 71.065 75.7377 72.0321 76.5951 73.183C77.3797 74.3319 77.8509 75.6656 77.9621 77.0524C78.2928 79.8635 77.6423 82.6636 77.8077 85.4747C77.8251 86.7497 78.2077 87.9931 78.9101 89.0574C79.7492 90.1262 80.908 90.8987 82.2173 91.2622C82.0078 89.7189 81.6661 88.1865 81.5558 86.6322C81.3937 84.8817 81.7381 83.1215 82.548 81.5612C82.5881 81.4905 82.6484 81.4335 82.7211 81.3973C82.7938 81.3611 82.8757 81.3475 82.9562 81.3582C83.0368 81.3688 83.1123 81.4033 83.1731 81.4571C83.2339 81.511 83.2773 81.5818 83.2976 81.6604C83.8333 84.1488 85.0509 86.439 86.8142 88.2747C89.6364 91.5819 93.1971 94.7237 93.1089 99.4309C93.0097 102.242 91.7309 104.91 90.8269 107.578V107.622ZM115.267 84.0857C115.139 85.9869 114.634 87.8436 113.78 89.5472C112.927 91.2508 111.742 92.767 110.295 94.0072C107.264 96.719 103.537 98.549 99.9327 100.39C99.5358 100.588 99.0507 100.048 99.4366 99.7286C101.802 97.9325 103.586 95.4782 104.563 92.6733C105.195 90.3688 105.087 87.9239 104.254 85.6841C102.678 81.1753 99.2822 77.4162 95.9641 74.087C93.9475 72.2405 92.1026 70.2148 90.4521 68.0349C89.0407 65.9926 88.0134 63.71 87.4205 61.2993C86.4817 56.6829 86.8638 51.8954 88.5229 47.4864C89.9247 43.5845 91.6313 39.799 93.627 36.1648C94.1624 34.5772 94.4993 32.9295 94.6302 31.2592C94.5764 29.6917 94.7698 28.1255 95.2034 26.6181C95.2213 26.5566 95.253 26.5 95.2962 26.4527C95.3394 26.4054 95.3929 26.3686 95.4525 26.3452C95.5121 26.3218 95.5763 26.3123 95.6401 26.3176C95.704 26.3229 95.7658 26.3427 95.8207 26.3756C97.0842 27.1627 98.0201 28.3805 98.4555 29.804C98.7971 31.1608 98.7971 32.5812 98.4555 33.938C97.6717 36.6588 96.6461 39.3041 95.3908 41.8421C94.1691 44.5519 93.7373 47.5515 94.1451 50.4959C94.9939 55.7102 98.6318 59.778 101.244 64.2537C101.143 61.5456 101.774 58.8603 103.073 56.4814C104.371 54.1025 106.287 52.1183 108.619 50.7384C109.027 50.5069 109.479 51.0691 109.127 51.3888C107.435 52.8009 106.269 54.7432 105.819 56.9007C105.581 58.8298 105.839 60.7877 106.569 62.5891C107.903 66.2711 110.196 69.5341 112.081 72.9405C113.02 74.563 113.81 76.2677 114.44 78.0335C115.101 79.964 115.382 82.0043 115.267 84.0416V84.0857ZM120.525 63.1403C118.861 60.8032 116.965 58.6315 115.19 56.3606C115.139 56.3 115.105 56.2264 115.094 56.1481C115.082 56.0698 115.092 55.9897 115.123 55.9167C115.153 55.8437 115.204 55.7807 115.268 55.7345C115.332 55.6883 115.408 55.6608 115.487 55.6551C118.383 55.5209 121.217 56.526 123.38 58.4551C126.522 61.0898 127.57 65.334 127.47 69.2916C127.393 72.8964 126.225 77.317 122.653 78.9706C122.589 79.0047 122.518 79.0219 122.446 79.0205C122.374 79.0191 122.304 78.9991 122.242 78.9626C122.18 78.926 122.128 78.874 122.092 78.8117C122.056 78.7494 122.036 78.6788 122.036 78.6068C122.256 75.251 122.234 71.8836 121.969 68.531C121.755 66.6693 121.269 64.8493 120.525 63.1293V63.1403Z" fill="#76797B"/>
</g>
<g style="mix-blend-mode:multiply" opacity="0.53">
<path d="M36.6666 115.626C35.3582 113.114 34.5814 110.359 34.3847 107.534C34.1717 108.735 34.0793 109.953 34.1091 111.172C34.1207 112.499 34.3402 113.816 34.7595 115.075C35.1818 116.261 35.7287 117.399 36.391 118.47C36.8966 119.391 37.5566 120.219 38.3423 120.917C38.9486 121.391 39.621 121.821 39.4447 122.67C39.2339 123.453 38.858 124.183 38.3423 124.809C37.8076 125.494 37.3108 126.208 36.854 126.947C35.7555 129.236 35.0795 131.705 34.8587 134.234C34.7926 134.686 34.1863 134.565 34.054 134.234C32.8303 131.114 32.9516 127.829 32.9516 124.544C32.312 125.899 31.8311 127.323 31.5185 128.788C31.0936 130.591 30.4064 132.322 29.4791 133.925C28.0129 136.406 25.8742 138.743 25.1577 141.587C24.8191 143.017 24.9229 144.516 25.4553 145.886C26.02 147.54 26.9464 149.046 28.1672 150.296C29.1831 151.288 30.5394 151.856 31.9594 151.883C32.6098 151.883 33.2602 151.74 33.9107 151.685C34.076 151.685 34.2634 151.685 34.4508 151.685C34.367 151.346 34.3372 150.997 34.3626 150.649C33.4232 150.844 32.4497 150.799 31.5324 150.517C30.6152 150.236 29.7838 149.727 29.1153 149.039C28.0704 147.913 27.3125 146.551 26.9056 145.07C26.4988 143.588 26.4551 142.031 26.7782 140.529C27.1091 138.952 28.0124 137.554 29.3137 136.604C29.8118 136.236 30.409 136.025 31.028 136C31.647 135.974 32.2594 136.135 32.7862 136.461C32.556 135.682 32.3683 134.89 32.224 134.091C32.0105 132.96 31.8961 131.813 31.8823 130.662C32.1263 129.514 32.4355 128.38 32.8083 127.267C32.6614 128.201 32.5804 129.144 32.5657 130.089C32.6068 133.225 33.2975 136.318 34.5942 139.173C35.2171 140.634 36.0088 142.018 36.9533 143.296L37.769 144.398C37.2895 142.858 36.9465 141.28 36.7438 139.68C36.2525 135.557 36.8452 131.377 38.4635 127.554C39.1476 125.884 40.0244 124.301 41.0762 122.835C41.7539 121.862 42.5972 121.015 43.5676 120.333C42.1471 120.089 40.7957 119.542 39.6051 118.73C38.4144 117.918 37.4123 116.859 36.6666 115.626Z" fill="#76797B"/>
</g>
<g style="mix-blend-mode:multiply" opacity="0.53">
<path d="M72.5826 115.945C69.4738 114.247 68.173 110.907 67.6328 107.6C67.236 105.395 67.0486 103.08 66.784 100.82C65.88 104.425 64.458 108.184 65.9793 111.778C66.4706 113.011 67.2361 114.117 68.2178 115.011C69.1995 115.905 70.3716 116.563 71.6455 116.937C72.2917 116.976 72.9396 116.976 73.5857 116.937L74.6881 116.838H74.7763C74.0123 116.628 73.2759 116.329 72.5826 115.945Z" fill="#76797B"/>
</g>
<g style="mix-blend-mode:multiply" opacity="0.53">
<path d="M83.6395 111.061C83.0663 109.286 82.6253 107.467 82.0631 105.692C82.0631 105.836 82.0631 105.968 82.0631 106.111C81.7861 108.618 81.6793 111.141 81.7434 113.663C81.7831 114.18 81.8679 114.693 81.9969 115.195C83.2392 116.283 84.8221 116.903 86.4726 116.948C86.8475 116.948 87.2333 116.948 87.575 116.948C85.6366 115.486 84.2495 113.411 83.6395 111.061Z" fill="#76797B"/>
</g>
<g style="mix-blend-mode:multiply" opacity="0.53">
<path d="M59.6075 111.226C58.9368 109.533 58.7239 107.693 58.9901 105.891C59.2632 103.941 59.6647 102.011 60.1918 100.114C60.3792 99.3204 60.5886 98.5157 60.754 97.7109C59.398 100.28 57.535 102.583 56.2011 105.163C55.3695 106.581 54.9282 108.194 54.9223 109.837C55.1277 111.697 56.0537 113.403 57.5019 114.589C57.5482 114.632 57.5836 114.686 57.6053 114.746C57.627 114.806 57.6344 114.87 57.6269 114.933C57.6194 114.996 57.5972 115.057 57.5621 115.11C57.527 115.163 57.48 115.207 57.4248 115.239C54.7786 116.736 51.8909 117.758 48.8923 118.259C46.6846 118.658 44.4078 118.373 42.3661 117.444C40.6368 116.548 39.1502 115.247 38.0338 113.651C36.1675 111.082 35.1222 108.007 35.0353 104.832C35.0082 104.908 34.9861 104.985 34.9691 105.064C35.4101 108.702 35.7518 112.781 37.9897 115.823C40.7126 119.549 45.9048 120.034 50.1159 119.593C52.5172 119.308 54.8915 118.829 57.2153 118.16C58.4606 117.822 59.68 117.394 60.8642 116.881C61.8985 116.375 62.9582 115.923 64.0391 115.526L63.8848 115.448C62.0243 114.563 60.5172 113.075 59.6075 111.226Z" fill="#76797B"/>
</g>
<g style="mix-blend-mode:multiply" opacity="0.5">
<g style="mix-blend-mode:multiply" opacity="0.5">
<path d="M91.6868 156.259C90.871 158.739 90.1765 161.253 89.1954 163.678C89.0962 163.931 89.504 163.854 89.5812 163.678C90.517 161.254 91.294 158.772 91.9073 156.248C92.0065 156.049 91.7198 156.082 91.6868 156.259Z" fill="#EDB89A"/>
</g>
<g style="mix-blend-mode:multiply" opacity="0.5">
<path d="M93.4838 156.678C93.0428 157.879 92.7011 159.114 92.2601 160.316C91.7064 161.326 91.2981 162.41 91.0475 163.535C91.0475 163.766 91.3892 163.645 91.4333 163.535C91.764 162.432 92.3152 161.396 92.7121 160.305C93.109 159.213 93.4176 157.912 93.8145 156.733C93.9027 156.468 93.5499 156.512 93.4838 156.678Z" fill="#EDB89A"/>
</g>
<g style="mix-blend-mode:multiply" opacity="0.5">
<path d="M97.0996 157.483H96.2066C96.2367 157.434 96.2626 157.382 96.2838 157.329C96.372 157.152 96.0523 157.152 95.9861 157.329L95.898 157.516C93.535 157.36 91.162 157.549 88.8537 158.078C88.6332 158.133 88.534 158.53 88.8537 158.453C91.0949 158.003 93.386 157.855 95.6665 158.012L95.2806 158.762C93.2644 158.782 91.2511 158.918 89.2506 159.17C89.1183 159.17 88.975 159.434 89.1624 159.423C90.2648 159.335 91.4663 159.269 92.6128 159.225L95.0932 159.136C94.7845 159.743 94.4869 160.349 94.1893 160.955L92.0065 160.669C90.7829 160.548 89.5372 160.548 88.3135 160.349C88.1261 160.349 87.8616 160.647 88.0931 160.691C89.3167 160.911 90.5403 161.022 91.764 161.176C92.4806 161.264 93.1861 161.374 93.8916 161.429C93.7593 161.727 93.638 162.036 93.5058 162.344C92.827 162.198 92.1377 162.106 91.4443 162.069C90.5772 162.012 89.7152 161.895 88.8647 161.716C88.6663 161.716 88.3907 162.014 88.6443 162.08C89.4642 162.278 90.2965 162.422 91.1356 162.51L93.3404 162.807C93.3404 162.918 93.2412 163.028 93.1971 163.127C93.153 163.226 93.4948 163.304 93.5719 163.127L93.7042 162.852C93.9026 162.852 94.1672 162.521 93.9026 162.444C94.057 162.113 94.2113 161.782 94.3546 161.451C94.7616 161.49 95.1713 161.49 95.5783 161.451C95.7877 161.451 95.9641 161.044 95.6665 161.022L94.5641 160.944L95.4349 159.081H96.0413C96.1956 159.081 96.361 158.817 96.1405 158.795H95.5893L95.9531 158.023C96.2691 158.023 96.5888 158.023 96.9122 158.023C97.1988 157.946 97.4523 157.494 97.0996 157.483Z" fill="#EDB89A"/>
</g>
</g>
<g style="mix-blend-mode:multiply" opacity="0.5">
<g style="mix-blend-mode:multiply" opacity="0.5">
<path d="M48.6055 157.858C47.7897 160.339 47.1062 162.852 46.1251 165.277C46.0148 165.542 46.4227 165.465 46.5109 165.277C47.4402 162.855 48.217 160.377 48.8369 157.858C48.881 157.715 48.6496 157.748 48.6055 157.858Z" fill="#EDB89A"/>
</g>
<g style="mix-blend-mode:multiply" opacity="0.5">
<path d="M50.4134 158.343C49.9614 159.534 49.6307 160.769 49.1897 161.97C48.6343 162.981 48.2224 164.065 47.9661 165.189C47.9661 165.421 48.3188 165.299 48.3629 165.189C48.6826 164.087 49.2448 163.062 49.6307 161.959C50.0165 160.857 50.3362 159.567 50.7331 158.387C50.8213 158.123 50.4685 158.178 50.4134 158.343Z" fill="#EDB89A"/>
</g>
<g style="mix-blend-mode:multiply" opacity="0.5">
<path d="M54.0182 159.137H53.1363L53.2024 158.983C53.2906 158.806 52.982 158.806 52.9158 158.983L52.8166 159.181C50.4542 159.021 48.0811 159.207 45.7723 159.732C45.5518 159.788 45.4526 160.184 45.7723 160.107C48.0142 159.663 50.3046 159.515 52.5851 159.666L52.2103 160.416C50.1906 160.442 48.174 160.578 46.1692 160.824C46.0369 160.824 45.8936 161.099 46.092 161.077C47.2385 160.989 48.385 160.923 49.5315 160.879L52.0118 160.802C51.7032 161.397 51.4055 162.003 51.1189 162.61L48.9803 162.411C47.7456 162.279 46.4999 162.279 45.2762 162.092C45.0888 162.092 44.8243 162.389 45.0668 162.422C46.2794 162.643 47.5031 162.753 48.7377 162.907C49.4433 162.996 50.1488 163.106 50.8653 163.161C50.722 163.47 50.6008 163.778 50.4685 164.087C49.7902 163.936 49.1008 163.84 48.407 163.8C47.5407 163.742 46.679 163.628 45.8274 163.459C45.64 163.459 45.3644 163.745 45.607 163.811C46.4267 164.014 47.259 164.161 48.0984 164.252C48.826 164.34 49.5535 164.44 50.3032 164.55L50.1708 164.87C50.0716 165.123 50.4685 165.046 50.5457 164.87C50.6228 164.693 50.6228 164.693 50.6669 164.594C50.8543 164.594 51.1189 164.263 50.8653 164.186L51.3284 163.194C51.7319 163.227 52.1375 163.227 52.541 163.194C52.7615 163.194 52.9378 162.775 52.6292 162.753C52.3205 162.731 51.9236 162.753 51.5268 162.676L52.3867 160.813H53.004C53.1473 160.813 53.3237 160.548 53.0922 160.537C52.8607 160.526 52.7284 160.537 52.552 160.537L52.9048 159.777H53.8638C54.1174 159.567 54.371 159.148 54.0182 159.137Z" fill="#EDB89A"/>
</g>
</g>
</g>
</svg>
