<svg width="140" height="147" viewBox="0 0 140 147" fill="none" xmlns="http://www.w3.org/2000/svg">
<g opacity="0.7">
<path d="M107.693 115.094C107.693 115.094 97.3587 123.907 114.578 131.079C113.344 135.012 117.531 140.664 120.23 140.917C123.182 146.811 129.043 147.064 131.544 145.588C134.045 144.112 136.953 133.778 129.825 132.555C130.806 124.436 128.349 123.213 125.143 121.737C128.349 115.589 124.163 109.431 120.472 109.188C116.308 111.899 107.693 115.094 107.693 115.094Z" fill="#E57011"/>
<path d="M128.404 146.822C126.618 146.783 124.877 146.248 123.379 145.274C121.88 144.301 120.683 142.93 119.921 141.313C118.126 140.722 116.614 139.486 115.68 137.843C114.287 135.973 113.685 133.631 114.005 131.321C108.056 128.787 104.773 125.747 104.222 122.276C103.539 118.024 107.219 114.807 107.384 114.675L107.527 114.587C107.615 114.587 116.131 111.381 120.218 108.737L120.362 108.648H120.527C121.602 108.82 122.619 109.249 123.492 109.9C124.365 110.55 125.068 111.402 125.54 112.383C126.312 113.758 126.742 115.299 126.792 116.876C126.841 118.453 126.51 120.018 125.826 121.439C128.779 122.827 131.213 124.347 130.376 132.103C131.473 132.344 132.47 132.914 133.234 133.737C133.998 134.56 134.492 135.597 134.651 136.708C135.301 140.201 133.604 144.872 131.808 145.952C130.77 146.536 129.596 146.837 128.404 146.822ZM107.957 115.512C107.505 115.931 104.652 118.729 105.191 122.122C105.698 125.306 108.926 128.159 114.776 130.583L115.184 130.748L115.052 131.178C114.523 132.864 115.052 135.144 116.495 137.292C117.674 139.033 119.183 140.278 120.285 140.377H120.56L120.681 140.63C121.344 142.134 122.422 143.417 123.787 144.33C125.153 145.243 126.751 145.748 128.393 145.786C129.403 145.812 130.402 145.573 131.29 145.092C132.612 144.299 134.276 140.135 133.67 136.874C133.548 135.876 133.093 134.949 132.38 134.242C131.666 133.534 130.735 133.087 129.737 132.974L129.274 132.897L129.329 132.423C130.288 124.579 128.04 123.543 124.923 122.111L124.46 121.891L124.691 121.439C125.416 120.125 125.795 118.649 125.795 117.148C125.795 115.647 125.416 114.171 124.691 112.857C124.297 112.048 123.726 111.338 123.021 110.779C122.315 110.22 121.493 109.827 120.615 109.629C116.572 112.262 108.915 115.159 107.957 115.523V115.512Z" fill="#AF4D04"/>
<path d="M125.154 121.736C125.1 122.139 124.989 122.533 124.824 122.904C124.658 123.292 124.451 123.662 124.207 124.006C123.931 124.409 123.609 124.778 123.248 125.107C122.876 125.425 122.46 125.688 122.014 125.89C121.802 125.986 121.581 126.06 121.353 126.11C121.155 126.159 120.952 126.189 120.747 126.198C120.444 126.225 120.138 126.199 119.844 126.121L119.514 126.022L119.811 125.89C120.078 125.817 120.34 125.725 120.593 125.614C120.747 125.559 120.913 125.46 121.078 125.383C121.243 125.306 121.397 125.185 121.585 125.085C121.772 124.986 121.904 124.832 122.092 124.733L122.587 124.303C122.915 124.023 123.228 123.725 123.524 123.411L124.339 122.563C124.813 122.089 125.154 121.736 125.154 121.736Z" fill="#AF4D04"/>
<path d="M114.589 131.078C114.589 131.078 115.129 131.078 115.889 131.078L117.2 131.155L118.665 131.276C119.161 131.276 119.657 131.332 120.131 131.387C120.556 131.363 120.983 131.363 121.409 131.387C121.838 131.361 122.268 131.361 122.698 131.387C122.313 131.612 121.912 131.808 121.497 131.97C121.054 132.081 120.605 132.166 120.153 132.224C119.632 132.257 119.109 132.257 118.588 132.224C118.074 132.173 117.562 132.092 117.057 131.981C116.621 131.885 116.193 131.753 115.779 131.585C115.363 131.464 114.964 131.294 114.589 131.078Z" fill="#AF4D04"/>
<path d="M120.241 140.917H121.662C122.661 140.953 123.662 140.931 124.658 140.85C124.912 140.85 125.187 140.85 125.452 140.762C125.716 140.674 125.969 140.696 126.201 140.63C126.432 140.564 126.685 140.531 126.906 140.465C127.126 140.399 127.357 140.355 127.534 140.278L128.074 140.09L128.481 139.903L128.845 139.76C128.845 139.76 128.757 139.881 128.591 140.068C128.359 140.337 128.092 140.574 127.798 140.773C127.605 140.918 127.399 141.044 127.181 141.148C126.944 141.274 126.697 141.381 126.443 141.467C126.175 141.568 125.898 141.645 125.617 141.699C125.33 141.765 125.033 141.787 124.746 141.831C124.175 141.892 123.599 141.892 123.028 141.831C122.528 141.76 122.034 141.65 121.552 141.5C121.092 141.361 120.652 141.165 120.241 140.917Z" fill="#AF4D04"/>
<path d="M129.836 132.06C129.961 132.383 130.028 132.726 130.035 133.073C130.049 133.443 130.02 133.812 129.946 134.175C129.861 134.581 129.72 134.974 129.528 135.343C129.328 135.714 129.071 136.052 128.768 136.345C128.634 136.481 128.486 136.603 128.327 136.709C128.19 136.809 128.042 136.894 127.886 136.962C127.572 137.12 127.233 137.22 126.884 137.26L127.071 137.039C127.192 136.918 127.358 136.731 127.545 136.521C127.748 136.281 127.939 136.031 128.118 135.772C128.315 135.486 128.496 135.188 128.658 134.88C128.968 134.281 129.24 133.663 129.473 133.029L129.836 132.06Z" fill="#AF4D04"/>
<g style="mix-blend-mode:multiply" opacity="0.5">
<path d="M126.509 142.757C127.974 142.388 129.271 141.534 130.187 140.333C131.103 139.133 131.586 137.657 131.555 136.147C131.524 135.929 131.541 135.706 131.606 135.495C131.671 135.285 131.782 135.091 131.93 134.928C132.078 134.765 132.261 134.636 132.465 134.552C132.668 134.467 132.888 134.429 133.108 134.439C132.294 133.411 131.106 132.746 129.803 132.588C129.925 131.572 129.994 130.55 130.013 129.526C129.043 134.549 127.038 138.339 123.16 138.339C117.993 138.339 114.798 133.051 120.086 133.933C125.375 134.814 128.074 131.233 125.375 130.627C122.675 130.022 121.563 129.283 124.515 127.322C125.928 126.259 126.984 124.791 127.545 123.114C126.783 122.593 125.971 122.15 125.121 121.792C125.362 121.315 125.568 120.822 125.738 120.316C124.844 121.588 123.632 122.603 122.222 123.26C120.813 123.918 119.256 124.194 117.707 124.061C111.097 123.389 110.59 119.996 117.597 116.35C120.123 115.196 122.328 113.44 124.019 111.238C123.133 110.132 121.855 109.409 120.45 109.222C116.275 111.932 107.67 115.127 107.67 115.127C107.67 115.127 97.3366 123.94 114.556 131.112C113.322 135.045 117.509 140.697 120.208 140.95C123.16 146.844 129.021 147.098 131.522 145.621C132.624 144.982 133.725 142.691 134.122 140.19C131.412 148.265 123.854 143.451 126.509 142.757Z" fill="#E57011"/>
</g>
<g style="mix-blend-mode:screen" opacity="0.5">
<path d="M123.722 114.355C123.876 115.673 123.699 117.007 123.206 118.239C122.714 119.47 121.921 120.559 120.902 121.406C118.797 122.695 123.336 123.213 124.868 119.445C126.399 115.677 124.548 112.483 123.722 114.355Z" fill="#E57011"/>
</g>
<g style="mix-blend-mode:screen" opacity="0.5">
<path d="M127.919 127.63C128.079 128.951 127.905 130.291 127.412 131.526C126.919 132.762 126.124 133.855 125.099 134.703C122.984 135.992 127.534 136.51 129.054 132.753C130.575 128.996 128.735 125.757 127.919 127.63Z" fill="#E57011"/>
</g>
<g style="mix-blend-mode:screen" opacity="0.5">
<path d="M132.503 136.642C132.638 137.784 132.485 138.942 132.058 140.01C131.631 141.078 130.943 142.022 130.057 142.756C128.217 143.858 132.172 144.331 133.494 141.071C134.816 137.81 133.219 135.011 132.503 136.642Z" fill="#E57011"/>
</g>
<path d="M36.6227 115.094C36.6227 115.094 46.9455 123.907 29.7372 131.079C30.96 135.012 26.7846 140.664 24.0745 140.917C21.133 146.811 15.261 147.064 12.7602 145.588C10.2593 144.112 7.36191 133.778 14.4898 132.555C13.4983 124.436 15.9661 123.213 19.161 121.737C15.9661 115.589 20.1415 109.431 23.8321 109.188C28.0075 111.899 36.6227 115.094 36.6227 115.094Z" fill="#E57011"/>
<path d="M15.9108 146.822C14.7269 146.849 13.5567 146.564 12.5177 145.995C10.7219 144.894 9.01429 140.245 9.6753 136.752C9.82278 135.636 10.3133 134.594 11.0791 133.769C11.8448 132.944 12.848 132.377 13.9498 132.147C13.1015 124.435 15.5363 122.871 18.4998 121.483C17.814 120.063 17.4809 118.498 17.5288 116.921C17.5768 115.345 18.0043 113.803 18.7752 112.427C19.2482 111.445 19.9524 110.592 20.8274 109.941C21.7023 109.291 22.722 108.862 23.7989 108.692H23.9642L24.0964 108.781C28.1836 111.425 36.6997 114.597 36.7878 114.63L36.942 114.719C37.0963 114.851 40.7759 118.024 40.1039 122.32C39.553 125.791 36.259 128.831 30.3209 131.365C30.6418 133.673 30.0357 136.014 28.6353 137.876C27.7018 139.508 26.1935 140.734 24.4048 141.313C23.6401 142.93 22.4404 144.301 20.9402 145.274C19.44 146.247 17.6985 146.783 15.9108 146.822ZM23.7108 109.684C22.8328 109.882 22.0107 110.275 21.3051 110.834C20.5996 111.392 20.0286 112.103 19.6345 112.912C18.9004 114.218 18.5083 115.689 18.4949 117.187C18.4814 118.686 18.8469 120.164 19.5574 121.483L19.7998 121.935L19.3261 122.155C16.2303 123.587 13.9939 124.623 14.9193 132.467L14.9854 132.94L14.5117 133.018C13.5225 133.133 12.6018 133.581 11.8996 134.287C11.1973 134.993 10.755 135.917 10.6448 136.907C10.0278 140.212 11.7465 144.332 13.0244 145.125C13.9094 145.605 14.9046 145.844 15.9108 145.819C17.5529 145.78 19.1499 145.274 20.5154 144.361C21.8809 143.448 22.9586 142.166 23.6227 140.663L23.7328 140.41H24.0082C25.1099 140.311 26.6303 139.066 27.798 137.325C29.2302 135.177 29.7701 132.918 29.2413 131.211L29.109 130.781L29.5167 130.616C35.3776 128.192 38.5946 125.339 39.1124 122.144C39.6522 118.718 36.7988 115.93 36.3361 115.534C35.4107 115.159 27.743 112.262 23.7108 109.695V109.684Z" fill="#AF4D04"/>
<path d="M19.1609 121.736C19.2225 122.139 19.3373 122.532 19.5024 122.904C19.6634 123.295 19.8705 123.664 20.1194 124.006C20.3922 124.411 20.7141 124.781 21.0778 125.107C21.4524 125.433 21.8716 125.704 22.3227 125.912C22.5303 126.01 22.7484 126.084 22.9727 126.132C23.175 126.181 23.3816 126.211 23.5897 126.22C23.893 126.246 24.1985 126.22 24.4931 126.143L24.8125 126.044L24.4931 125.945C24.2265 125.87 23.9652 125.778 23.7108 125.669C23.5566 125.614 23.4024 125.515 23.2261 125.438C23.0552 125.349 22.8896 125.249 22.7303 125.141C22.5541 125.041 22.3998 124.887 22.2236 124.788C22.0473 124.689 21.8821 124.513 21.7168 124.358C21.3889 124.078 21.0763 123.78 20.7804 123.466L19.9761 122.618C19.5575 122.089 19.1609 121.736 19.1609 121.736Z" fill="#AF4D04"/>
<path d="M29.7371 131.078C29.7371 131.078 29.1973 131.078 28.4261 131.078L27.1261 131.155L25.6498 131.276C25.1541 131.276 24.6583 131.332 24.1956 131.387C23.77 131.363 23.3433 131.363 22.9177 131.387C22.4847 131.361 22.0506 131.361 21.6177 131.387C22.0053 131.613 22.4106 131.809 22.8295 131.97C23.2723 132.081 23.721 132.166 24.1736 132.224C24.6908 132.257 25.2097 132.257 25.727 132.224C26.2419 132.174 26.7533 132.093 27.2583 131.981C27.6982 131.885 28.1294 131.753 28.5473 131.585C28.9618 131.462 29.3609 131.292 29.7371 131.078Z" fill="#AF4D04"/>
<path d="M24.0743 140.917H22.6531C21.6575 140.953 20.6606 140.931 19.6675 140.85C19.4031 140.85 19.1277 140.85 18.8743 140.762C18.6209 140.674 18.3565 140.696 18.1141 140.63C17.8718 140.564 17.6294 140.531 17.4091 140.465C17.1887 140.399 16.9684 140.355 16.7811 140.278L16.2523 140.09L15.8447 139.903L15.4701 139.76C15.4701 139.76 15.5582 139.881 15.7235 140.068C15.9606 140.336 16.2308 140.573 16.5277 140.773C16.7191 140.92 16.9259 141.046 17.1447 141.148C17.3797 141.278 17.6269 141.385 17.8828 141.467C18.1503 141.57 18.4269 141.648 18.7091 141.699C18.9845 141.765 19.2819 141.787 19.5794 141.831C20.1506 141.892 20.7268 141.892 21.298 141.831C21.7914 141.763 22.2779 141.652 22.7522 141.5C23.2166 141.365 23.6611 141.168 24.0743 140.917Z" fill="#AF4D04"/>
<path d="M14.4899 132.06C14.3652 132.383 14.2981 132.726 14.2916 133.073C14.2713 133.443 14.3009 133.813 14.3798 134.175C14.4649 134.581 14.6058 134.974 14.7984 135.343C14.9908 135.716 15.244 136.055 15.5475 136.345C15.6853 136.481 15.8367 136.603 15.9992 136.709C16.1346 136.812 16.2828 136.897 16.4399 136.962C16.7534 137.121 17.093 137.222 17.4424 137.26L17.2552 137.039C17.0873 136.876 16.9292 136.703 16.7814 136.521C16.5747 136.284 16.3834 136.034 16.2086 135.772C16.0031 135.491 15.8225 135.192 15.6687 134.88C15.3502 134.283 15.0741 133.665 14.8425 133.029L14.4899 132.06Z" fill="#AF4D04"/>
<g style="mix-blend-mode:multiply" opacity="0.5">
<path d="M17.8059 142.757C16.3422 142.387 15.0468 141.532 14.1307 140.332C13.2145 139.131 12.7315 137.657 12.7602 136.147C12.7912 135.929 12.7737 135.706 12.7089 135.495C12.6441 135.285 12.5335 135.091 12.3852 134.928C12.2368 134.765 12.0542 134.636 11.8506 134.552C11.6469 134.467 11.4271 134.429 11.2068 134.439C12.0232 133.413 13.2101 132.748 14.5119 132.588C14.3796 131.573 14.3097 130.55 14.3026 129.526C15.261 134.549 17.2661 138.339 21.155 138.339C26.3109 138.339 29.5058 133.051 24.2288 133.933C18.9517 134.814 16.2305 131.233 18.9407 130.627C21.6508 130.022 22.7525 129.283 19.789 127.322C18.3828 126.252 17.328 124.787 16.7593 123.114C17.5207 122.593 18.3328 122.15 19.183 121.792C18.9421 121.315 18.7359 120.822 18.5661 120.316C19.4611 121.587 20.6734 122.602 22.0825 123.259C23.4915 123.916 25.0482 124.193 26.5974 124.061C33.1524 123.389 33.7143 119.996 26.7075 116.35C24.184 115.196 21.9822 113.441 20.2957 111.238C21.1792 110.134 22.4533 109.412 23.8542 109.222C28.0296 111.932 36.6448 115.127 36.6448 115.127C36.6448 115.127 46.9676 123.94 29.7592 131.112C30.9821 135.045 26.8067 140.697 24.0966 140.95C21.1551 146.844 15.2831 147.098 12.7822 145.621C11.6805 144.982 10.5789 142.691 10.1823 140.19C12.9475 148.265 20.461 143.451 17.8059 142.757Z" fill="#E57011"/>
</g>
<g style="mix-blend-mode:screen" opacity="0.5">
<path d="M20.5931 114.355C20.4391 115.673 20.6164 117.007 21.1089 118.239C21.6014 119.47 22.3935 120.559 23.4134 121.406C25.5287 122.695 20.9787 123.213 19.4584 119.445C17.938 115.677 19.7668 112.483 20.5931 114.355Z" fill="#E57011"/>
</g>
<g style="mix-blend-mode:screen" opacity="0.5">
<path d="M16.4067 127.63C16.2465 128.95 16.4198 130.289 16.9105 131.524C17.4013 132.76 18.1939 133.853 19.216 134.703C21.3312 135.992 16.7922 136.51 15.2609 132.753C13.7296 128.996 15.5804 125.757 16.4067 127.63Z" fill="#E57011"/>
</g>
<g style="mix-blend-mode:screen" opacity="0.5">
<path d="M11.8459 136.642C11.7134 137.784 11.8676 138.941 12.2946 140.009C12.7216 141.076 13.408 142.02 14.2916 142.756C16.1424 143.858 12.1874 144.331 10.8543 141.071C9.5213 137.81 11.0967 135.011 11.8459 136.642Z" fill="#E57011"/>
</g>
<path d="M119.249 87.9259C119.249 87.9259 122.202 92.7182 126.014 87.3089C129.825 81.8997 127.71 74.8048 123.513 74.0887C119.315 73.3726 118.004 78.4955 118.004 78.4955C117.922 68.7671 117.164 59.0562 115.735 49.433C110.48 45.5 105.401 35.8271 105.401 35.8271C105.401 35.8271 106.062 46.844 103.76 46.9762C97.7003 46.9762 91.641 35.9593 91.641 35.9593C91.641 35.9593 87.5427 44.1559 85.2512 43.5059C82.9597 42.8559 86.2317 35.4746 86.2317 35.4746C67.3819 44.8169 65.5751 42.3601 69.0234 38.0966C46.8905 48.4194 43.277 46.9101 49.0168 40.5534C35.2347 52.5507 24.0856 52.3855 24.0856 52.3855C22.7998 56.464 22.4645 60.7827 23.1051 65.0108C23.6245 70.2521 23.4057 75.5404 22.4551 80.7209C18.8416 74.8158 12.1213 79.4099 11.956 85.4691C11.7908 91.5284 17.6958 96.9487 22.1246 94.8114C23.1051 106.776 37.8567 118.013 37.8567 118.013C37.8567 118.013 63.9226 134.538 100.322 116.537C120.814 105.344 119.249 87.9259 119.249 87.9259Z" fill="#FBD0B4"/>
<g style="mix-blend-mode:multiply" opacity="0.5">
<path d="M82.6842 105.542C80.1769 107.894 77.256 109.761 74.069 111.05C70.5392 112.633 66.7492 113.555 62.8869 113.771C59.8095 113.958 56.7211 113.717 53.7098 113.055C58.1166 121.031 67.8224 122.541 75.8647 119.158C79.9735 117.627 83.3426 114.585 85.2842 110.653C86.6855 107.397 87.2169 103.832 86.8265 100.309C86.5291 100.727 86.1986 101.124 85.8681 101.531C84.8922 102.934 83.8288 104.273 82.6842 105.542Z" fill="#EDB89A"/>
</g>
<g style="mix-blend-mode:multiply" opacity="0.5">
<path d="M78.8724 120.646C76.9772 121.442 74.9954 122.016 72.9674 122.353C71.3306 122.529 69.6796 122.529 68.0428 122.353C70.2462 124.557 74.8182 124.391 77.6165 123.543C80.8334 122.551 84.9537 120.051 84.5571 116.217C83.0866 118.169 81.1252 119.697 78.8724 120.646Z" fill="#EDB89A"/>
</g>
<path d="M66.3681 125.361C48.8734 125.361 37.7243 118.464 37.6472 118.387C37.0192 117.913 23.149 107.227 21.7719 95.4391C19.5685 96.2323 16.7482 95.3289 14.633 93.1475C12.6237 91.0871 11.5143 88.3135 11.5482 85.4357C11.6584 81.2273 14.8533 77.5477 18.2465 77.5477C19.0273 77.5595 19.7942 77.7552 20.4852 78.1189C21.1762 78.4826 21.7718 79.004 22.2236 79.6409C23.0407 74.8079 23.2038 69.8869 22.7083 65.0105C22.0467 60.7159 22.3898 56.3264 23.7109 52.1869L23.81 51.9114H24.0964C24.5812 51.9114 35.4328 51.7792 48.7412 40.2005L49.314 40.7954C46.8903 43.5056 46.9124 44.453 47.0446 44.7395C47.1768 45.0259 47.9039 45.1581 48.3115 45.1581C50.3717 45.1581 55.6157 43.8581 68.8359 37.6887L70.4444 36.9395L69.3427 38.3166C67.8334 40.1785 67.9876 40.8836 68.0647 41.0598C68.1419 41.2361 68.869 41.4344 69.1664 41.4344C70.9842 41.4344 75.3799 40.3327 86.0002 35.0667L87.0137 34.5599L86.551 35.6616C85.89 37.1709 84.2816 41.3903 84.9426 42.7895C84.9731 42.8722 85.0231 42.9464 85.0882 43.0059C85.1534 43.0653 85.2319 43.1082 85.3172 43.131H85.4714C86.9807 43.131 89.801 38.6141 91.2222 35.7717L91.5747 35.0777L91.9493 35.7607C92.0154 35.8709 97.9645 46.5352 103.726 46.5352C104.828 46.4581 105.258 40.9276 104.949 35.8268L104.839 33.9209L105.731 35.6065C105.731 35.7056 110.821 45.2462 115.933 49.0801L116.065 49.1793V49.3445C117.41 58.3194 118.168 67.3724 118.335 76.446C118.727 75.6201 119.338 74.9175 120.101 74.4144C120.864 73.9114 121.751 73.6271 122.664 73.5926C123.787 73.5857 124.881 73.9488 125.778 74.6258C126.674 75.3028 127.322 76.2561 127.622 77.3384C128.257 79.0122 128.466 80.8173 128.232 82.592C127.997 84.3667 127.326 86.0555 126.278 87.5069C124.989 89.3357 123.634 90.2611 122.257 90.2611C121.251 90.2178 120.302 89.7829 119.613 89.0493C119.502 93.2136 117.839 107.359 100.443 116.889C89.8914 122.306 78.2283 125.206 66.3681 125.361ZM22.488 94.2162V94.8111C23.4575 106.467 37.9116 117.605 38.0768 117.715C38.2421 117.825 49.0937 124.535 66.3241 124.535C78.0733 124.404 89.632 121.55 100.091 116.195C110.535 110.477 115.074 103.107 117.035 97.9289C118.297 94.7603 118.9 91.368 118.808 87.9586L118.709 86.229L119.624 87.6942C119.916 88.1731 120.313 88.5801 120.784 88.8852C121.255 89.1903 121.788 89.3857 122.345 89.4569C123.447 89.4569 124.548 88.6527 125.65 87.0552C126.618 85.7184 127.241 84.1626 127.462 82.5268C127.683 80.8909 127.496 79.2258 126.917 77.6799C126.653 76.8963 126.194 76.1929 125.583 75.6359C124.972 75.0788 124.229 74.6866 123.424 74.496C119.668 73.868 118.401 78.4951 118.39 78.5392L117.608 81.679V78.4511C117.528 68.8164 116.792 59.1984 115.404 49.664C111.416 46.5903 107.604 40.4429 105.952 37.5454C106.062 41.1039 105.952 47.2183 103.848 47.3615C98.4052 47.3615 93.1611 39.2531 91.729 36.8293C90.6934 38.7904 87.7519 43.9573 85.5926 43.9573C85.4646 43.9741 85.335 43.9741 85.207 43.9573C85.0107 43.8989 84.8293 43.7988 84.6752 43.6638C84.5212 43.5287 84.3982 43.362 84.3146 43.1751C83.5985 41.6327 84.7994 38.1514 85.5044 36.3777C77.396 40.3437 71.9537 42.3488 69.2876 42.3488C68.3071 42.3488 67.6681 42.0624 67.3927 41.5005C67.2798 41.1016 67.2638 40.6815 67.3462 40.2752C67.4286 39.869 67.607 39.4883 67.8664 39.1649C57.9513 43.7479 51.3411 46.0615 48.3886 46.0615C47.2869 46.0615 46.6369 45.764 46.3725 45.1581C46.2691 44.8113 46.2461 44.4456 46.3052 44.0886C46.3644 43.7316 46.5042 43.3928 46.7141 43.0979C35.3557 51.9114 26.1786 52.7377 24.46 52.8148C23.3059 56.7456 23.0128 60.879 23.6007 64.9334C24.1061 70.2408 23.8576 75.593 22.8626 80.8307L22.6643 81.8553L22.1134 80.9629C21.7546 80.2345 21.2082 79.6148 20.5306 79.1676C19.8529 78.7203 19.0683 78.4616 18.2575 78.418C15.283 78.418 12.4847 81.8002 12.3855 85.5129C12.3641 88.1496 13.3858 90.688 15.2279 92.5747C17.277 94.6789 19.9321 95.4611 21.9592 94.4806L22.488 94.2162Z" fill="#B56A4D"/>
<path d="M135.235 53.3657C133.031 36.1573 122.929 16.2389 112.606 14.8067C103.506 2.51184 69.8275 -11.2592 29.9795 17.7592C-1.2313 42.5471 0.487338 82.6265 12.2864 102.06C19.9101 112.879 34.6727 119.026 37.8675 118.046C37.8675 118.046 23.105 106.808 22.1245 94.8442C17.7177 96.9814 11.8017 91.5391 11.9669 85.5019C12.1322 79.4646 18.8524 74.8485 22.455 80.7536C23.4149 75.563 23.6337 70.2625 23.105 65.0105C22.4643 60.7816 22.8036 56.4622 24.0965 52.3852C24.0965 52.3852 35.2345 52.5504 49.0166 40.5861C43.2768 46.9759 46.8793 48.4522 69.0122 38.1294C65.575 42.3929 67.3707 44.8496 86.2316 35.5073C86.2316 35.5073 82.9265 42.8776 85.24 43.5386C87.5536 44.1996 91.6408 35.9921 91.6408 35.9921C91.6408 35.9921 97.7001 47.0089 103.759 47.0089C106.051 46.8437 105.401 35.8599 105.401 35.8599C105.401 35.8599 110.491 45.4666 115.735 49.4327C117.169 59.0408 117.935 68.7369 118.026 78.4511C118.026 78.4511 119.326 73.4053 123.535 74.0443C127.743 74.6833 129.847 81.8443 126.035 87.2646C122.224 92.6849 119.271 87.8815 119.271 87.8815C119.271 87.8815 120.825 105.299 100.333 116.525C104.277 119.963 120.935 115.181 128.448 101.465C135.962 87.7493 137.438 70.585 135.235 53.3657Z" fill="#E57011"/>
<path d="M37.0302 118.641C32.337 118.641 18.8964 112.295 11.8897 102.347C0.167757 83.0561 -2.25596 42.7344 29.6929 17.3295C45.2598 5.99317 61.719 0 77.3078 0C94.4501 0 107.483 7.16096 112.892 14.3219C121.552 15.7872 132.987 32.026 135.73 53.3216C138.176 72.3367 135.796 89.0823 128.867 101.796C122.675 113.044 110.733 118.178 104.222 118.178C102.719 118.291 101.225 117.87 100.003 116.988L99.4737 116.514L100.091 116.173C110.513 110.466 115.041 103.107 117.002 97.9509C118.26 94.8008 118.859 91.4265 118.764 88.0357L118.588 85.9866L119.69 87.7383C119.977 88.2051 120.364 88.6025 120.823 88.9016C121.282 89.2007 121.802 89.3941 122.345 89.4679C123.446 89.4679 124.548 88.6747 125.65 87.0993C126.612 85.7724 127.231 84.2274 127.45 82.6028C127.669 80.9782 127.482 79.3246 126.906 77.7901C126.644 77.0203 126.192 76.3294 125.591 75.7822C124.99 75.235 124.259 74.8493 123.468 74.6613C119.767 74.0553 118.555 78.6163 118.533 78.6494L117.574 82.3731V78.4511C117.473 68.83 116.719 59.2269 115.316 49.7081C111.438 46.7225 107.747 40.8946 106.018 37.876C106.106 41.5005 105.93 47.3174 103.814 47.4606C98.4161 47.4606 93.2272 39.5836 91.6958 37.0167C90.5941 39.22 87.7077 44.0674 85.5484 44.0674C85.4131 44.085 85.2761 44.085 85.1408 44.0674C84.9331 44.0079 84.7414 43.9029 84.5794 43.76C84.4174 43.617 84.2893 43.4398 84.2044 43.2412C83.4993 41.7319 84.59 38.4048 85.3061 36.6311C77.2968 40.542 71.8985 42.5141 69.2435 42.5141C68.2299 42.5141 67.5579 42.2166 67.2715 41.6217C67.1466 41.2535 67.1135 40.8603 67.1749 40.4764C67.2363 40.0924 67.3905 39.7292 67.624 39.4183C57.797 43.9242 51.319 46.2157 48.3445 46.2157C47.2428 46.2157 46.5377 45.8962 46.2513 45.2573C46.1523 44.9577 46.1188 44.6404 46.153 44.3268C46.1872 44.0132 46.2883 43.7106 46.4496 43.4395C35.3226 52.0216 26.3218 52.8809 24.482 52.958C23.3336 56.89 23.0443 61.023 23.6337 65.0766C24.1539 70.3807 23.9314 75.7314 22.9727 80.9739L22.7303 82.2078L22.0693 81.1061C21.7258 80.3692 21.1889 79.7392 20.5157 79.2833C19.8425 78.8274 19.0582 78.5626 18.2464 78.5172C15.3159 78.5172 12.5507 81.8222 12.4626 85.5239C12.4385 88.1385 13.4482 90.6568 15.2719 92.5306C17.299 94.6128 19.921 95.373 21.882 94.4145L22.532 94.106V94.8221C23.4794 106.434 37.9556 117.55 38.0768 117.66L38.8369 118.244L37.9225 118.519C37.632 118.6 37.3318 118.641 37.0302 118.641ZM77.3078 0.980501C61.8842 0.980501 45.6674 6.90757 30.2879 18.1117C-1.1763 43.142 1.19233 82.8468 12.716 101.84C19.3261 111.193 31.676 117.263 36.5675 117.671C33.2624 114.928 22.9396 105.674 21.7057 95.5823C19.5023 96.3314 16.682 95.406 14.5778 93.2357C13.5775 92.2183 12.7881 91.0133 12.2549 89.6898C11.7217 88.3664 11.4554 86.9506 11.4711 85.5239C11.5812 81.2714 14.7761 77.5477 18.2464 77.5477C19.0091 77.5583 19.7591 77.7435 20.439 78.0892C21.1189 78.4349 21.7105 78.9318 22.1684 79.5417C22.9583 74.7724 23.1102 69.9191 22.6201 65.1096C21.9651 60.7995 22.3119 56.3964 23.6337 52.242L23.7549 51.9225H24.0964C24.5811 51.9225 35.4107 51.7903 48.686 40.2446L49.3801 40.9387C46.9123 43.6929 47.0225 44.5963 47.1767 44.8056C47.3309 45.0149 47.7165 45.1691 48.3665 45.1691C50.4267 45.1691 55.6487 43.8802 68.8579 37.7107L70.7858 36.8184L69.4528 38.4709C68.274 39.9251 68.0316 40.7844 68.1859 41.1149C68.3401 41.4454 68.6816 41.4565 69.2875 41.4565C71.0943 41.4565 75.468 40.3548 86.0883 35.0997L87.3001 34.4938L86.7493 35.7387C85.8239 37.8209 84.5459 41.5887 85.1408 42.8005C85.1646 42.873 85.2064 42.9384 85.2622 42.9904C85.3181 43.0424 85.3863 43.0794 85.4603 43.098H85.5925C86.9916 43.098 89.7459 38.8344 91.2772 35.7938L91.6958 34.9675L92.1475 35.7828C92.2026 35.8929 98.1407 46.5132 103.847 46.5132C104.773 46.4471 105.324 41.4785 104.949 35.8819L104.817 33.6014L105.919 35.6285C105.974 35.7167 111.008 45.2463 116.109 49.0691L116.263 49.1903V49.3776C117.598 58.2613 118.356 67.222 118.533 76.2036C119.004 75.29 119.752 74.5494 120.671 74.0881C121.59 73.6269 122.631 73.4688 123.645 73.6367C124.602 73.8467 125.489 74.2996 126.22 74.9518C126.951 75.604 127.502 76.4335 127.82 77.3604C128.456 79.0476 128.665 80.8658 128.429 82.6533C128.192 84.4408 127.518 86.1422 126.465 87.6061C125.165 89.4569 123.788 90.3933 122.378 90.3933C121.411 90.3594 120.492 89.9666 119.8 89.2917C119.657 93.6323 117.839 107.238 101.314 116.636C102.243 117.041 103.253 117.229 104.266 117.186C110.347 117.186 122.124 112.141 128.051 101.311C134.882 88.8179 137.218 72.2816 134.805 53.4648C132.601 36.6311 122.686 16.7236 112.595 15.2804H112.385L112.264 15.1151C107.042 8.00926 94.2297 0.980501 77.3078 0.980501Z" fill="#AF4D04"/>
<g style="mix-blend-mode:multiply" opacity="0.6">
<path d="M33.0972 92.0681C33.0972 92.0681 41.9988 91.2639 50.0962 99.0969L49.7657 96.4638C49.7657 96.4638 59.769 94.7342 58.2707 80.4673C57.83 76.2699 55.175 70.6954 50.7462 69.2962C45.7886 67.7098 41.503 71.2132 39.8505 75.4987C38.8898 77.9662 38.3174 80.5677 38.1539 83.2105C38.1539 83.6843 38.3853 88.7961 38.6827 88.719C36.4997 89.1819 34.5339 90.3606 33.0972 92.0681Z" fill="#FBD0B4"/>
</g>
<path d="M34.5183 91.5066C34.7482 91.4363 34.9843 91.3883 35.2234 91.3634C35.8479 91.2824 36.4777 91.2493 37.1073 91.2642C37.5039 91.2642 37.9225 91.3413 38.3742 91.3854C38.8488 91.408 39.3188 91.4894 39.7733 91.6278L41.2386 92.0354C41.7334 92.208 42.2189 92.4066 42.6928 92.6303C43.1665 92.8507 43.6513 93.049 44.103 93.3023L45.3699 94.1396C45.7775 94.404 46.1631 94.6795 46.4716 94.9439C46.7975 95.211 47.1065 95.498 47.397 95.8032C48.4987 96.9049 49.2148 97.654 49.2148 97.654C49.2148 97.654 48.3555 97.0591 47.1436 96.1337C46.8352 95.9023 46.5267 95.6159 46.1521 95.3845C45.7775 95.1532 45.3699 94.9439 44.9623 94.6905L43.7945 93.9413C43.3428 93.71 42.8691 93.5337 42.4064 93.3354C41.9437 93.1371 41.503 92.8727 41.0293 92.7074L39.6301 92.2888C39.199 92.1382 38.757 92.0203 38.3081 91.9363C37.8784 91.8591 37.4818 91.749 37.0963 91.7049C36.3361 91.6388 35.7081 91.5066 35.2564 91.5286C35.0111 91.5062 34.7646 91.4988 34.5183 91.5066Z" fill="#B56A4D"/>
<path d="M56.9157 79.0683C57.6184 83.1489 56.8368 87.3463 54.7124 90.9004C53.0709 93.4563 48.9946 95.3072 45.987 94.3818C42.5387 93.2801 40.2252 89.7987 39.5091 86.3835C38.2972 80.5556 39.7735 72.2709 45.315 69.5718C50.1624 67.2142 54.7674 71.6099 56.2327 76.3141C56.5331 77.2126 56.7615 78.1336 56.9157 79.0683Z" fill="#FEF6EC"/>
<path d="M56.9156 79.0674L57.0148 79.8386C57.1047 80.5699 57.1562 81.3053 57.169 82.042C57.1685 83.1827 57.0727 84.3214 56.8826 85.4462C56.6047 86.9084 56.1535 88.3323 55.5385 89.6877C55.3402 90.0402 55.1419 90.4148 54.9436 90.7894C54.7453 91.1639 54.4368 91.4834 54.1834 91.8911C53.93 92.2987 53.5334 92.519 53.1919 92.8385C52.8504 93.158 52.4428 93.3894 52.0902 93.6317C50.3584 94.6955 48.2967 95.0875 46.2953 94.7334C45.7898 94.5972 45.2961 94.4204 44.8191 94.2046C44.3341 93.9537 43.8667 93.6703 43.42 93.3563C42.5686 92.6799 41.8256 91.8775 41.2166 90.9767C39.9778 89.1286 39.2204 87.0003 39.0132 84.7852C38.7775 82.5785 38.8852 80.3487 39.3327 78.1751C39.7371 76.0717 40.5901 74.0802 41.8335 72.3361C43.0112 70.6936 44.7068 69.4947 46.6479 68.9319C47.5213 68.7241 48.4286 68.7021 49.3111 68.8672C50.1936 69.0323 51.0315 69.3809 51.7707 69.8904C52.9943 70.7291 54.0298 71.8134 54.8114 73.0743C55.4413 74.0322 55.9415 75.0695 56.2987 76.159C56.6953 77.9988 56.9156 79.0674 56.9156 79.0674ZM56.9156 79.0674C56.9156 79.0674 56.6842 77.9657 56.2105 76.17C55.8462 75.0878 55.3347 74.0609 54.6902 73.1183C53.8872 71.881 52.8183 70.8385 51.5614 70.0667C50.8405 69.6001 50.0295 69.2903 49.1811 69.1575C48.3327 69.0246 47.4659 69.0716 46.6369 69.2955C44.8316 69.8994 43.2803 71.09 42.2301 72.6776C40.0478 76.2684 39.1686 80.5012 39.7403 84.664C39.9071 86.765 40.6046 88.7892 41.7674 90.547C42.8349 92.2803 44.4944 93.568 46.4386 94.1715C48.3219 94.5646 50.2841 94.2467 51.947 93.2792C52.3546 93.0588 52.7072 92.7834 53.0487 92.5521C53.3902 92.3207 53.7097 91.9792 54.0182 91.6817C54.3007 91.347 54.5654 90.9976 54.8114 90.6351C55.0207 90.2826 55.23 89.919 55.4393 89.5334C56.097 88.2122 56.5714 86.8075 56.8495 85.3581C57.0577 84.2387 57.1683 83.1034 57.18 81.9649C57.1861 81.2286 57.1456 80.4927 57.0588 79.7615C56.9487 79.3318 56.9156 79.0674 56.9156 79.0674Z" fill="#9E5116"/>
<g style="mix-blend-mode:multiply" opacity="0.5">
<g style="mix-blend-mode:multiply" opacity="0.5">
<path d="M45.3589 69.5716C45.5352 69.4835 45.7004 69.4284 45.8657 69.3623C40.82 71.8631 39.4759 79.4427 40.5886 84.7859C41.2386 87.9367 43.3649 91.1537 46.5267 92.1342C49.292 92.9935 53.0267 91.2859 54.536 88.9282C56.4757 85.6654 57.1794 81.8146 56.519 78.0766C56.387 77.2224 56.1918 76.3791 55.9351 75.5538C55.834 75.2249 55.7164 74.9013 55.5826 74.5843C55.8602 75.1488 56.0923 75.7345 56.2766 76.336C56.5621 77.2357 56.7758 78.1567 56.9156 79.0902C57.6183 83.1708 56.8367 87.3682 54.7122 90.9223C53.0707 93.4782 48.9945 95.329 45.9869 94.4036C42.5386 93.3019 40.2251 89.8206 39.509 86.4054C38.3412 80.5554 39.8174 72.2708 45.3589 69.5716Z" fill="#BBAC9A"/>
</g>
</g>
<path d="M40.1259 76.0165C39.4034 75.8731 38.7285 75.551 38.1626 75.0794C37.5968 74.6079 37.1582 74.0021 36.8869 73.3174C36.8869 73.3174 36.6996 75.6309 39.564 77.4267L40.1259 76.0165Z" fill="#9E5116"/>
<path d="M39.509 78.4074C38.7704 78.3577 38.0562 78.1228 37.4323 77.7242C36.8085 77.3256 36.2951 76.7763 35.9396 76.127C35.9396 76.127 36.0608 78.4405 39.1345 79.8727L39.509 78.4074Z" fill="#9E5116"/>
<g style="mix-blend-mode:screen">
<g style="mix-blend-mode:screen">
<path d="M53.5224 81.8224C53.5224 81.6902 53.3351 81.8224 53.3462 81.8224C53.2969 83.3545 53.0146 84.8702 52.5089 86.3173C52.2437 87.0911 51.8094 87.7961 51.2378 88.3811C50.6661 88.9661 49.9713 89.4165 49.2038 89.6995C48.9064 89.8427 48.664 90.5698 49.1267 90.6359C50.8784 90.9113 52.2555 89.369 52.9826 87.6724C53.6959 85.8089 53.8827 83.785 53.5224 81.8224Z" fill="#3F634A"/>
</g>
</g>
<g style="mix-blend-mode:screen">
<g style="mix-blend-mode:screen">
<path d="M45.0837 87.8816C44.1675 85.8398 43.63 83.6486 43.4972 81.4147C43.4972 81.2494 43.3099 81.2935 43.2879 81.4147C42.8803 83.6181 43.0125 86.7579 44.5659 88.4104C44.8303 88.6748 45.2159 88.2011 45.0837 87.8816Z" fill="#739963"/>
</g>
</g>
<g style="mix-blend-mode:multiply" opacity="0.6">
<path d="M106.591 89.5341C106.591 89.5341 96.389 89.4129 87.862 98.6561L88.0162 95.7586C88.0162 95.7586 76.4816 94.712 76.9993 78.991C77.1426 74.3639 79.6985 68.0402 84.612 66.1233C90.1204 63.9199 95.2873 67.4343 97.5458 71.9843C98.8458 74.5928 99.7163 77.394 100.124 80.2799C100.201 80.7977 100.344 86.4163 100.003 86.3833C102.48 86.6992 104.79 87.8039 106.591 89.5341Z" fill="#FBD0B4"/>
</g>
<path d="M104.927 89.0054C104.658 89.0128 104.389 89.0386 104.123 89.0825C103.427 89.1596 102.736 89.2736 102.052 89.424C101.622 89.5011 101.182 89.6554 100.708 89.7876C100.203 89.9073 99.7091 90.0695 99.2316 90.2723L97.6892 90.8672C97.1604 91.0655 96.6866 91.385 96.1689 91.6384C95.6511 91.8918 95.1443 92.1562 94.6595 92.4316L93.2824 93.3791L91.9825 94.2384C91.5994 94.5157 91.2316 94.8136 90.8808 95.1308C89.5698 96.2324 88.6223 96.9926 88.6223 96.9926C88.6223 96.9926 89.3604 96.0892 90.5613 94.7892C90.8755 94.4287 91.2102 94.0866 91.5638 93.7647L92.8197 92.7731L94.1858 91.7486C94.6926 91.4401 95.2324 91.1757 95.7502 90.9003C96.2656 90.6132 96.7951 90.3521 97.3367 90.1181L98.9671 89.5672C99.4729 89.3839 99.9976 89.2583 100.532 89.1927C101.027 89.1045 101.501 88.9944 101.942 88.9503C102.657 88.8916 103.375 88.8916 104.09 88.9503C104.37 88.9446 104.65 88.963 104.927 89.0054Z" fill="#B56A4D"/>
<path d="M79.313 78.5172C78.8863 82.7301 80.0321 86.952 82.5299 90.3713C84.4688 92.8391 88.9197 94.4145 92.0374 93.2247C95.5959 91.8696 97.7662 88.1128 98.2509 84.5874C99.0662 78.5612 96.8408 70.2655 90.7815 67.952C85.4604 65.9359 80.9434 70.7833 79.7646 75.6638C79.5351 76.6007 79.384 77.5551 79.313 78.5172Z" fill="#FEF6EC"/>
<path d="M79.3129 78.5168C79.3129 78.5168 79.3129 78.8033 79.3129 79.3211C79.2666 80.0805 79.2666 80.8421 79.3129 81.6016C79.379 82.0863 79.4451 82.6151 79.5222 83.21C79.5993 83.8049 79.7646 84.4109 79.9629 85.0609C80.3685 86.5339 81.0003 87.935 81.8358 89.2142C82.7689 90.7564 84.1869 91.9458 85.8679 92.5964C87.6764 93.4032 89.7084 93.5589 91.6187 93.0371C93.5902 92.3069 95.2328 90.8912 96.2458 89.049C97.3632 87.1724 97.9568 85.0305 97.9644 82.8465C98.0625 80.6559 97.8021 78.4641 97.1933 76.3575C96.6275 74.3162 95.6447 72.4143 94.3068 70.772C93.0245 69.2493 91.2731 68.1954 89.3272 67.7754C88.4551 67.6166 87.5602 67.6322 86.6941 67.8213C85.8281 68.0104 85.0081 68.3692 84.2815 68.8771C83.029 69.7424 81.9801 70.8702 81.2078 72.1821C80.5985 73.1915 80.1349 74.282 79.8307 75.4211C79.6214 76.3686 79.5222 77.1397 79.4341 77.6245C79.3459 78.1092 79.3129 78.5168 79.3129 78.5168ZM79.3129 78.5168C79.3129 78.5168 79.3129 78.2414 79.4341 77.7236C79.5553 77.2058 79.5993 76.4347 79.7976 75.5203C80.0889 74.3611 80.5413 73.2486 81.1417 72.2152C81.9098 70.8735 82.9492 69.7066 84.1934 68.789C84.9296 68.2265 85.7708 67.8169 86.6675 67.5842C87.5643 67.3515 88.4986 67.3004 89.4154 67.4339C91.4735 67.8047 93.3475 68.8561 94.7365 70.4195C96.2193 72.0707 97.308 74.0371 97.9204 76.1703C98.5797 78.3546 98.8774 80.6321 98.8017 82.9126C98.7493 85.223 98.0922 87.4793 96.8958 89.4566C96.2971 90.4232 95.554 91.2926 94.6924 92.0345C94.2423 92.3757 93.7713 92.6884 93.2823 92.971C92.8068 93.2363 92.3046 93.4504 91.784 93.6099C89.7462 94.1006 87.6014 93.8709 85.7137 92.9599C84.8442 92.5574 84.0357 92.0345 83.312 91.4066C82.9815 91.0871 82.6951 90.7566 82.3976 90.4261L81.6705 89.3244C80.8803 88.006 80.2725 86.5866 79.8637 85.1049C79.6765 84.4439 79.5663 83.8049 79.4561 83.2321C79.3459 82.6592 79.3239 82.1304 79.2578 81.6126C79.2139 80.8531 79.2139 80.0916 79.2578 79.3321C79.2909 78.7592 79.3129 78.5168 79.3129 78.5168Z" fill="#9E5116"/>
<g style="mix-blend-mode:multiply" opacity="0.5">
<g style="mix-blend-mode:multiply" opacity="0.5">
<path d="M90.7815 67.9074L90.2196 67.7422C95.7281 69.9456 97.7772 77.4701 97.0281 82.9785C96.5874 86.2175 94.5933 89.6547 91.3323 90.8996C88.468 92.0013 84.3917 90.5581 82.607 88.2886C80.3083 85.1554 79.2524 81.2813 79.6435 77.415C79.7149 76.5351 79.8549 75.6621 80.0621 74.804C80.1447 74.4603 80.2477 74.1219 80.3706 73.7904C80.1225 74.3876 79.9199 75.0026 79.7646 75.6303C79.5357 76.5636 79.3846 77.5143 79.313 78.4726C78.8863 82.6855 80.0321 86.9075 82.5299 90.3268C84.4688 92.7945 88.9197 94.3699 92.0374 93.1801C95.5959 91.825 97.7662 88.0683 98.2509 84.5429C99.0662 78.5167 96.8408 70.221 90.7815 67.9074Z" fill="#BBAC9A"/>
</g>
</g>
<path d="M96.8187 74.0442C97.5496 73.8428 98.22 73.4654 98.7712 72.9449C99.3225 72.4244 99.7377 71.7768 99.9806 71.0586C99.9806 71.0586 100.366 73.3832 97.4797 75.4653L96.8187 74.0442Z" fill="#9E5116"/>
<path d="M97.656 76.4349C98.421 76.3265 99.148 76.033 99.7739 75.5799C100.4 75.1268 100.906 74.5278 101.247 73.835C101.247 73.835 101.314 76.1816 98.1738 77.8892L97.656 76.4349Z" fill="#9E5116"/>
<path d="M66.1809 89.0049C66.3167 89.2763 66.4131 89.5656 66.4673 89.8642C66.6457 90.6647 66.5844 91.5 66.291 92.2659C66.0813 92.7873 65.7663 93.2598 65.3656 93.654C65.1494 93.8693 64.9174 94.0681 64.6716 94.2489C64.4072 94.4142 64.1317 94.5684 63.8453 94.7226L62.9529 95.0862L62.0055 95.3506C61.8072 95.4277 61.3114 95.5159 61.2013 95.6481C61.0319 95.7768 60.9114 95.9595 60.8597 96.1658C60.7707 96.7213 60.8554 97.2908 61.1021 97.7963C61.3329 98.3452 61.6249 98.8663 61.9724 99.3497C62.3006 99.8181 62.6692 100.257 63.0741 100.661C63.4116 101.026 63.7802 101.362 64.1758 101.663C64.528 101.911 64.8961 102.135 65.2775 102.335C65.5771 102.486 65.8908 102.608 66.2139 102.699L67.0843 102.864C67.0843 102.864 66.7648 102.864 66.1809 102.864C65.8377 102.808 65.4989 102.727 65.1673 102.622C64.7297 102.485 64.3113 102.292 63.9224 102.049C63.4592 101.767 63.0206 101.446 62.6114 101.09C62.1669 100.699 61.7677 100.26 61.4216 99.7794C61.0076 99.267 60.6665 98.6997 60.408 98.0938C60.0729 97.4347 59.9644 96.6835 60.0996 95.9565C60.1528 95.7457 60.2474 95.5475 60.3779 95.3735C60.5084 95.1995 60.6722 95.0531 60.8597 94.943C61.172 94.7683 61.5106 94.6455 61.8623 94.5794L62.7546 94.3591L63.5809 94.0616L64.3411 93.687C64.5614 93.5218 64.8038 93.3896 65.0021 93.2243C65.3699 92.9173 65.6765 92.5435 65.9054 92.1227C66.2457 91.4405 66.3978 90.6799 66.3461 89.9193C66.3186 89.6101 66.2632 89.3041 66.1809 89.0049Z" fill="#B56A4D"/>
<path d="M64.1097 78.1201C64.1097 78.1201 70.0919 88.3217 66.5555 93.3234C65.575 95.3725 74.08 90.9658 64.1097 78.1201Z" fill="#FCECE3"/>
<path d="M64.6384 95.1193C64.8367 95.4167 64.4732 96.0116 63.8232 96.4523C63.1732 96.893 62.4791 97.0142 62.2808 96.7167C62.0825 96.4193 62.446 95.8354 63.096 95.3837C63.746 94.932 64.4401 94.8218 64.6384 95.1193Z" fill="#FCECE3"/>
<path d="M40.6548 67.3902C40.6548 67.3902 45.1276 57.1886 54.1835 65.9911C51.8038 59.6013 44.2573 55.0183 40.6548 67.3902Z" fill="#AF4D04"/>
<g style="mix-blend-mode:multiply" opacity="0.6">
<path d="M40.6548 68.6021C40.6548 68.6021 45.1276 58.4005 54.1835 67.2029C51.8038 60.8903 44.2573 56.2522 40.6548 68.6021Z" fill="#FBD0B4"/>
</g>
<path d="M79.2469 65.5501C79.2469 65.5501 88.3469 52.2307 97.4468 65.3407C94.99 56.9459 86.1325 51.9442 79.2469 65.5501Z" fill="#AF4D04"/>
<g style="mix-blend-mode:multiply" opacity="0.6">
<path d="M79.2469 66.7955C79.2469 66.7955 88.3469 53.4651 97.4468 66.5862C94.99 58.1803 86.1325 53.1787 79.2469 66.7955Z" fill="#FBD0B4"/>
</g>
<path d="M19.6787 84.3561C18.4228 82.9018 14.1703 81.8662 14.3576 84.7086C14.3576 84.8738 14.644 84.7086 14.644 84.6425C14.7432 82.9789 16.4728 83.3976 17.5304 83.8383C18.3502 84.2033 19.0248 84.8313 19.4474 85.623C19.6552 85.9759 19.8357 86.3442 19.9872 86.7247C19.9494 86.7483 19.9159 86.7781 19.888 86.8128C19.6787 87.1433 19.6236 87.5179 19.4363 87.8374C19.2743 88.0623 19.0672 88.2509 18.8282 88.3913C18.5892 88.5317 18.3235 88.6207 18.0482 88.6526C17.54 88.7494 17.0146 88.6969 16.5355 88.5014C16.0565 88.3059 15.6444 87.9758 15.3491 87.5509C15.283 87.4408 15.1177 87.5509 15.1618 87.6721C15.4355 88.2565 15.9088 88.724 16.4965 88.9906C17.0842 89.2572 17.7477 89.3053 18.3677 89.1263C18.777 89.0093 19.1572 88.8076 19.4836 88.5343C19.81 88.261 20.0754 87.9223 20.2626 87.5399C20.4941 88.1687 20.563 88.8458 20.4628 89.5084C20.3627 90.1709 20.0967 90.7974 19.6897 91.3297C19.4914 91.5611 19.5906 91.9797 19.9872 91.8365C22.9617 90.7238 21.1329 86.0306 19.6787 84.3561Z" fill="#9F5216"/>
<path d="M121.265 80.06C122.147 78.4956 125.859 76.7549 126.256 79.421C126.256 79.5863 126.002 79.5201 125.969 79.421C125.584 77.9007 124.052 78.6058 123.149 79.2007C122.462 79.6932 121.955 80.3976 121.706 81.2057C121.584 81.5666 121.485 81.9345 121.408 82.3074L121.519 82.3735C121.772 82.6379 121.882 82.9794 122.124 83.2439C122.316 83.4215 122.542 83.558 122.788 83.6452C123.035 83.7323 123.296 83.7682 123.557 83.7506C124.043 83.7434 124.517 83.5988 124.924 83.3337C125.332 83.0686 125.656 82.6937 125.859 82.2523C125.859 82.1311 126.069 82.2523 126.046 82.3405C125.904 82.9297 125.553 83.4477 125.06 83.7997C124.566 84.1517 123.962 84.3142 123.358 84.2574C122.959 84.2267 122.57 84.1128 122.217 83.9231C121.865 83.7333 121.555 83.472 121.309 83.1557C121.21 83.7792 121.269 84.4177 121.48 85.0126C121.692 85.6074 122.05 86.1395 122.521 86.5599C122.752 86.7362 122.73 87.1328 122.345 87.0777C119.381 86.5599 120.219 81.8778 121.265 80.06Z" fill="#9F5216"/>
<path d="M24.4602 36.6533C23.1381 38.1957 21.8492 39.7601 20.6483 41.3906C19.422 42.9988 18.2891 44.6761 17.2552 46.4143C16.206 48.112 15.3698 49.9325 14.7653 51.8346C14.4945 52.7562 14.3901 53.7187 14.4569 54.6769C14.506 55.1295 14.6249 55.5717 14.8094 55.9879C15.0024 56.396 15.2632 56.7685 15.5806 57.0896L15.4924 57.0235C15.6727 57.0831 15.863 57.1061 16.0522 57.0909C16.2414 57.0758 16.4257 57.0229 16.5941 56.9354C17.0468 56.7497 17.4789 56.517 17.8831 56.2413C18.7309 55.6712 19.5372 55.0417 20.2958 54.3574C21.8492 53.0023 23.2814 51.493 24.7025 49.9507C27.5779 46.9431 30.3101 43.7922 33.0754 40.6635C30.6296 44.0456 28.0407 47.2736 25.2644 50.4685C23.8804 52.0512 22.4092 53.5555 20.8577 54.9744C20.0769 55.7015 19.2448 56.3716 18.3678 56.9794C17.9146 57.2978 17.4267 57.5639 16.9136 57.7726C16.6118 57.9205 16.2802 57.9974 15.9441 57.9974C15.6081 57.9974 15.2764 57.9205 14.9747 57.7726C14.5795 57.367 14.2555 56.8977 14.0162 56.3845C13.7943 55.8701 13.6567 55.3232 13.6086 54.765C13.5346 53.6925 13.6655 52.6158 13.9942 51.5922C14.6189 49.613 15.5281 47.7352 16.6933 46.0177C18.9196 42.6124 21.5252 39.4708 24.4602 36.6533Z" fill="#AF4D04"/>
<g style="mix-blend-mode:multiply" opacity="0.5">
<path d="M123.524 74.1107C119.326 73.4167 118.015 78.5175 118.015 78.5175C117.93 68.7815 117.168 59.0632 115.735 49.433C110.491 45.5 105.412 35.8271 105.412 35.8271C105.412 35.8271 106.062 46.844 103.77 46.9762C97.7001 46.9762 91.6518 35.9593 91.6518 35.9593C91.6518 35.9593 87.5535 44.1559 85.251 43.5059C82.9485 42.8559 86.2425 35.4746 86.2425 35.4746C67.3816 44.8169 65.5859 42.3601 69.0232 38.0966C46.8903 48.4194 43.2878 46.9101 49.0276 40.5534C35.2344 52.5507 24.0964 52.3855 24.0964 52.3855C22.8035 56.4625 22.4643 60.782 23.1049 65.0108C23.6305 70.2519 23.4117 75.5411 22.4549 80.7209C18.8524 74.8158 12.1211 79.4099 11.9668 85.4691C11.8126 91.5284 17.6956 96.9487 22.1244 94.8114C23.1049 106.776 37.8675 118.013 37.8675 118.013C37.8675 118.013 63.9334 134.538 100.322 116.537C120.813 105.311 119.26 87.8928 119.26 87.8928C119.26 87.8928 122.202 92.6852 126.024 87.2759C129.847 81.8666 127.71 74.8048 123.524 74.1107ZM67.3376 121.99C27.0159 120.018 18.6541 95.186 29.9574 90.0411C25.782 76.5234 29.715 61.7608 29.715 61.7608C30.4531 57.3541 36.6005 57.8388 43.7285 51.1957C44.4776 56.1092 60.452 51.6804 64.3851 47.2516C64.8808 54.1372 76.9333 47.7474 80.6239 44.7949C79.8858 51.6804 87.7518 49.7194 89.7128 45.533C97.5899 56.5499 102.261 58.0702 103.98 52.4185C110.127 68.1616 108.893 78.9802 108.651 86.1081C127.126 94.4369 102.779 121.483 67.3706 121.979L67.3376 121.99Z" fill="#EDB89A"/>
</g>
<g style="mix-blend-mode:multiply" opacity="0.8">
<path d="M123.524 74.1107C119.326 73.4167 118.015 78.5175 118.015 78.5175C117.93 68.7815 117.168 59.0632 115.735 49.433C110.491 45.5 105.412 35.8271 105.412 35.8271C105.412 35.8271 106.062 46.844 103.771 46.9762C97.7003 46.9762 91.652 35.9593 91.652 35.9593C91.652 35.9593 87.5538 44.1559 85.2512 43.5059C82.9487 42.8559 86.2428 35.4746 86.2428 35.4746C67.3819 44.8169 65.5861 42.3601 69.0234 38.0966C46.8905 48.4194 43.288 46.9101 49.0278 40.5534C35.2347 52.5507 24.0966 52.3855 24.0966 52.3855C22.8037 56.4625 22.4645 60.782 23.1051 65.0108C23.6307 70.2519 23.4119 75.5411 22.4551 80.7209C20.1746 76.9861 16.6603 77.4158 14.3357 79.8175C17.0789 79.1344 20.6594 79.6192 23.3916 85.1276C26.0026 89.4021 23.7992 67.5006 26.1678 56.1643C33.6152 54.5558 43.6956 48.0999 45.1058 47.0974C43.4863 51.3279 57.2243 49.5101 65.0463 42.6907C64.4404 46.7338 74.5208 45.522 82.7724 40.0797C81.3733 46.3262 86.397 49.1465 91.8503 40.278C97.8876 53.1787 106.349 53.7736 107.164 47.1304C114.005 54.8422 116.627 70.1006 117.079 83.398C118.709 79.3768 122.202 74.937 125.892 75.3887C125.255 74.7261 124.427 74.2793 123.524 74.1107Z" fill="#EDB89A"/>
</g>
<g style="mix-blend-mode:multiply" opacity="0.5">
<g style="mix-blend-mode:multiply" opacity="0.5">
<path d="M135.235 53.3657C133.031 36.1573 122.929 16.2389 112.606 14.8067C103.506 2.51184 69.8274 -11.2592 29.9794 17.7592C8.60671 34.7251 2.67964 58.8741 4.84997 78.6604C5.41332 75.6801 6.30755 72.772 7.51604 69.9901C7.6813 69.6045 8.16604 69.8579 8.19909 70.1774C8.57367 73.4825 8.07791 76.7875 8.19909 80.0926C9.10859 75.5701 11.0545 71.3201 13.8838 67.6766C14.1151 67.3791 14.6109 67.6766 14.5007 68.0291C12.1541 75.2782 9.48806 83.5849 11.405 91.2306C12.9253 97.3119 17.1558 101.928 20.2185 107.26C20.3397 107.48 20.2185 107.855 19.899 107.822C18.6892 107.672 17.5128 107.322 16.4177 106.786C24.3388 114.619 35.2345 118.85 37.9336 118.024C37.9336 118.024 23.171 106.786 22.1905 94.8221C17.7838 96.9594 11.8677 91.5171 12.033 85.4798C12.1982 79.4426 18.9185 74.8265 22.521 80.7316C23.4809 75.541 23.6998 70.2405 23.171 64.9885C22.5304 60.7596 22.8696 56.4401 24.1625 52.3631C24.1625 52.3631 35.3006 52.5284 49.0827 40.5641C43.3429 46.9539 46.9454 48.4301 69.0783 38.1073C65.641 42.3708 67.4368 44.8276 86.2976 35.4853C86.2976 35.4853 82.9926 42.8556 85.3061 43.5166C87.6196 44.1776 91.7069 35.9701 91.7069 35.9701C91.7069 35.9701 97.7662 46.9869 103.825 46.9869C106.117 46.8217 105.467 35.8378 105.467 35.8378C105.467 35.8378 110.491 45.4666 115.735 49.4327C117.169 59.0408 117.934 68.7369 118.026 78.4511C118.026 78.4511 119.326 73.4384 123.535 74.0443C123.535 73.3613 123.535 72.6782 123.535 71.9952C123.455 71.9638 123.388 71.9091 123.34 71.8382C123.293 71.7673 123.269 71.6837 123.27 71.5986C123.204 68.4367 122.576 65.2749 122.962 62.102C122.965 62.0127 122.993 61.9262 123.044 61.8528C123.095 61.7795 123.167 61.7225 123.249 61.6887C123.332 61.6549 123.423 61.6458 123.51 61.6624C123.598 61.6791 123.679 61.7208 123.744 61.7826C126.829 64.5808 127.93 68.5249 128.547 72.524C128.904 70.5109 129.394 68.5235 130.013 66.5749C130.039 66.4772 130.098 66.3909 130.178 66.3295C130.259 66.268 130.357 66.2347 130.459 66.2347C130.56 66.2347 130.659 66.268 130.739 66.3295C130.82 66.3909 130.878 66.4772 130.905 66.5749C132.59 71.6206 132.205 76.8977 132.007 82.1197C131.863 85.8875 131.808 90.5035 128.955 93.3459C128.89 93.4076 128.809 93.4493 128.721 93.466C128.634 93.4827 128.543 93.4735 128.46 93.4398C128.378 93.406 128.306 93.349 128.255 93.2756C128.204 93.2022 128.176 93.1157 128.173 93.0264C128.399 89.6817 128.421 86.3264 128.239 82.979C127.082 86.6476 126.564 90.5035 125.066 93.9959C123.034 98.3942 120.674 102.633 118.004 106.676C117.943 106.778 117.845 106.851 117.73 106.881C117.615 106.911 117.494 106.894 117.391 106.835C117.289 106.776 117.213 106.678 117.182 106.564C117.15 106.45 117.164 106.328 117.222 106.225C119.643 100.99 121.366 95.4601 122.345 89.7764C121.737 89.6875 121.156 89.467 120.642 89.1301C120.128 88.7933 119.694 88.3484 119.37 87.8264C119.37 87.8264 120.924 105.244 100.432 116.47C104.376 119.908 121.034 115.126 128.547 101.41C136.061 87.6942 137.438 70.585 135.235 53.3657ZM126.619 59.2707C122.686 57.3097 114.325 29.5252 114.325 29.5252C114.325 29.5252 118.731 46.5022 115.063 43.5497C111.394 40.5971 101.292 24.3693 101.292 24.3693C101.292 24.3693 104.497 38.8785 99.8263 38.3827C95.1552 37.887 93.9213 27.3659 93.9213 27.3659C93.9213 27.3659 90.9688 33.7557 88.9968 33.5133C87.0247 33.2709 91.2001 26.3744 91.2001 26.3744C91.2001 26.3744 78.1672 37.2039 74.4875 35.4743C70.8079 33.7446 77.6714 27.1125 77.6714 27.1125C77.6714 27.1125 60.4631 39.1649 56.0343 38.6692C51.6055 38.1734 54.8114 29.2718 54.8114 29.2718C54.8114 29.2718 40.4895 44.7615 35.6311 43.781C30.7726 42.8005 38.0878 33.2158 38.0878 33.2158C38.0878 33.2158 21.882 51.4047 18.9295 49.4327C15.977 47.4606 29.4727 32.4667 29.4727 32.4667C17.2109 38.1294 10.083 53.1784 11.3058 48.4522C18.6871 26.0769 39.3878 10.0914 65.8944 4.92454C92.401 -0.242373 107.946 12.5482 110.898 20.4253C113.851 17.2304 116.55 16.4922 123.193 28.2913C132.293 44.2768 130.574 61.2427 126.63 59.2707H126.619Z" fill="#E57011"/>
</g>
</g>
<g style="mix-blend-mode:screen" opacity="0.5">
<path d="M91.2443 9.30918C91.2443 9.30918 68.4614 -2.61107 37.2616 18.8498C23.2262 29.448 27.721 33.4141 42.7701 24.1489C33.2295 36.3335 37.2616 33.9429 59.4606 19.9074C52.2997 29.1726 50.7132 39.242 74.0249 24.9421C90.1866 15.4015 84.0943 19.4337 79.0596 25.4709C74.0249 31.5082 83.8299 30.5056 91.2443 19.1142C89.6578 29.448 93.6349 23.0913 94.6925 17.7811C99.4628 33.6785 101.049 25.1955 99.4628 17.2523C111.647 37.1268 114.303 17.2523 91.2443 9.30918Z" fill="#E57011"/>
</g>
<g style="mix-blend-mode:screen" opacity="0.5">
<path d="M113.994 25.4596C113.994 25.4596 121.199 44.1883 125.011 45.1908C128.823 46.1933 112.209 14.7843 113.994 25.4596Z" fill="#E57011"/>
</g>
<g style="mix-blend-mode:multiply" opacity="0.6">
<path d="M65.3325 82.7588C65.3325 82.7588 66.6435 92.5087 59.5266 94.0951C55.0538 95.4061 55.0538 100.705 65.3325 103.052C71.1274 103.845 74.5536 99.6256 73.2316 96.9926C71.9096 94.3595 68.1969 103.041 60.6944 97.1138C59.2732 95.1417 61.9063 96.1994 64.5393 93.8087C67.1723 91.418 67.1723 87.5071 65.3325 82.7588Z" fill="#FBD0B4"/>
</g>
<path d="M55.3845 114.366C55.3845 114.366 77.5835 118.64 86.2317 102.17C86.2317 102.17 85.1301 114.696 76.9225 117.23C61.3006 122.055 55.3845 114.366 55.3845 114.366Z" fill="white"/>
<path d="M67.3487 119.28C58.7115 119.28 55.2301 114.873 55.0649 114.664C55.0174 114.598 54.9918 114.519 54.9918 114.438C54.9918 114.357 55.0174 114.278 55.0649 114.212C55.1085 114.14 55.1732 114.084 55.2501 114.05C55.327 114.017 55.4124 114.008 55.4945 114.025C57.5672 114.358 59.6638 114.521 61.7631 114.509C68.3733 114.509 80.2054 112.89 85.9231 102.027C85.9674 101.945 86.0386 101.88 86.1248 101.844C86.2111 101.808 86.3071 101.803 86.3968 101.829C86.488 101.855 86.567 101.912 86.6196 101.991C86.6721 102.07 86.6947 102.165 86.6833 102.259C86.6833 102.776 85.4384 115.093 77.0876 117.682C73.9392 118.698 70.6565 119.236 67.3487 119.28ZM56.5411 115.005C57.9954 116.261 61.4216 118.475 67.3487 118.475C70.5676 118.424 73.7609 117.893 76.8232 116.9C82.6511 115.093 84.7994 107.877 85.5155 104.264C79.302 113.837 68.0868 115.281 61.7301 115.281C59.9952 115.279 58.2622 115.169 56.5411 114.95V115.005Z" fill="#B56A4D"/>
<path d="M86.1545 101.167C85.659 101.35 85.2215 101.662 84.8876 102.071C84.4324 102.499 84.0591 103.007 83.7859 103.569C83.6647 103.723 83.5986 103.91 83.7859 103.944C83.8508 103.948 83.9156 103.935 83.9737 103.906C84.0319 103.877 84.0811 103.833 84.1164 103.778C84.4359 103.371 85.5156 102.093 86.0774 102.39C86.6393 102.688 86.8706 103.316 87.5427 103.106C87.6635 103.061 87.7675 102.98 87.8404 102.873C87.9133 102.767 87.9517 102.64 87.9503 102.511C87.9833 101.795 86.7605 101.046 86.1545 101.167Z" fill="#B56A4D"/>
<path d="M71.7223 123.136C70.4231 123.149 69.1264 123.019 67.8554 122.75C67.7964 122.746 67.739 122.729 67.6872 122.701C67.6354 122.672 67.5905 122.632 67.5555 122.585C67.5205 122.537 67.4964 122.482 67.4847 122.424C67.473 122.366 67.4741 122.306 67.4879 122.249C67.5017 122.191 67.5278 122.137 67.5645 122.091C67.6012 122.045 67.6475 122.007 67.7003 121.98C67.7531 121.953 67.811 121.938 67.8702 121.936C67.9293 121.934 67.9882 121.945 68.0427 121.968C68.1529 121.968 78.1892 124.392 83.918 116.581C83.9852 116.497 84.0823 116.442 84.189 116.428C84.2957 116.413 84.4038 116.44 84.4909 116.504C84.5759 116.567 84.6326 116.662 84.6491 116.767C84.6656 116.872 84.6404 116.979 84.579 117.066C83.0801 119.035 81.1295 120.614 78.8918 121.671C76.6541 122.727 74.1951 123.23 71.7223 123.136Z" fill="#B56A4D"/>
<path d="M95.0121 80.0703C95.552 85.7109 93.6681 90.371 89.713 91.0871C85.758 91.8032 82.0012 88.2227 81.5605 82.5491C81.1199 76.8754 84.0834 71.3008 87.6419 70.8051C91.2003 70.3093 94.4723 74.4296 95.0121 80.0703Z" fill="#2C7CAC"/>
<g style="mix-blend-mode:multiply" opacity="0.6">
<path d="M95.0122 80.0708C94.4723 74.4302 91.1673 70.376 87.6419 70.8056C84.1165 71.2353 81.1529 76.8649 81.5606 82.5386C81.9682 88.2123 85.758 91.8148 89.713 91.0766C93.6681 90.3385 95.574 85.7114 95.0122 80.0708ZM82.8936 77.2285C83.9953 75.5319 84.3038 76.5013 83.9953 77.9335C83.6868 79.3657 82.7173 84.092 85.1741 86.747C86.3419 88.036 87.8292 88.4436 87.9614 88.9504C88.0936 89.4572 85.0529 89.986 83.4114 87.0996C81.4835 83.7725 81.7479 78.9361 82.8936 77.2285Z" fill="#4A5F70"/>
</g>
<g style="mix-blend-mode:multiply" opacity="0.4">
<path d="M93.4696 80.721C93.062 76.8982 90.6713 74.2982 88.0824 74.827L87.5535 74.9702C87.201 74.3753 84.4909 76.5567 84.0392 79.5643C83.807 80.5526 83.7253 81.5702 83.7968 82.5829C84.0942 86.3947 86.8154 88.8294 89.6027 88.3006C92.3899 87.7718 93.8662 84.588 93.4696 80.721Z" fill="#4A5F70"/>
</g>
<g style="mix-blend-mode:multiply" opacity="0.6">
<path d="M95.0122 80.0708C94.4723 74.4302 91.1673 70.376 87.6419 70.8056C84.1165 71.2353 81.1529 76.8649 81.5606 82.5386C81.9682 88.2123 85.758 91.8148 89.713 91.0766C93.6681 90.3385 95.574 85.7114 95.0122 80.0708ZM89.6029 89.7546C85.8902 90.4597 82.3207 87.1106 82.0012 81.8886C81.6817 76.6666 84.3478 71.5437 87.6308 71.1031C90.9139 70.6624 94.0206 74.331 94.5164 79.531C95.0121 84.7309 93.3706 89.0495 89.6029 89.7546Z" fill="#4A5F70"/>
</g>
<path d="M92.2688 81.2825C92.5772 84.1358 91.3984 86.6036 89.2942 87.0112C87.19 87.4189 85.1519 85.568 84.8875 82.7147C84.6231 79.8613 86.1434 77.2062 88.1264 76.8647C90.1095 76.5232 91.9162 78.4291 92.2688 81.2825Z" fill="black"/>
<g style="mix-blend-mode:multiply" opacity="0.4">
<path d="M88.0162 77.6907C86.9916 75.6085 87.3221 73.1187 88.6551 72.4246C89.9882 71.7305 91.839 73.0415 92.7424 75.1017C93.6458 77.1619 93.7229 79.6517 92.3678 80.2245C91.0127 80.7974 89.0407 79.7508 88.0162 77.6907Z" fill="#4A5F70"/>
</g>
<g style="mix-blend-mode:overlay" opacity="0.4">
<path d="M83.257 79.7398C83.1468 82.0093 83.3892 86.4491 86.562 87.9805C88.3908 88.8728 84.0502 89.0821 82.8493 84.3559C81.9129 80.7203 83.3892 76.8644 83.257 79.7398Z" fill="white"/>
</g>
<g style="mix-blend-mode:overlay" opacity="0.4">
<path d="M83.5986 77.2502C84.0724 77.3274 83.9071 78.5723 83.2351 78.429C82.7614 78.3519 82.9376 77.1401 83.5986 77.2502Z" fill="white"/>
</g>
<path d="M88.9638 77.151C88.2036 75.5536 88.4129 73.7028 89.4044 73.196C90.396 72.6892 91.751 73.6917 92.4451 75.2561C93.1392 76.8205 93.1612 78.6934 92.1697 79.1451C91.1782 79.5968 89.746 78.7375 88.9638 77.151Z" fill="white"/>
<path d="M55.3842 80.8751C55.924 86.5267 54.0401 91.1869 50.0851 91.8919C46.13 92.597 42.3733 89.0165 41.9326 83.3539C41.4919 77.6912 44.4555 72.0836 48.0139 71.6209C51.5724 71.1582 54.8113 75.2124 55.3842 80.8751Z" fill="#2C7CAC"/>
<g style="mix-blend-mode:multiply" opacity="0.6">
<path d="M55.3845 80.8743C54.8446 75.2337 51.5616 71.1905 48.0142 71.6532C44.4668 72.1159 41.5252 77.7125 41.9329 83.3862C42.3405 89.0599 46.1303 92.6624 50.0854 91.9243C54.0404 91.1861 55.9133 86.526 55.3845 80.8743ZM43.2659 78.032C44.3676 76.3464 44.6761 77.3159 44.3676 78.7481C44.0591 80.1803 43.0896 84.9065 45.5464 87.6167C46.7142 88.8946 48.2015 89.3022 48.3337 89.765C48.4659 90.2277 45.4252 90.8666 43.7837 87.9141C41.8558 84.587 42.1202 79.7396 43.2659 78.032Z" fill="#4A5F70"/>
</g>
<g style="mix-blend-mode:multiply" opacity="0.4">
<path d="M53.842 81.5804C53.4344 77.7576 51.0437 75.1576 48.4437 75.6864C48.2688 75.7253 48.096 75.7731 47.9259 75.8296C47.5734 75.2347 44.8632 77.405 44.4115 80.4126C44.1744 81.4001 44.0926 82.4186 44.1692 83.4312C44.4556 87.2541 47.1878 89.6778 49.9751 89.149C52.7623 88.6202 54.2386 85.3922 53.842 81.5804Z" fill="#4A5F70"/>
</g>
<g style="mix-blend-mode:multiply" opacity="0.6">
<path d="M55.3845 80.8743C54.8446 75.2337 51.5616 71.1905 48.0142 71.6532C44.4668 72.1159 41.5252 77.7125 41.9329 83.3862C42.3405 89.0599 46.1303 92.6624 50.0854 91.9243C54.0404 91.1861 55.9133 86.526 55.3845 80.8743ZM49.9752 90.5692C46.2625 91.2632 42.693 87.9141 42.3735 82.7031C42.0541 77.4922 44.7201 72.3583 48.0032 71.9176C51.2862 71.477 54.3819 75.1456 54.8887 80.3345C55.3955 85.5235 53.7099 89.8641 49.9752 90.5692Z" fill="#4A5F70"/>
</g>
<path d="M52.6081 82.0976C52.9276 84.94 51.7488 87.4188 49.6336 87.8264C47.5183 88.234 45.5022 86.3722 45.2268 83.5188C44.9514 80.6654 46.4827 78.0765 48.4658 77.6799C50.4488 77.2832 52.2776 79.2443 52.6081 82.0976Z" fill="black"/>
<g style="mix-blend-mode:multiply" opacity="0.4">
<path d="M48.3886 78.5168C47.364 76.4346 47.6945 73.9448 49.0276 73.2507C50.3606 72.5566 52.2004 73.8566 53.1148 75.9278C54.0292 77.999 54.0953 80.4668 52.7292 81.0396C51.3632 81.6125 49.4022 80.5659 48.3886 78.5168Z" fill="#4A5F70"/>
</g>
<g style="mix-blend-mode:overlay" opacity="0.4">
<path d="M43.6292 80.5553C43.5191 82.8248 43.7614 87.2646 46.9343 88.796C48.7741 89.6883 44.4335 89.8976 43.2326 85.1714C42.2852 81.5138 43.7945 77.6799 43.6292 80.5553Z" fill="white"/>
</g>
<g style="mix-blend-mode:overlay" opacity="0.4">
<path d="M43.96 78.0546C44.4447 78.1318 44.2795 79.3877 43.5964 79.2445C43.1337 79.1563 43.31 77.9555 43.96 78.0546Z" fill="white"/>
</g>
<path d="M49.3581 77.9668C48.5979 76.3693 48.8072 74.5075 49.7877 74.0007C50.7682 73.4939 52.1453 74.5075 52.8394 76.0719C53.5335 77.6363 53.5555 79.5092 52.564 79.9498C51.5725 80.3905 50.1072 79.5532 49.3581 77.9668Z" fill="white"/>
<g style="mix-blend-mode:multiply" opacity="0.5">
<path d="M137.063 50.4241C133.956 46.3176 130.385 42.5839 126.421 39.2971C126.046 31.4641 119.051 23.8735 112.727 20.3922C105.489 16.3931 94.384 14.8176 85.6586 17.3846C82.7407 18.2171 80.0606 19.727 77.8366 21.7913C76.204 23.6085 75.1628 25.8794 74.8511 28.3023C71.6121 28.2031 66.1698 28.0599 63.5478 28.1591C63.2294 25.7891 62.2044 23.5701 60.6063 21.7913C58.3765 19.7292 55.6934 18.2197 52.7733 17.3846C44.0479 14.8176 32.9429 16.3931 25.6938 20.3922C19.0837 24.0167 11.7135 32.2022 11.9999 40.4208C8.50644 43.245 5.43471 46.5542 2.87793 50.2479C3.0542 52.1868 3.0542 54.1589 3.09826 56.1088C3.20843 56.7368 3.3186 57.3537 3.4508 57.9707C3.81436 59.7885 4.42029 61.5732 4.96012 63.369C6.72138 57.7994 10.1141 52.8868 14.699 49.2674C18.7532 54.6326 26.3218 56.6376 32.7997 56.3622C41.9107 55.9766 54.4368 52.8809 59.9783 44.9267C61.8974 42.0829 63.1685 38.8523 63.702 35.4632C66.3461 35.3861 71.546 35.4632 74.7189 35.5404C75.2619 38.9011 76.5287 42.1038 78.4316 44.9267C83.94 52.8809 96.4992 55.9436 105.61 56.3622C111.802 56.6266 118.963 54.8088 123.127 49.9835C128.075 53.9622 132.07 58.9991 134.816 64.724C135.83 60.0028 136.58 55.2288 137.063 50.4241Z" fill="#AA8571"/>
</g>
<path d="M4.24413 60.8905C4.24413 60.8905 4.86107 50.6558 16.0432 42.3491L12.2754 34.3398C12.2754 34.3398 4.34328 40.4652 1.25856 47.3728C-1.82616 54.2804 4.24413 60.8905 4.24413 60.8905Z" fill="#006282"/>
<path d="M4.24418 61.1989C4.20072 61.2003 4.15747 61.1922 4.1175 61.1751C4.07753 61.1579 4.0418 61.1322 4.01283 61.0998C3.94673 61.0337 -2.2778 54.2363 0.906073 47.2075C4.08995 40.1788 11.989 34.1195 12.0662 34.0534C12.1097 34.0349 12.1565 34.0254 12.2039 34.0254C12.2512 34.0254 12.298 34.0349 12.3416 34.0534C12.39 34.0622 12.4355 34.083 12.474 34.1137C12.5124 34.1445 12.5427 34.1843 12.5619 34.2297L16.3407 42.1618C16.3731 42.2291 16.381 42.3056 16.3629 42.378C16.3448 42.4505 16.3018 42.5143 16.2415 42.5584C5.32383 50.6999 4.58571 60.7913 4.57469 60.8905C4.57117 60.9549 4.54824 61.0167 4.50891 61.0678C4.46958 61.119 4.4157 61.157 4.35435 61.1769C4.32101 61.1961 4.28232 61.2038 4.24418 61.1989ZM12.1543 34.8246C10.645 36.0585 4.22215 41.5118 1.512 47.483C-0.988828 52.9914 2.66877 58.3676 4.01283 60.0862C4.42045 57.5524 6.40349 49.1796 15.6356 42.2169L12.1543 34.8246Z" fill="#214168"/>
<g style="mix-blend-mode:multiply">
<path d="M9.6424 45.4666C6.88819 48.5513 2.94415 52.4954 1.64417 56.825C2.31533 58.2956 3.19061 59.6642 4.24414 60.8902C4.24414 60.8902 4.86108 50.6556 16.0432 42.3488L15.1508 40.4209C13.162 41.9281 11.3179 43.6173 9.6424 45.4666Z" fill="#006282"/>
</g>
<path d="M135.653 60.8898C135.653 60.8898 132.535 51.0408 121.331 42.723L123.821 31.3096C123.821 31.3096 135.521 40.4646 138.65 47.3722C141.779 54.2797 135.653 60.8898 135.653 60.8898Z" fill="#006282"/>
<path d="M135.653 61.1991H135.576C135.52 61.1866 135.468 61.1597 135.426 61.1211C135.383 61.0824 135.351 61.0334 135.334 60.9788C135.334 60.8796 132.117 51.1187 121.166 42.9772C121.116 42.9401 121.077 42.8889 121.056 42.8302C121.034 42.7714 121.03 42.7076 121.045 42.6467L123.535 31.2332C123.544 31.1792 123.567 31.1285 123.602 31.0861C123.637 31.0436 123.682 31.0109 123.733 30.9909C123.781 30.9617 123.836 30.9463 123.893 30.9463C123.949 30.9463 124.004 30.9617 124.052 30.9909C124.537 31.3654 135.851 40.2671 138.991 47.1636C142.131 54.0602 135.951 60.9898 135.885 61.0559C135.86 61.0964 135.826 61.1306 135.786 61.1555C135.746 61.1804 135.7 61.1954 135.653 61.1991ZM121.728 42.5696C127.918 47.0639 132.77 53.157 135.763 60.1966C137.008 58.6542 140.963 53.1127 138.385 47.4501C135.653 41.4238 126.157 33.5358 124.063 31.8392L121.728 42.5696Z" fill="#214168"/>
<g style="mix-blend-mode:multiply">
<path d="M121.629 41.4678L121.364 42.7017C132.535 51.0194 135.686 60.8685 135.686 60.8685C136.453 59.9942 137.125 59.0415 137.691 58.0261C134.364 51.1957 128.206 45.7203 121.629 41.4678Z" fill="#006282"/>
</g>
<path d="M62.0496 29.7231C62.5343 29.3265 77.4732 29.7231 77.4732 29.7231V22.5291C77.4732 22.5291 61.4437 21.9231 62.0496 22.5291C62.6555 23.135 62.0496 29.7231 62.0496 29.7231Z" fill="#006282"/>
<path d="M62.0386 30.0427C61.9845 30.0577 61.9274 30.0577 61.8733 30.0427C61.8191 30.0056 61.7768 29.9536 61.7514 29.893C61.726 29.8325 61.7186 29.7659 61.7301 29.7012C62.0165 26.6936 62.1377 23.1902 61.8182 22.7716C61.7669 22.721 61.7313 22.6566 61.7157 22.5863C61.7001 22.5159 61.7051 22.4426 61.7301 22.375C61.8402 22.1106 61.9064 21.9453 65.7623 21.9453C70.2682 21.9453 77.385 22.2097 77.4622 22.2097C77.5459 22.2153 77.6245 22.2526 77.6818 22.314C77.739 22.3754 77.7708 22.4563 77.7706 22.5402V29.7342C77.772 29.7777 77.7639 29.8209 77.7467 29.8609C77.7296 29.9009 77.7039 29.9366 77.6715 29.9656C77.6425 29.998 77.6068 30.0237 77.5668 30.0408C77.5268 30.058 77.4836 30.0661 77.4401 30.0647C77.374 30.0647 70.7639 29.8885 66.258 29.8885C64.9053 29.8192 63.5491 29.8634 62.2038 30.0207C62.1525 30.0456 62.0946 30.0534 62.0386 30.0427ZM66.258 29.1834C70.191 29.1834 75.7105 29.3156 77.1206 29.3597V22.8487C75.6884 22.8487 69.7173 22.5843 65.7623 22.5843C64.6594 22.5554 63.5557 22.5922 62.4572 22.6945C62.8208 23.9394 62.5784 27.3876 62.4572 29.3046C62.953 29.2605 64.0216 29.2164 66.258 29.2164V29.1834Z" fill="#214168"/>
<g style="mix-blend-mode:multiply">
<path d="M71.0723 24.8872C68.1969 24.755 65.2774 24.755 62.3359 24.8872C62.3359 26.9915 62.0494 29.7236 62.0494 29.7236C62.5342 29.327 77.4731 29.7236 77.4731 29.7236V25.416C75.3248 25.1627 73.1985 24.9754 71.0723 24.8872Z" fill="#006282"/>
</g>
<path d="M74.6417 28.4676C75.0207 32.2587 76.3425 35.8945 78.4866 39.0438C83.995 46.998 96.5543 50.0607 105.665 50.4793C112.991 50.7878 121.695 48.2099 125.165 41.1481C129.957 31.4091 120.824 20.2931 112.782 15.8974C105.489 11.8983 94.395 10.3229 85.6586 12.8788C82.7429 13.7167 80.064 15.2259 77.8366 17.2855C75.1154 20.1279 74.3883 24.7439 74.6417 28.4676ZM81.5163 18.8609C83.3989 17.1209 85.6626 15.8457 88.1264 15.1372C95.7603 13.1658 103.852 14.0676 110.865 17.6711C117.619 21.3618 125.297 30.7041 121.276 38.8896C118.357 44.8167 111.041 46.976 104.894 46.7226C97.2483 46.3921 86.7162 43.8031 82.0671 37.1159C80.2646 34.473 79.1547 31.4197 78.8391 28.2363C78.5747 25.0965 79.1807 21.2296 81.4722 18.8609H81.5163Z" fill="#006590"/>
<path d="M106.789 50.8319H105.61C95.9595 50.4243 83.6867 47.1633 78.1782 39.2532C75.9881 36.0615 74.646 32.3651 74.2783 28.5117C74.1791 26.727 74.113 20.6347 77.5833 17.1093C79.8397 14.9893 82.5709 13.4405 85.5485 12.5924C88.5929 11.7212 91.7464 11.2908 94.9128 11.3144C101.167 11.271 107.337 12.7493 112.892 15.622C117.465 18.1844 121.297 21.8844 124.019 26.3634C126.223 30.0431 128.206 35.6286 125.419 41.3023C122.014 48.3311 113.531 50.8319 106.789 50.8319ZM94.9128 11.9644C91.8145 11.9401 88.7284 12.3555 85.7468 13.1983C82.8681 14.0183 80.2251 15.5097 78.035 17.55C74.73 20.855 74.7961 26.738 74.8952 28.4456C75.27 32.1831 76.5852 35.7647 78.7181 38.8566C84.0833 46.5684 96.1467 49.7522 105.632 50.1488C106.014 50.1488 106.4 50.1488 106.789 50.1488C113.333 50.1488 121.497 47.7361 124.824 40.9718C127.49 35.5515 125.551 30.1973 123.458 26.6499C120.797 22.2723 117.052 18.6559 112.584 16.1508C107.119 13.3471 101.055 11.9106 94.9128 11.9644ZM105.798 47.0641H104.806C96.6866 46.7116 86.3528 43.9794 81.6706 37.3142C79.8258 34.6211 78.6892 31.5066 78.3655 28.2583C78.1342 24.2482 79.1918 20.6567 81.1748 18.6406C83.0876 16.8665 85.3891 15.5649 87.8951 14.8398C90.451 14.0984 93.0999 13.7273 95.7611 13.7381C101.062 13.6899 106.293 14.942 110.997 17.3847C114.841 19.5488 118.066 22.6631 120.362 26.4295C122.202 29.5363 123.887 34.2405 121.53 39.0328C118.566 44.9599 111.471 47.0641 105.798 47.0641ZM95.8272 14.4212C93.2205 14.3983 90.6238 14.747 88.1154 15.4567C85.7132 16.1421 83.5081 17.3882 81.6816 19.0923C78.9274 21.8796 78.9825 26.8041 79.0596 28.2143C79.3791 31.337 80.4693 34.3315 82.2324 36.9286C86.7383 43.3955 96.8408 46.0616 104.806 46.3921H105.775C111.284 46.3921 118.092 44.376 120.88 38.6803C123.248 33.8659 121.629 23.9287 110.612 17.9025C106.038 15.5626 100.965 14.3679 95.8272 14.4212Z" fill="#214168"/>
<path d="M74.6417 27.0906C75.0225 30.8812 76.3441 34.5167 78.4866 37.6668C83.9951 45.621 96.5653 48.6837 105.665 49.0913C112.991 49.3998 121.695 46.8218 125.165 39.771C129.957 30.0321 120.824 18.9161 112.782 14.5094C105.489 10.5102 94.3839 8.93483 85.6586 11.5018C82.7407 12.3343 80.0606 13.8442 77.8366 15.9085C75.0934 18.6848 74.3773 23.3559 74.6417 27.0906ZM81.5163 17.4839C83.3932 15.7361 85.6589 14.4598 88.1264 13.7602C95.7589 11.7844 103.851 12.6822 110.865 16.2831C117.619 19.9847 125.297 29.316 121.276 37.5016C118.357 43.4286 111.041 45.5989 104.894 45.3345C97.2483 45.0151 86.7162 42.4151 82.0671 35.7389C80.2646 33.0919 79.1547 30.0351 78.8392 26.8482C78.5747 23.7195 79.1807 19.7975 81.4612 17.4839H81.5163Z" fill="#006590"/>
<path d="M106.778 49.4441C106.382 49.4441 105.985 49.4441 105.599 49.4441C95.9485 49.0365 83.6758 45.7865 78.1673 37.8764C75.9785 34.6799 74.6366 30.9803 74.2674 27.1239C73.9919 22.3646 75.2368 18.1011 77.5724 15.7215C79.8346 13.6094 82.5638 12.0617 85.5376 11.2046C88.576 10.3429 91.7219 9.91997 94.8799 9.94863C101.133 9.90178 107.303 11.3763 112.859 14.2452C117.432 16.8119 121.265 20.5155 123.986 24.9977C126.19 28.6773 128.173 34.2518 125.386 39.9365C121.948 46.9433 113.509 49.4441 106.778 49.4441ZM94.9019 10.5766C91.8064 10.5503 88.7231 10.9695 85.7469 11.8215C82.8665 12.6316 80.2221 14.12 78.0351 16.1621C74.7301 19.4672 74.7962 25.3502 74.8953 27.0688C75.2773 30.7994 76.5795 34.3767 78.6851 37.4798C84.0503 45.1916 96.1138 48.3644 105.61 48.7721H106.712C113.245 48.7721 121.42 46.3594 124.747 39.595C127.413 34.1857 125.474 28.8205 123.381 25.2731C120.722 20.8915 116.976 17.2711 112.507 14.763C107.062 11.9685 101.022 10.5322 94.9019 10.5766ZM105.787 45.6873H104.795C96.6757 45.3458 86.3418 42.6026 81.6597 35.9484C79.8136 33.256 78.6768 30.1412 78.3546 26.8926C78.1233 22.8824 79.1809 19.2799 81.1639 17.2748C83.0682 15.4926 85.3673 14.1864 87.8732 13.463C90.4293 12.723 93.0781 12.3521 95.7392 12.3613C101.046 12.3119 106.284 13.56 110.998 15.9969C114.841 18.161 118.066 21.2753 120.362 25.0417C122.202 28.1485 123.887 32.8527 121.53 37.645C118.555 43.5721 111.46 45.6873 105.787 45.6873ZM95.8053 13.0334C93.1986 13.0102 90.6018 13.3589 88.0935 14.0689C85.6906 14.7583 83.4856 16.0081 81.6597 17.7155C78.9055 20.5028 78.9605 25.4273 79.0377 26.8265C79.3561 29.9581 80.4587 32.959 82.2436 35.5518C86.7495 42.0077 96.8519 44.6738 104.817 45.0043C105.137 45.0043 105.467 45.0043 105.787 45.0043C111.295 45.0043 118.103 42.9882 120.891 37.2925C123.259 32.4671 121.64 22.5409 110.623 16.5147C106.04 14.1662 100.954 12.9712 95.8053 13.0334Z" fill="#214168"/>
<path d="M88.0383 13.7603C95.6708 11.7845 103.763 12.6823 110.777 16.2832C117.53 19.9848 125.209 29.3161 121.188 37.5016C118.269 43.4287 110.953 45.599 104.806 45.3346C97.1602 45.0151 86.6281 42.4152 81.979 35.7389C80.1764 33.092 79.0666 30.0352 78.751 26.8483C78.5748 23.7196 79.1807 19.7976 81.4612 17.484C83.3287 15.7407 85.5826 14.4647 88.0383 13.7603Z" fill="#7D7E81"/>
<path d="M105.786 45.7968H104.784C96.6424 45.4552 86.2755 42.701 81.6485 36.0028C79.7967 33.2928 78.6598 30.1588 78.3434 26.8918C78.112 22.8596 79.1807 19.18 81.1857 17.197C83.109 15.4067 85.4261 14.0934 87.9501 13.3631C90.5136 12.6224 93.1698 12.2514 95.8382 12.2614C101.112 12.2271 106.316 13.4788 110.997 15.908C114.865 18.0704 118.106 21.198 120.406 24.9859C122.257 28.1147 123.964 32.863 121.585 37.6883C118.632 43.6705 111.493 45.7968 105.786 45.7968ZM95.8051 13.1428C93.2203 13.1226 90.6458 13.4713 88.1594 14.1784C85.7746 14.857 83.5847 16.0916 81.7696 17.7809C79.0485 20.5461 79.1036 25.4045 79.1807 26.8257C79.5081 29.9296 80.5981 32.9043 82.3535 35.485C86.8374 41.9188 96.9068 44.5629 104.85 44.9044H105.808C111.251 44.9044 118.048 42.9103 120.813 37.2917C124.625 29.5799 117.321 20.3368 110.59 16.6572C106.02 14.3037 100.945 13.0976 95.8051 13.1428Z" fill="#453F40"/>
<g style="mix-blend-mode:screen">
<path d="M114.909 31.3873C110.481 27.8716 105.678 24.8566 100.587 22.3975C94.9376 19.6967 88.9974 17.6526 82.8826 16.3052C84.4653 15.1787 86.2219 14.319 88.0825 13.7603C95.7151 11.7845 103.808 12.6823 110.821 16.2832C117.509 19.9408 125.066 29.1178 121.331 37.2152C119.161 35.2652 117.189 33.2051 114.909 31.3873Z" fill="#7D7E81"/>
</g>
<path d="M60.5844 17.3187C58.3515 15.2609 55.6695 13.7521 52.7514 12.912C44.0261 10.3561 32.9762 11.9315 25.672 15.9306C17.6407 20.3374 8.4967 31.4423 13.289 41.1813C16.7704 48.2431 25.4737 50.821 32.7889 50.5125C41.8998 50.1269 54.426 47.0312 59.9675 39.077C62.1163 35.9301 63.4385 32.293 63.8124 28.5008C64.0217 24.7441 63.3056 20.128 60.5844 17.3187ZM59.659 28.2364C59.3449 31.4219 58.2307 34.4764 56.4201 37.116C51.7709 43.8033 41.2498 46.3922 33.5931 46.7227C27.4457 46.9761 20.1415 44.8168 17.2221 38.8897C13.1899 30.7042 20.8686 21.3619 27.622 17.6713C34.6472 14.0567 42.7571 13.1547 50.4048 15.1374C52.8707 15.8408 55.1355 17.1167 57.015 18.8611C59.2183 21.2297 59.8353 25.0966 59.659 28.2364Z" fill="#006590"/>
<path d="M31.6761 50.8321C24.9448 50.8321 16.5169 48.3313 13.0576 41.2915C10.2593 35.6178 12.2644 30.0323 14.4458 26.3526C17.1678 21.8736 21.0006 18.1736 25.5728 15.6112C31.1124 12.751 37.2629 11.2767 43.4972 11.3146C46.6559 11.2883 49.802 11.715 52.8395 12.5816C55.8192 13.4324 58.5534 14.9808 60.8157 17.0985C63.1623 19.4781 64.4072 23.7086 64.1208 28.5009C63.7436 32.3539 62.3982 36.0489 60.2098 39.2424C54.7014 47.1525 42.4286 50.4135 32.7778 50.8211L31.6761 50.8321ZM43.5523 11.9646C37.4219 11.9247 31.3732 13.3726 25.9253 16.1841C21.4141 18.6907 17.6326 22.3279 14.9525 26.7382C12.8593 30.2857 10.9204 35.6399 13.5864 41.0602C16.9135 47.7694 25.066 50.1821 31.6761 50.1821C32.058 50.1821 32.4253 50.1821 32.7778 50.1821C42.2633 49.7525 54.3268 46.5686 59.692 38.8568C61.8132 35.7617 63.1169 32.1803 63.4818 28.4458C63.625 26.7382 63.625 20.8773 60.32 17.5502C58.1299 15.5099 55.4869 14.0185 52.6082 13.1985C49.6445 12.3602 46.5772 11.9448 43.4972 11.9646H43.5523ZM32.6126 47.0643C26.9389 47.0643 19.844 44.9601 16.9246 39.033C14.5669 34.2407 16.2635 29.5365 18.0923 26.4298C20.3865 22.6578 23.6159 19.5423 27.4677 17.3849C32.1405 14.966 37.3322 13.722 42.5938 13.7604C45.2549 13.7511 47.9037 14.1221 50.4599 14.8621C52.9625 15.5875 55.2603 16.8893 57.1692 18.6629C59.1632 20.679 60.2098 24.2705 59.9785 28.2806C59.6647 31.5311 58.5272 34.648 56.6734 37.3364C52.0353 43.9466 41.7015 46.7338 33.5931 47.0864L32.6126 47.0643ZM42.5938 14.4214C37.4439 14.3727 32.359 15.5749 27.7762 17.9247C16.7593 23.984 15.1508 33.9212 17.5084 38.7356C20.2957 44.3983 27.1372 46.4474 32.6126 46.4474H33.5821C41.5472 46.1169 51.6497 43.4508 56.1556 36.9839C57.9233 34.3891 59.014 31.3935 59.3285 28.2696C59.4056 26.8374 59.4607 21.9349 56.7064 19.1476C54.8799 17.4435 52.6748 16.1974 50.2726 15.512C47.7776 14.7865 45.1922 14.4193 42.5938 14.4214Z" fill="#214168"/>
<path d="M60.5953 15.931C58.3655 13.8688 55.6824 12.3594 52.7623 11.5242C44.037 8.95729 32.932 10.5327 25.6829 14.5318C17.6516 18.9165 8.54065 30.0436 13.2999 39.7715C16.7813 46.8222 25.4846 49.4002 32.7998 49.0917C41.9107 48.7061 54.4369 45.6214 59.9784 37.6672C62.1259 34.5197 63.448 30.8829 63.8233 27.091C64.0326 23.3563 63.3165 18.6852 60.5953 15.931ZM59.6699 26.8487C59.3544 30.0355 58.2445 33.0923 56.442 35.7393C51.7818 42.4155 41.2607 45.0155 33.604 45.335C27.4566 45.5994 20.1524 43.4291 17.233 37.502C13.2008 29.3165 20.8795 19.9852 27.6329 16.2835C34.6564 12.6754 42.7618 11.7774 50.4047 13.7606C52.8733 14.4574 55.1397 15.7341 57.0148 17.4843C59.2182 19.7979 59.8462 23.7199 59.6699 26.8487Z" fill="#006590"/>
<path d="M31.6761 49.4437C24.9448 49.4437 16.5169 46.9428 13.0576 39.9141C10.2593 34.2294 12.2644 28.6548 14.4458 24.9752C17.1675 20.4931 21.0001 16.7894 25.5728 14.2227C31.1289 11.3539 37.2994 9.87932 43.5523 9.92617C46.7103 9.8975 49.8563 10.3204 52.8946 11.1821C55.8706 12.0419 58.6028 13.5891 60.8708 15.699C63.2174 18.0786 64.4623 22.3091 64.1759 27.1015C63.7972 30.9575 62.452 34.6557 60.2649 37.8539C54.7565 45.764 42.4837 49.014 32.8329 49.4216C32.4253 49.4437 32.0287 49.4437 31.6761 49.4437ZM43.5523 10.5762C37.4223 10.5397 31.3744 11.9874 25.9253 14.7956C21.4559 17.3037 17.7103 20.9241 15.0517 25.3057C12.9585 28.8421 11.0195 34.2073 13.6856 39.6276C16.9245 46.381 25.066 48.7716 31.6761 48.7716H32.7778C42.2633 48.364 54.3268 45.1911 59.692 37.4793C61.8022 34.3786 63.1048 30.8001 63.4818 27.0684C63.581 25.3498 63.6471 19.4998 60.353 16.1617C58.1623 14.1247 55.5192 12.6371 52.6412 11.8211C49.6721 10.9715 46.5964 10.5523 43.5082 10.5762H43.5523ZM32.6236 45.6869C26.9499 45.6869 19.855 43.5717 16.9356 37.6446C14.578 32.8523 16.2746 28.1481 18.1034 25.0413C20.4007 21.2719 23.6293 18.1571 27.4787 15.9965C32.1572 13.5978 37.3475 12.3693 42.6049 12.416C45.266 12.4067 47.9147 12.7777 50.4709 13.5177C52.9768 14.241 55.2759 15.5472 57.1802 17.3295C59.1742 19.3346 60.2208 22.9371 59.9895 26.9472C59.6724 30.197 58.5352 33.313 56.6844 36.0031C52.0463 42.6132 41.7125 45.4005 33.549 45.742L32.6236 45.6869ZM42.6049 13.0329C37.4506 12.9925 32.3643 14.2102 27.7872 16.5804C16.7703 22.6066 15.1508 32.5328 17.5195 37.3582C20.3067 43.0098 27.1482 45.07 32.6236 45.07C32.9431 45.07 33.2736 45.07 33.5931 45.07C41.5583 44.7395 51.6607 42.0734 56.1666 35.6175C57.9398 33.0214 59.0309 30.0208 59.3395 26.8921C59.5598 23.0693 58.5793 19.6541 56.7175 17.7812C54.8916 16.0738 52.6865 14.824 50.2836 14.1346C47.7892 13.4054 45.2037 13.0344 42.6049 13.0329Z" fill="#214168"/>
<path d="M50.4049 13.7596C42.7722 11.7848 34.6801 12.6826 27.666 16.2825C20.9127 19.9841 13.234 29.3154 17.2661 37.5009C20.1856 43.428 27.4898 45.5983 33.6372 45.3339C41.349 45.0145 51.815 42.4145 56.4751 35.7382C58.2777 33.0913 59.3875 30.0345 59.7031 26.8476C59.8794 23.7189 59.2734 19.7969 56.9819 17.4833C55.1162 15.7376 52.8617 14.4612 50.4049 13.7596Z" fill="#7D7E81"/>
<path d="M32.6236 45.7967C26.9169 45.7967 19.7779 43.6595 16.8364 37.6883C14.4568 32.8629 16.1644 28.1147 18.0152 24.9859C20.3145 21.198 23.556 18.0704 27.4236 15.908C32.1134 13.4803 37.3242 12.2325 42.6049 12.2724C45.2768 12.2632 47.9365 12.6341 50.504 13.3741C53.0268 14.0994 55.3414 15.4134 57.2573 17.208C59.2734 19.2351 60.331 22.8596 60.0997 26.9028C59.7884 30.1709 58.6511 33.3062 56.7946 36.0137C52.1345 42.712 41.7676 45.4662 33.6592 45.8077L32.6236 45.7967ZM42.6049 13.1427C37.4711 13.1045 32.4049 14.3143 27.8423 16.6681C21.111 20.3478 13.8178 29.5689 17.6186 37.3027C20.3839 42.9213 27.1813 44.9154 32.6236 44.9154H33.5821C41.5252 44.5739 51.5946 41.9298 56.0785 35.496C57.8284 32.9112 58.9075 29.9316 59.2183 26.8257C59.4386 23.0249 58.4692 19.6427 56.6293 17.7808C54.8143 16.0916 52.6244 14.857 50.2396 14.1783C47.7568 13.4723 45.186 13.1236 42.6049 13.1427Z" fill="#453F40"/>
<g style="mix-blend-mode:screen">
<path d="M23.5015 31.3866C27.9279 27.8691 32.7314 24.854 37.8234 22.3968C43.4687 19.6961 49.4052 17.652 55.5165 16.3045C53.9622 15.184 52.2356 14.3244 50.4046 13.7596C42.772 11.7848 34.6799 12.6826 27.6658 16.2825C20.9896 19.9401 13.421 29.1171 17.1558 37.2145C19.249 35.2645 21.221 33.2044 23.5015 31.3866Z" fill="#7D7E81"/>
</g>
</g>
</svg>
