<svg width="186" height="176" viewBox="0 0 186 176" fill="none" xmlns="http://www.w3.org/2000/svg">
<g opacity="0.7">
<path d="M161.158 123.208C161.158 123.208 165.279 129.913 170.605 122.352C175.931 114.791 172.962 104.891 167.112 103.93C161.263 102.97 159.447 109.989 159.447 109.989C159.319 96.4339 158.251 82.9037 156.251 69.4959C148.917 64.013 141.828 50.5152 141.828 50.5152C141.828 50.5152 142.753 65.8464 139.541 66.0734C131.089 66.0734 122.62 50.7422 122.62 50.7422C122.62 50.7422 116.893 62.1795 113.697 61.2191C110.502 60.2587 115.077 50.0088 115.077 50.0088C88.7622 63.0526 86.2303 59.6127 91.0497 53.6583C60.1601 68.0815 55.1137 66.0211 63.1111 57.1506C43.9034 73.8439 28.3277 73.6168 28.3277 73.6168C26.5313 79.3081 26.0653 85.3358 26.9657 91.2356C27.6907 98.5649 27.3792 105.96 26.0402 113.202C21.0113 104.96 11.6344 111.369 11.4074 119.838C11.1804 128.307 19.4048 135.85 25.5862 132.881C26.9657 149.575 47.5529 165.255 47.5529 165.255C47.5529 165.255 83.9254 188.252 134.721 163.195C163.306 147.532 161.158 123.208 161.158 123.208Z" fill="#FBD0B4"/>
<path d="M87.3127 175.47C62.8665 175.47 47.3781 165.831 47.2384 165.744C46.3653 165.081 27.0004 150.168 25.0796 133.702C21.954 134.802 18.095 133.562 15.109 130.507C12.3268 127.649 10.7834 123.809 10.8135 119.82C10.9706 113.953 15.3535 108.802 20.1729 108.802C21.2602 108.826 22.3269 109.104 23.2879 109.613C24.2489 110.123 25.0777 110.849 25.7082 111.735C26.8465 104.986 27.0755 98.1153 26.3892 91.3054C25.4675 85.3173 25.9456 79.197 27.7861 73.4247L27.9258 73.0406H28.3275C28.991 73.0406 44.1477 72.8659 62.7268 56.714L63.53 57.5347C60.0377 61.3064 60.1774 62.6509 60.352 63.0351C60.5266 63.4192 61.5569 63.6288 62.0982 63.6288C64.9793 63.6288 72.2957 61.8826 90.7526 53.1518L93.0576 52.2438L91.5035 54.1646C89.4081 56.7664 89.6176 57.6569 89.7573 57.9887C89.897 58.3204 90.8574 58.5125 91.3638 58.5125C93.8957 58.5125 100.095 56.9759 114.85 49.642L116.282 48.9261L115.635 50.3754C114.692 52.4883 112.457 58.3728 113.383 60.3285C113.426 60.4405 113.494 60.5413 113.581 60.623C113.669 60.7047 113.774 60.7652 113.889 60.8H114.116C116.229 60.8 120.158 54.4964 122.149 50.5326L122.638 49.5722L123.161 50.5151C123.249 50.6723 131.56 65.5495 139.593 65.5495C141.129 65.4448 141.723 57.7267 141.339 50.6024L141.182 47.9482L142.421 50.3056C142.421 50.4278 149.546 63.751 156.67 69.0942L156.862 69.2339V69.4609C158.727 81.9934 159.788 94.6323 160.04 107.3C160.588 106.148 161.44 105.168 162.505 104.466C163.57 103.764 164.807 103.368 166.082 103.319C166.471 103.285 166.863 103.285 167.252 103.319C168.568 103.614 169.786 104.241 170.792 105.139C171.797 106.038 172.556 107.178 172.997 108.453C173.878 110.791 174.168 113.311 173.839 115.788C173.51 118.265 172.572 120.622 171.111 122.649C169.365 125.198 167.426 126.49 165.506 126.49C164.09 126.417 162.761 125.79 161.804 124.744C161.664 130.559 159.324 150.308 135.07 163.614C120.28 171.201 103.934 175.259 87.3127 175.47ZM26.0749 132.008V132.829C27.4195 149.086 47.6225 164.644 47.8146 164.801C48.0067 164.958 63.1808 174.318 87.2429 174.318C103.648 174.134 119.786 170.147 134.389 162.671C148.97 154.691 155.343 144.406 158.015 137.177C159.784 132.738 160.633 127.985 160.512 123.208L160.285 120.815L161.559 122.858C161.969 123.528 162.524 124.096 163.183 124.523C163.841 124.949 164.588 125.221 165.366 125.321C166.903 125.321 168.474 124.203 170.028 121.968C171.377 120.099 172.243 117.924 172.547 115.639C172.852 113.354 172.587 111.029 171.774 108.872C171.404 107.781 170.763 106.801 169.911 106.026C169.059 105.25 168.024 104.703 166.903 104.437C161.664 103.563 159.918 110.024 159.918 110.094L158.8 114.442V109.937C158.665 96.4932 157.609 83.0746 155.64 69.7753C150.07 65.4797 144.744 56.8886 142.439 52.8724C142.596 57.849 142.439 66.3877 139.505 66.5972C131.91 66.5972 124.576 55.2646 122.568 51.8771C121.118 54.6186 117.015 61.8477 113.994 61.8477C113.81 61.8456 113.628 61.8162 113.453 61.7604C113.18 61.6809 112.928 61.5428 112.713 61.3558C112.499 61.1689 112.328 60.9375 112.213 60.6778C111.2 58.53 112.894 53.6931 113.872 51.1961C102.557 56.7314 94.9609 59.5253 91.1717 59.5253C89.7923 59.5253 88.9017 59.1237 88.5176 58.3379C88.3596 57.783 88.3374 57.1982 88.4529 56.633C88.5684 56.0677 88.8181 55.5385 89.1811 55.0901C75.3166 61.481 66.1667 64.7114 61.9934 64.7114C60.5092 64.7114 59.5488 64.2923 59.1821 63.4541C59.0344 62.9699 59.0002 62.4582 59.0819 61.9586C59.1637 61.459 59.3593 60.9849 59.6536 60.573C43.8159 72.9358 30.9991 74.0359 28.6068 74.1407C26.9922 79.6463 26.5813 85.4348 27.402 91.1133C28.1726 98.5299 27.9023 106.018 26.5988 113.359L26.3019 114.791L25.5511 113.534C25.0432 112.529 24.2779 111.676 23.3332 111.062C22.3884 110.449 21.298 110.097 20.1729 110.042C16.017 110.042 12.1056 114.756 11.9659 119.942C11.9397 123.619 13.364 127.157 15.9297 129.791C18.7934 132.724 22.4953 133.824 25.3241 132.445L26.0749 132.008Z" fill="#B56A4D"/>
<path d="M183.439 74.9438C180.366 50.9167 166.292 23.1178 151.868 21.0574C139.174 3.89261 92.1671 -15.3151 36.6218 25.1783C-7.0322 59.8396 -4.55265 115.786 11.9136 142.887C22.5652 157.991 43.1524 166.582 47.6051 165.203C47.6051 165.203 27.0179 149.487 25.6384 132.829C19.4745 135.797 11.2326 128.254 11.4596 119.785C11.6866 111.316 21.0635 104.908 26.1099 113.15C27.4484 105.907 27.7541 98.5115 27.0179 91.1831C26.1175 85.2822 26.5896 79.2532 28.3974 73.5643C28.3974 73.5643 43.9556 73.7914 63.1809 57.0981C55.166 66.021 60.1949 68.0814 91.1194 53.6058C86.3175 59.5602 88.8319 63.0001 115.147 49.9563C115.147 49.9563 110.554 60.2412 113.767 61.1666C116.98 62.0921 122.69 50.6897 122.69 50.6897C122.69 50.6897 131.159 66.021 139.628 66.021C142.841 65.794 141.915 50.4627 141.915 50.4627C141.915 50.4627 149.005 63.9605 156.321 69.4434C158.288 82.8709 159.321 96.4187 159.412 109.989C159.412 109.989 161.245 103.005 167.095 103.93C172.944 104.856 175.826 114.809 170.587 122.352C165.349 129.895 161.158 123.208 161.158 123.208C161.158 123.208 163.323 147.532 134.721 163.195C140.221 167.997 163.48 161.326 173.975 142.241C184.469 123.155 186.53 99.0234 183.439 74.9438Z" fill="#765857"/>
<path d="M46.383 166.094C39.8349 166.094 21.0637 157.241 11.2852 143.394C-5.05886 116.486 -8.44641 60.2068 36.133 24.655C57.8553 8.83479 80.8347 0.470703 102.592 0.470703C126.514 0.470703 144.709 10.4587 152.253 20.4467C164.336 22.5596 180.366 45.2597 184.12 74.9444C187.612 101.486 184.225 124.85 174.551 142.538C165.908 158.254 149.232 165.413 140.152 165.413C138.046 165.542 135.962 164.924 134.267 163.667L133.516 163.021L134.389 162.532C148.935 154.569 155.343 144.302 157.98 137.108C159.742 132.697 160.586 127.973 160.46 123.226L160.198 120.362L161.717 122.807C162.125 123.452 162.669 124.001 163.312 124.414C163.954 124.828 164.679 125.095 165.436 125.199C166.92 125.199 168.474 124.099 170.029 121.916C171.36 120.059 172.216 117.903 172.52 115.638C172.824 113.373 172.569 111.068 171.775 108.925C171.415 107.848 170.787 106.881 169.95 106.114C169.113 105.347 168.094 104.806 166.99 104.542C161.752 103.704 160.128 110.06 160.11 110.112L158.748 115.351V109.972C158.616 96.5292 157.566 83.1107 155.605 69.8107C150.192 65.6548 145.041 57.4653 142.631 53.3095C142.754 58.3559 142.509 66.4755 139.576 66.6851C132.032 66.6851 124.803 55.6842 122.638 52.1046C121.031 55.1429 117.085 61.9355 114.064 61.9355C113.879 61.9632 113.691 61.9632 113.505 61.9355C113.214 61.8499 112.945 61.7027 112.716 61.5038C112.487 61.3049 112.304 61.0591 112.178 60.783C111.2 58.6702 112.737 54.0254 113.732 51.476C102.557 56.924 95.0135 59.7004 91.3117 59.7004C89.8798 59.7004 88.9543 59.2639 88.5527 58.4432C88.3856 57.9316 88.3428 57.3876 88.4279 56.8562C88.5129 56.3248 88.7233 55.8213 89.0416 55.3874C75.3343 61.691 66.3416 64.8865 62.1333 64.8865C60.5967 64.8865 59.6189 64.4325 59.2173 63.5594C59.0763 63.1396 59.0283 62.6942 59.0766 62.254C59.1248 61.8138 59.2681 61.3894 59.4966 61.01C43.9558 72.9887 31.4009 74.1761 28.8341 74.2983C27.2354 79.7651 26.8304 85.5117 27.6467 91.1487C28.3847 98.5598 28.0672 106.038 26.7038 113.36L26.372 115.106L25.4465 113.622C24.9589 112.629 24.2175 111.784 23.2975 111.17C22.3775 110.557 21.3117 110.198 20.2081 110.129C16.1046 110.129 12.2456 114.809 12.1233 119.925C12.1036 121.734 12.4404 123.528 13.1145 125.206C13.7887 126.884 14.7869 128.412 16.0522 129.704C18.881 132.603 22.5305 133.668 25.3243 132.323L26.2149 131.904V132.899C27.5419 149.104 47.6926 164.627 47.9021 164.784L48.9673 165.587L47.6926 165.972C47.2644 166.077 46.8232 166.118 46.383 166.094ZM102.592 1.95492C81.1316 1.95492 58.4315 10.2143 36.9537 25.8598C-6.94471 60.783 -3.64447 116.206 12.5075 142.66C21.6399 155.652 38.9269 164.138 45.7369 164.68C41.1096 160.873 26.7038 147.951 24.9576 133.86C21.7971 134.907 17.973 133.615 15.0045 130.594C12.1897 127.719 10.632 123.844 10.674 119.821C10.8312 113.884 15.249 108.698 20.1382 108.698C21.2004 108.714 22.2447 108.973 23.1918 109.454C24.1389 109.935 24.9638 110.626 25.6037 111.474C26.7089 104.815 26.9203 98.0383 26.2323 91.3234C25.3148 85.3108 25.7989 79.1675 27.6467 73.3728L27.8213 72.9363H28.2928C28.9563 72.9363 44.0082 72.7442 62.6223 56.6272L63.5827 57.605C60.0903 61.4466 60.2824 62.7038 60.4221 63.0007C60.5618 63.2975 61.173 63.507 62.1683 63.507C65.0494 63.507 72.3309 61.7609 90.7704 53.0301L93.4594 51.7728L91.6085 54.0778C89.9671 56.1033 89.6179 57.3256 89.8624 57.7796C90.1068 58.2336 90.5608 58.2511 91.3815 58.2511C93.896 58.2511 100.008 56.7145 114.815 49.3632L116.561 48.525L115.793 50.2711C114.501 53.1698 112.737 58.4257 113.523 60.137C113.562 60.2344 113.624 60.3214 113.703 60.3911C113.781 60.4607 113.875 60.5112 113.977 60.5386H114.012C115.95 60.5386 119.809 54.5842 121.939 50.341L122.516 49.1885L123.162 50.3235C123.249 50.4807 131.526 65.3056 139.488 65.3056C140.78 65.2008 141.549 58.3209 141.095 50.4632L140.903 47.2852L142.387 50.114C142.387 50.2362 149.476 63.542 156.601 68.8678L156.828 69.0424V69.3043C158.697 81.7012 159.752 94.2071 159.988 106.742C160.65 105.469 161.697 104.438 162.979 103.795C164.261 103.152 165.714 102.931 167.13 103.162C168.47 103.461 169.71 104.1 170.732 105.018C171.753 105.935 172.521 107.1 172.962 108.401C173.85 110.759 174.141 113.301 173.809 115.799C173.477 118.297 172.532 120.675 171.059 122.719C169.313 125.304 167.339 126.596 165.366 126.596C164.017 126.555 162.732 126.006 161.769 125.059C161.56 131.118 159.028 150.082 135.961 163.213C137.298 163.792 138.749 164.061 140.204 163.998C148.708 163.998 165.122 157.014 173.381 141.84C182.915 124.378 186.18 101.311 182.81 75.0666C179.772 51.5633 165.89 23.7819 151.816 21.7738H151.519L151.362 21.5468C144.081 11.7509 126.235 1.88509 102.592 1.88509V1.95492Z" fill="#4C1F2E"/>
<g style="mix-blend-mode:multiply" opacity="0.6">
<path d="M40.8824 129.076C40.8824 129.076 53.2976 127.958 64.6127 138.871L64.1587 135.205C64.1587 135.205 78.128 132.795 76.0326 112.889C75.404 107.022 71.7021 99.2512 65.5557 97.278C58.571 95.0778 52.669 99.9671 50.3466 106.009C49.003 109.456 48.2019 113.09 47.9718 116.783C47.9718 117.446 48.3036 124.588 48.7227 124.501C45.6757 125.118 42.9188 126.726 40.8824 129.076Z" fill="#FBD0B4"/>
</g>
<path d="M42.8733 128.22C43.1918 128.122 43.5195 128.058 43.8511 128.028C44.724 127.9 45.6061 127.848 46.4878 127.87C47.0466 127.87 47.6228 127.993 48.234 128.045C48.8971 128.087 49.5532 128.204 50.1897 128.394L52.2327 128.953C52.9312 129.163 53.5772 129.494 54.2582 129.774C54.9392 130.053 55.6028 130.385 56.2314 130.734L57.9776 131.904C58.5538 132.271 59.0951 132.655 59.6015 133.022C60.1079 133.388 60.492 133.842 60.8937 134.209C62.4652 135.728 63.4256 136.811 63.4256 136.811C63.4256 136.811 62.2207 135.973 60.527 134.663C60.0904 134.349 59.6713 133.964 59.1475 133.633C58.6236 133.301 58.0474 133.022 57.4886 132.655L55.7425 131.59C55.1313 131.258 54.4503 131.031 53.8217 130.734C53.1931 130.437 52.547 130.088 51.8835 129.861L49.9452 129.267C49.3405 129.065 48.7219 128.908 48.0943 128.796C47.5006 128.674 46.9418 128.534 46.3481 128.464C45.283 128.359 44.3924 128.202 43.7638 128.22C43.4672 128.202 43.1699 128.202 42.8733 128.22Z" fill="#B56A4D"/>
<path d="M74.1295 110.863C75.1319 116.545 74.0665 122.399 71.1261 127.364C68.8212 130.944 63.1462 133.545 58.903 132.236C54.1011 130.734 50.8707 125.845 49.8579 121.078C48.1117 112.941 50.242 101.364 57.9601 97.6096C64.7352 94.3093 71.161 100.456 73.204 107.021C73.6111 108.276 73.9205 109.56 74.1295 110.863Z" fill="#FEF6EC"/>
<path d="M74.1292 110.863C74.1292 110.863 74.1292 111.23 74.2689 111.928C74.6035 114.536 74.5387 117.18 74.0768 119.768C73.6971 121.804 73.0696 123.787 72.2084 125.67C71.9465 126.177 71.6496 126.683 71.3702 127.224C71.0908 127.766 70.6718 128.185 70.3051 128.691C69.9384 129.198 69.4145 129.582 68.9256 130.018C68.4367 130.455 67.8954 130.787 67.3191 131.118C64.9074 132.614 62.0308 133.173 59.2344 132.69C58.5266 132.509 57.8369 132.264 57.174 131.956C56.4964 131.605 55.843 131.208 55.2183 130.769C54.0031 129.833 52.9475 128.707 52.0926 127.434C50.3529 124.863 49.2843 121.898 48.9845 118.808C48.6619 115.747 48.815 112.655 49.4385 109.641C50.0073 106.704 51.198 103.924 52.9308 101.486C54.5668 99.1962 56.9304 97.5281 59.636 96.7539C60.8557 96.4604 62.1234 96.427 63.3569 96.6556C64.5903 96.8843 65.7618 97.3699 66.7953 98.081C68.5297 99.2371 70.0045 100.742 71.1258 102.499C72.0061 103.832 72.7049 105.277 73.2037 106.794C73.8498 109.361 74.1292 110.863 74.1292 110.863ZM74.1292 110.863C74.1292 110.863 73.8148 109.361 73.1513 106.812C72.6369 105.311 71.9265 103.884 71.0385 102.569C69.9093 100.838 68.4129 99.3775 66.6556 98.2905C65.6502 97.6421 64.5198 97.2123 63.3376 97.0288C62.1554 96.8453 60.9478 96.9123 59.7932 97.2254C57.2395 98.0422 55.0406 99.7052 53.5594 101.94C50.5082 106.949 49.2749 112.857 50.0671 118.668C50.2967 121.605 51.2702 124.436 52.8959 126.893C54.3868 129.306 56.7001 131.098 59.409 131.939C62.0243 132.475 64.7453 132.034 67.0572 130.699C67.616 130.385 68.1224 130.001 68.6462 129.686C69.1701 129.372 69.5717 128.883 70.0082 128.464C70.4448 128.045 70.8115 127.521 71.1083 127.05L71.9814 125.566C72.8945 123.724 73.5581 121.768 73.9545 119.751C74.239 118.183 74.3909 116.594 74.4085 115.001C74.4126 113.974 74.3542 112.948 74.2339 111.928C74.1815 111.23 74.1292 110.863 74.1292 110.863Z" fill="#9E5116"/>
<g style="mix-blend-mode:multiply" opacity="0.5">
<g style="mix-blend-mode:multiply" opacity="0.5">
<path d="M57.9948 97.6445C58.2392 97.5223 58.4837 97.4524 58.7107 97.3477C51.7261 100.84 49.7878 111.404 51.3419 118.843C52.2499 123.226 55.2184 127.731 59.6362 129.093C63.4952 130.298 68.6987 127.905 70.8116 124.623C73.5131 120.063 74.4976 114.688 73.588 109.466C73.3923 108.285 73.1182 107.118 72.7673 105.974C72.6244 105.516 72.4553 105.067 72.2609 104.629C72.6555 105.415 72.9826 106.233 73.2387 107.074C73.634 108.329 73.9317 109.614 74.1293 110.915C75.1317 116.598 74.0663 122.452 71.1259 127.417C68.821 130.996 63.1459 133.598 58.9028 132.288C54.1008 130.787 50.8704 125.897 49.8577 121.13C48.1988 112.941 50.2767 101.364 57.9948 97.6445Z" fill="#BBAC9A"/>
</g>
</g>
<path d="M50.6961 106.602C49.6937 106.409 48.7559 105.967 47.9688 105.318C47.1816 104.668 46.5703 103.83 46.191 102.883C46.191 102.883 45.9291 106.113 49.9103 108.628L50.6961 106.602Z" fill="#9E5116"/>
<path d="M49.8401 109.867C48.8118 109.793 47.8181 109.464 46.9492 108.909C46.0802 108.354 45.3634 107.591 44.8636 106.689C44.8636 106.689 45.0207 109.902 49.3163 111.928L49.8401 109.867Z" fill="#9E5116"/>
<g style="mix-blend-mode:screen">
<g style="mix-blend-mode:screen">
<path d="M69.3794 114.669C69.3794 114.477 69.135 114.669 69.135 114.757C69.0796 116.888 68.6907 118.997 67.9825 121.008C67.6203 122.088 67.0216 123.073 66.2301 123.891C65.4386 124.71 64.4743 125.342 63.4076 125.74C63.0059 125.932 62.6567 126.962 63.4076 127.05C65.8347 127.434 67.7555 125.303 68.7683 122.911C69.7463 120.277 69.9582 117.419 69.3794 114.669Z" fill="#3F634A"/>
</g>
</g>
<g style="mix-blend-mode:screen">
<g style="mix-blend-mode:screen">
<path d="M57.6284 123.156C56.3444 120.308 55.5928 117.248 55.4108 114.129C55.4108 113.902 55.1488 113.971 55.1139 114.129C54.5377 117.202 54.7123 121.602 56.8601 123.89C57.2617 124.274 57.803 123.61 57.6284 123.156Z" fill="#739963"/>
</g>
</g>
<g style="mix-blend-mode:multiply" opacity="0.6">
<path d="M143.47 125.443C138.48 125.734 133.597 127.008 129.102 129.193C124.607 131.377 120.588 134.429 117.277 138.173L117.487 134.122C117.487 134.122 101.387 132.672 102.068 110.723C102.26 104.262 105.822 95.4443 112.685 92.7552C120.368 89.7693 127.597 94.5887 130.74 100.945C132.552 104.586 133.766 108.495 134.337 112.522C134.442 113.238 134.651 121.078 134.163 121.043C137.661 121.457 140.929 123.002 143.47 125.443Z" fill="#FBD0B4"/>
</g>
<path d="M141.129 124.727C140.755 124.737 140.382 124.772 140.012 124.832C139.044 124.94 138.082 125.098 137.131 125.303C136.537 125.425 135.908 125.635 135.245 125.81C134.547 125.984 133.864 126.211 133.202 126.49L131.036 127.329C130.307 127.651 129.596 128.012 128.906 128.411C128.208 128.778 127.474 129.127 126.793 129.511L124.89 130.821L123.144 132.026C122.622 132.419 122.121 132.838 121.642 133.283C119.896 134.872 118.499 135.885 118.499 135.885C118.499 135.885 119.529 134.61 121.206 132.794C121.642 132.358 122.061 131.816 122.603 131.362L124.349 129.983L126.252 128.551C126.95 128.132 127.701 127.765 128.417 127.364C129.133 126.962 129.884 126.56 130.652 126.281L132.922 125.513C133.626 125.252 134.359 125.076 135.105 124.989C135.804 124.867 136.467 124.709 137.078 124.657C138.072 124.582 139.07 124.582 140.064 124.657C140.42 124.655 140.776 124.679 141.129 124.727Z" fill="#B56A4D"/>
<path d="M105.385 110.025C104.794 115.909 106.398 121.805 109.891 126.578C112.597 130.071 118.796 132.219 123.161 130.56C128.12 128.656 131.141 123.418 131.892 118.494C133.027 110.095 129.919 98.5002 121.415 95.2872C114.011 92.4759 107.708 99.2336 106.049 106.061C105.722 107.362 105.5 108.688 105.385 110.025Z" fill="#FEF6EC"/>
<path d="M105.386 110.024C105.386 110.024 105.386 110.426 105.386 111.159C105.33 112.218 105.33 113.278 105.386 114.337C105.473 115.001 105.578 115.751 105.682 116.572C105.787 117.393 106.014 118.318 106.294 119.174C106.869 121.225 107.746 123.178 108.895 124.971C110.217 127.11 112.196 128.764 114.535 129.686C117.061 130.814 119.9 131.03 122.568 130.297C125.316 129.268 127.606 127.293 129.029 124.727C130.591 122.082 131.417 119.068 131.421 115.996C131.561 112.942 131.196 109.885 130.338 106.951C129.558 104.099 128.183 101.445 126.304 99.163C124.515 97.0193 122.054 95.5426 119.32 94.9722C118.108 94.7587 116.867 94.7892 115.667 95.0621C114.468 95.335 113.335 95.8446 112.335 96.5612C110.578 97.7783 109.106 99.3632 108.022 101.206C107.178 102.619 106.532 104.14 106.101 105.729C105.822 107.056 105.682 108.138 105.56 108.854L105.386 110.024ZM105.386 110.024C105.386 110.024 105.386 109.64 105.56 108.907C105.735 108.173 105.787 107.16 106.067 105.781C106.47 104.175 107.099 102.635 107.935 101.206C109.032 99.3288 110.506 97.6996 112.265 96.4215C113.294 95.6355 114.47 95.0637 115.724 94.7398C116.978 94.4158 118.283 94.3465 119.564 94.5357C122.433 95.0516 125.046 96.5149 126.985 98.6915C129.053 100.999 130.569 103.745 131.421 106.724C132.35 109.771 132.769 112.951 132.661 116.136C132.583 119.355 131.662 122.498 129.989 125.251C129.171 126.607 128.146 127.827 126.951 128.865C126.325 129.34 125.672 129.777 124.995 130.175C124.328 130.536 123.626 130.828 122.899 131.048C120.053 131.746 117.052 131.432 114.413 130.157C113.205 129.587 112.078 128.859 111.061 127.992C110.607 127.538 110.205 127.084 109.786 126.613C109.367 126.141 109.122 125.6 108.773 125.093C107.674 123.254 106.828 121.275 106.259 119.209C105.997 118.283 105.84 117.463 105.682 116.59C105.525 115.717 105.508 115.018 105.42 114.337C105.351 113.279 105.351 112.217 105.42 111.159C105.368 110.426 105.386 110.024 105.386 110.024Z" fill="#9E5116"/>
<g style="mix-blend-mode:multiply" opacity="0.5">
<g style="mix-blend-mode:multiply" opacity="0.5">
<path d="M121.38 95.2866C121.129 95.1949 120.873 95.1191 120.612 95.0596C128.33 98.0455 131.089 108.627 130.111 116.31C129.865 118.688 129.003 120.96 127.609 122.901C126.216 124.843 124.34 126.387 122.166 127.381C119.993 127.999 117.688 127.984 115.523 127.337C113.358 126.691 111.422 125.44 109.943 123.732C106.746 119.354 105.278 113.951 105.822 108.557C105.925 107.328 106.117 106.109 106.398 104.908C106.515 104.431 106.654 103.959 106.817 103.494C106.473 104.326 106.192 105.185 105.979 106.06C105.664 107.363 105.453 108.688 105.35 110.024C104.759 115.909 106.363 121.804 109.856 126.578C112.562 130.07 118.761 132.218 123.126 130.559C128.085 128.656 131.106 123.417 131.857 118.493C132.957 110.094 129.849 98.4995 121.38 95.2866Z" fill="#BBAC9A"/>
</g>
</g>
<path d="M129.814 103.861C130.849 103.585 131.8 103.058 132.583 102.327C133.366 101.596 133.956 100.684 134.302 99.6699C134.302 99.6699 134.843 102.918 130.81 105.781L129.814 103.861Z" fill="#9E5116"/>
<path d="M130.984 107.179C132.056 107.03 133.074 106.622 133.951 105.989C134.827 105.355 135.536 104.517 136.013 103.547C136.013 103.547 136.101 106.83 131.718 109.204L130.984 107.179Z" fill="#9E5116"/>
<path d="M87.0681 124.728C87.2523 125.103 87.3817 125.503 87.4522 125.915C87.7148 127.037 87.6296 128.213 87.2078 129.285C86.917 130.01 86.4835 130.669 85.9331 131.223C85.6362 131.52 85.287 131.765 84.9552 132.044C84.6235 132.323 84.2044 132.498 83.8028 132.707L82.5455 133.214L81.2359 133.581C80.9565 133.685 80.2755 133.808 80.1184 134C79.8827 134.18 79.7112 134.431 79.6294 134.716C79.5103 135.496 79.6321 136.294 79.9787 137.003C80.2968 137.768 80.701 138.495 81.1835 139.168C81.6364 139.79 82.1386 140.374 82.6852 140.914C83.5852 141.883 84.6568 142.676 85.8458 143.254C86.2571 143.473 86.6901 143.649 87.1379 143.778L88.3602 144.005C87.9416 144.032 87.5216 144.032 87.103 144.005C85.9839 143.843 84.909 143.457 83.9425 142.87C83.3241 142.478 82.74 142.034 82.1963 141.543C81.5455 141.001 80.9596 140.386 80.4501 139.71C79.8804 138.993 79.4051 138.207 79.0358 137.37C78.5815 136.444 78.4346 135.398 78.6167 134.384C78.6883 134.086 78.8196 133.805 79.0026 133.559C79.1857 133.313 79.4168 133.106 79.6818 132.952C80.112 132.715 80.578 132.55 81.0613 132.463L82.3185 132.149L83.471 131.73L84.5362 131.206C84.833 130.979 85.1648 130.804 85.4442 130.56C85.9664 130.116 86.3991 129.577 86.7189 128.971C87.1901 128.018 87.4009 126.958 87.33 125.897C87.2782 125.5 87.1905 125.109 87.0681 124.728Z" fill="#B56A4D"/>
<path d="M84.1697 109.536C84.1697 109.536 92.5163 123.785 87.662 130.752C86.2127 133.616 98.0866 127.452 84.1697 109.536Z" fill="#FCECE3"/>
<path d="M84.9033 133.266C85.1827 133.668 84.6763 134.506 83.7683 135.117C82.8603 135.728 81.8999 135.903 81.6205 135.501C81.3411 135.1 81.8475 134.261 82.7555 133.633C83.6635 133.004 84.6239 132.847 84.9033 133.266Z" fill="#FCECE3"/>
<path d="M51.4293 94.5537C51.4293 94.5537 57.6805 80.3225 70.3052 92.6155C66.9875 83.6751 56.4757 77.2842 51.4293 94.5537Z" fill="#4C1F2E"/>
<g style="mix-blend-mode:multiply" opacity="0.6">
<path d="M51.4293 96.2998C51.4293 96.2998 57.6805 82.0511 70.3052 94.344C66.9875 85.4211 56.4757 79.0128 51.4293 96.2998Z" fill="#FBD0B4"/>
</g>
<path d="M105.281 91.9867C105.281 91.9867 117.975 73.4076 130.67 91.7073C127.265 79.9731 114.902 72.9885 105.281 91.9867Z" fill="#4C1F2E"/>
<g style="mix-blend-mode:multiply" opacity="0.6">
<path d="M105.281 93.715C105.281 93.715 117.975 75.1358 130.67 93.4356C127.265 81.7189 114.902 74.7342 105.281 93.715Z" fill="#FBD0B4"/>
</g>
<path d="M22.1636 118.232C20.4174 116.206 14.5503 114.74 14.7424 118.738C14.7424 118.965 15.1266 118.738 15.1266 118.633C15.2663 116.329 17.6934 116.887 19.1602 117.516C20.3071 118.023 21.2487 118.903 21.8318 120.013C22.1235 120.504 22.3747 121.018 22.5827 121.55L22.443 121.689C22.1636 122.143 22.0937 122.667 21.8143 123.121C21.5886 123.431 21.3017 123.692 20.9714 123.887C20.641 124.082 20.2742 124.208 19.8936 124.256C19.1854 124.39 18.4539 124.318 17.7855 124.048C17.117 123.779 16.5397 123.324 16.1219 122.737C16.0171 122.597 15.7901 122.737 15.8599 122.912C16.238 123.729 16.8976 124.384 17.7182 124.756C18.5389 125.128 19.4659 125.192 20.3301 124.937C20.9014 124.776 21.4326 124.496 21.8897 124.118C22.3467 123.739 22.7196 123.268 22.9843 122.737C23.296 123.608 23.3858 124.543 23.2456 125.458C23.1053 126.372 22.7395 127.238 22.181 127.975C21.9017 128.29 22.0413 128.866 22.5827 128.674C26.7036 127.12 24.1891 120.589 22.1636 118.232Z" fill="#9F5216"/>
<path d="M163.934 112.243C165.174 110.06 170.36 107.65 170.919 111.352C170.919 111.579 170.57 111.492 170.535 111.352C169.994 109.239 167.863 110.217 166.589 111.055C165.622 111.736 164.909 112.719 164.563 113.849C164.398 114.365 164.264 114.889 164.161 115.421C164.189 115.425 164.216 115.435 164.24 115.45C164.264 115.465 164.285 115.485 164.301 115.508C164.668 115.875 164.825 116.346 165.157 116.713C165.422 116.962 165.735 117.155 166.078 117.278C166.42 117.401 166.784 117.452 167.147 117.429C167.826 117.42 168.489 117.219 169.058 116.848C169.627 116.477 170.079 115.952 170.36 115.333C170.36 115.176 170.675 115.333 170.64 115.456C170.448 116.287 169.959 117.02 169.264 117.516C168.569 118.011 167.717 118.235 166.868 118.145C166.308 118.093 165.766 117.927 165.273 117.656C164.78 117.386 164.349 117.017 164.004 116.573C163.877 117.45 163.97 118.345 164.275 119.177C164.58 120.01 165.087 120.753 165.75 121.34C166.065 121.567 166.047 122.143 165.506 122.056C161.315 121.305 162.485 114.792 163.934 112.243Z" fill="#9F5216"/>
<path d="M28.8342 51.668C27.0881 53.8157 25.2022 55.9985 23.5957 58.2859C21.8724 60.5157 20.2863 62.8482 18.8462 65.2706C17.3731 67.6363 16.2 70.1761 15.3539 72.8314C14.966 74.1146 14.8238 75.4593 14.9348 76.7952C15.033 78.0668 15.5918 79.2589 16.5063 80.1478L16.3666 80.0605C16.8702 80.2136 17.4132 80.1699 17.8858 79.9383C18.5008 79.6751 19.0862 79.3473 19.6319 78.9604C20.8199 78.1738 21.9465 77.2982 23.002 76.3412C25.1673 74.4553 27.1754 72.3425 29.2009 70.2646C33.1996 66.0738 37.0062 61.6735 40.8652 57.3081C37.4602 62.0227 33.8806 66.6151 29.9867 70.9805C28.0587 73.1908 26.0066 75.2895 23.8402 77.2666C22.7471 78.2834 21.5798 79.2173 20.3479 80.0605C19.7176 80.514 19.0381 80.8947 18.3223 81.1955C17.9004 81.3996 17.4378 81.5056 16.9691 81.5056C16.5004 81.5056 16.0377 81.3996 15.6158 81.1955C15.061 80.6303 14.6063 79.9749 14.2712 79.2573C13.9668 78.5347 13.7782 77.7686 13.7125 76.9873C13.6132 75.4893 13.7908 73.9857 14.2363 72.552C15.0924 69.7756 16.3514 67.1399 17.9731 64.7292C21.0864 59.9777 24.7302 55.5957 28.8342 51.668Z" fill="#4C1F2E"/>
<g style="mix-blend-mode:multiply" opacity="0.5">
<path d="M167.095 103.93C161.245 102.952 159.412 109.989 159.412 109.989C159.284 96.4338 158.216 82.9035 156.216 69.4958C148.935 64.0129 141.81 50.4976 141.81 50.4976C141.81 50.4976 142.736 65.8289 139.523 66.0559C131.054 66.0559 122.585 50.7246 122.585 50.7246C122.585 50.7246 116.875 62.1619 113.662 61.2016C110.449 60.2412 115.042 49.9912 115.042 49.9912C88.7272 63.035 86.2127 59.5951 91.0147 53.6407C60.1251 68.064 55.0962 66.0035 63.0761 57.133C43.8684 73.8263 28.2926 73.5993 28.2926 73.5993C26.4848 79.2881 26.0128 85.3172 26.9132 91.218C27.6493 98.5464 27.3436 105.942 26.0051 113.185C20.9587 104.943 11.5819 111.351 11.3549 119.82C11.1279 128.289 19.3697 135.832 25.5337 132.864C26.9132 149.557 47.5004 165.238 47.5004 165.238C47.5004 165.238 83.8903 188.235 134.669 163.177C163.271 147.462 161.105 123.19 161.105 123.19C161.105 123.19 165.226 129.895 170.535 122.335C175.843 114.774 172.944 104.908 167.095 103.93ZM88.7272 170.738C32.4485 167.997 20.7667 133.335 36.552 126.124C30.7198 107.265 36.2202 86.6605 36.2202 86.6605C37.2504 80.4791 45.8241 81.1776 55.7772 71.9055C56.8074 78.7679 79.1059 72.5865 84.6063 66.4051C85.2873 76.0264 102.068 67.1036 107.306 62.9128C106.276 72.5167 117.259 69.7752 120.001 63.943C131.002 79.3965 137.462 81.4046 139.907 73.5469C148.498 95.5136 146.77 110.618 146.438 120.571C172.124 132.305 138.143 170.057 88.7272 170.738Z" fill="#EDB89A"/>
</g>
<g style="mix-blend-mode:multiply" opacity="0.8">
<path d="M167.095 103.93C161.245 102.952 159.412 109.989 159.412 109.989C159.284 96.4338 158.216 82.9035 156.216 69.4958C148.935 64.0129 141.81 50.4976 141.81 50.4976C141.81 50.4976 142.736 65.8289 139.523 66.0559C131.054 66.0559 122.585 50.7246 122.585 50.7246C122.585 50.7246 116.875 62.1619 113.662 61.2015C110.449 60.2412 115.042 49.9912 115.042 49.9912C88.727 63.035 86.2126 59.5951 91.0145 53.6407C60.125 68.064 55.096 66.0035 63.076 57.133C43.8682 73.8263 28.2925 73.5993 28.2925 73.5993C26.4847 79.2881 26.0126 85.3171 26.913 91.218C27.6492 98.5464 27.3435 105.942 26.005 113.185C22.827 107.946 17.9203 108.627 14.6724 111.927C18.4965 110.932 23.508 111.613 27.2971 119.366C30.9466 125.268 27.8734 94.623 31.2435 78.8727C41.7204 76.6201 55.6897 67.6274 57.6803 66.2305C55.4103 72.115 74.5482 69.6006 85.5141 60.0316C84.6585 65.6543 98.7325 63.9779 110.24 56.3821C108.284 65.1129 115.304 69.0243 122.899 56.6615C131.333 74.6644 143.155 75.5026 144.272 66.2305C153.841 76.917 157.491 98.2725 158.05 116.869C160.337 111.264 165.226 105.065 170.273 105.694C169.421 104.792 168.311 104.176 167.095 103.93Z" fill="#EDB89A"/>
</g>
<g style="mix-blend-mode:multiply" opacity="0.49">
<g style="mix-blend-mode:multiply" opacity="0.49">
<path d="M183.439 74.9438C180.366 50.9167 166.291 23.1178 151.868 21.0574C139.174 3.89261 92.167 -15.3151 36.6217 25.1783C6.77985 48.9086 -1.49695 82.6269 1.54137 110.234C2.32595 106.076 3.56744 102.018 5.24323 98.1328C5.47023 97.609 6.15124 97.9582 6.20362 98.3947C6.74493 103.022 6.04647 107.649 6.20362 112.259C7.47052 105.95 10.1842 100.02 14.1312 94.9374C14.463 94.5358 15.144 94.9373 14.9868 95.4437C11.7215 105.554 8.00216 117.131 10.6738 127.818C12.8041 136.286 18.6887 142.747 22.8969 150.186C23.0715 150.5 22.8969 151.007 22.4429 150.954C20.7564 150.75 19.1157 150.266 17.5886 149.522C28.6418 160.453 43.781 166.355 47.6051 165.238C47.6051 165.238 27.0178 149.522 25.6384 132.864C19.4744 135.832 11.2326 128.289 11.4596 119.82C11.6866 111.351 21.0634 104.943 26.1098 113.185C27.4483 105.942 27.754 98.5464 27.0178 91.218C26.1175 85.3172 26.5895 79.2882 28.3973 73.5993C28.3973 73.5993 43.9556 73.8263 63.1808 57.133C55.1659 66.0559 60.1949 68.1164 91.1193 53.6407C86.3174 59.5951 88.8319 63.035 115.146 49.9912C115.146 49.9912 110.554 60.2761 113.767 61.2016C116.98 62.127 122.69 50.7246 122.69 50.7246C122.69 50.7246 131.159 66.0559 139.628 66.0559C142.841 65.8289 141.915 50.4976 141.915 50.4976C141.915 50.4976 149.005 63.9954 156.321 69.4783C158.287 82.8943 159.319 96.4304 159.412 109.989C159.412 109.989 161.158 103.005 167.042 103.913C167.042 102.97 167.042 102.009 167.042 101.066C166.93 101.022 166.834 100.945 166.766 100.845C166.697 100.746 166.66 100.628 166.658 100.508C166.571 96.0898 165.698 91.6895 166.239 87.2542C166.244 87.1288 166.284 87.0073 166.357 86.9047C166.429 86.8021 166.53 86.7228 166.646 86.6765C166.763 86.6302 166.891 86.6188 167.014 86.6439C167.137 86.669 167.25 86.7294 167.339 86.8177C171.635 90.7116 173.171 96.2295 174.044 101.8C174.533 98.9912 175.216 96.2199 176.087 93.5055C176.127 93.3716 176.208 93.254 176.32 93.1704C176.432 93.0867 176.568 93.0415 176.707 93.0415C176.847 93.0415 176.983 93.0867 177.094 93.1704C177.206 93.254 177.288 93.3716 177.327 93.5055C179.685 100.49 179.073 107.911 178.846 115.193C178.654 120.431 178.567 126.892 174.586 130.908C174.495 130.992 174.382 131.048 174.26 131.069C174.138 131.09 174.013 131.076 173.899 131.028C173.785 130.98 173.687 130.901 173.617 130.799C173.547 130.697 173.507 130.578 173.503 130.454C173.809 125.804 173.839 121.139 173.59 116.485C171.967 121.601 171.251 126.962 169.155 131.921C166.317 138.06 163.025 143.978 159.307 149.627C159.209 149.745 159.072 149.825 158.921 149.852C158.77 149.879 158.614 149.85 158.482 149.773C158.349 149.695 158.249 149.573 158.198 149.427C158.148 149.282 158.151 149.124 158.207 148.981C161.592 141.681 163.999 133.966 165.366 126.036C164.517 125.906 163.705 125.594 162.988 125.121C162.27 124.648 161.664 124.025 161.21 123.295C161.21 123.295 163.375 147.619 134.773 163.282C140.274 168.084 163.533 161.414 174.027 142.328C184.521 123.243 186.529 99.0234 183.439 74.9438ZM171.443 83.1857C165.942 80.4268 154.278 41.6446 154.278 41.6446C154.278 41.6446 160.459 65.34 155.308 61.219C150.157 57.0981 136.1 34.4504 136.1 34.4504C136.1 34.4504 140.571 54.6884 134.04 54.0074C127.509 53.3264 125.816 38.5713 125.816 38.5713C125.816 38.5713 121.695 47.4767 118.936 47.145C116.177 46.8132 122.026 37.1919 122.026 37.1919C122.026 37.1919 103.849 52.2961 98.6977 49.8864C93.5465 47.4767 103.15 38.2221 103.15 38.2221C103.15 38.2221 79.1232 55.0376 72.9593 54.3566C66.7953 53.6756 71.2131 41.3128 71.2131 41.3128C71.2131 41.3128 51.3069 62.9302 44.4445 61.5682C37.5821 60.2062 47.9368 46.8132 47.9368 46.8132C47.9368 46.8132 25.2368 72.2024 21.1682 69.5133C17.0997 66.8242 35.9232 45.8354 35.9232 45.8354C18.7585 53.728 8.80539 74.6644 10.5341 68.1513C20.819 36.9125 49.6481 14.614 86.719 7.4024C123.79 0.190763 145.407 18.0365 149.581 29.0373C153.719 24.5671 157.491 23.5369 166.745 40.0032C179.335 62.3016 176.873 85.9796 171.443 83.2381V83.1857Z" fill="#765857"/>
</g>
</g>
<g style="mix-blend-mode:screen" opacity="0.55">
<path d="M122.044 13.4968C122.044 13.4968 90.2465 -3.14408 46.6274 26.82C27.0355 41.61 33.3042 47.1453 54.3804 34.2063C41.0746 51.2138 46.6274 47.8787 77.6742 28.2868C67.7036 41.2258 65.451 55.2824 98.0169 35.2714C120.56 21.9657 111.986 27.5185 105.002 36.0223C98.0169 44.5261 111.654 43.0069 122.009 27.1518C119.792 41.5751 125.344 32.6871 126.811 25.3009C133.464 47.4771 135.699 35.6381 133.464 24.55C150.506 52.3314 154.173 24.5849 122.044 13.4968Z" fill="#765857"/>
</g>
<g style="mix-blend-mode:screen" opacity="0.55">
<path d="M153.789 36.0395C153.789 36.0395 163.847 62.1446 169.19 63.5764C174.534 65.0083 151.31 21.1448 153.789 36.0395Z" fill="#765857"/>
</g>
<g style="mix-blend-mode:multiply" opacity="0.6">
<path d="M85.8812 116.014C85.8812 116.014 87.6274 129.616 77.779 131.834C71.5278 133.667 71.5278 141.019 85.8812 144.336C93.9659 145.436 98.7504 139.552 96.8995 135.885C95.0485 132.218 89.9148 144.319 79.4379 136.042C77.4473 133.301 81.184 134.767 84.7986 131.467C88.4131 128.167 88.4481 122.632 85.8812 116.014Z" fill="#FBD0B4"/>
</g>
<path d="M128.714 114.931C129.483 122.806 126.846 129.319 121.328 130.349C115.81 131.38 110.502 126.333 109.943 118.441C109.384 110.548 113.436 102.725 118.43 102.062C123.424 101.398 127.981 107.056 128.714 114.931Z" fill="#2C7CAC"/>
<g style="mix-blend-mode:multiply" opacity="0.6">
<path d="M128.714 114.931C127.963 107.056 123.476 101.416 118.429 102.062C113.383 102.708 109.384 110.514 109.943 118.441C110.502 126.369 115.81 131.38 121.328 130.35C126.846 129.32 129.482 122.806 128.714 114.931ZM111.811 110.968C113.383 108.61 113.767 109.955 113.313 111.945C112.859 113.936 111.567 120.554 114.954 124.343C116.596 126.089 118.674 126.7 118.848 127.346C119.023 127.993 114.797 128.796 112.492 124.762C109.838 120.1 110.205 113.36 111.811 110.968Z" fill="#4A5F70"/>
</g>
<g style="mix-blend-mode:multiply" opacity="0.4">
<path d="M126.566 115.91C125.99 110.566 122.655 106.952 119.041 107.685L118.307 107.877C117.818 107.057 114.029 110.095 113.4 114.286C113.068 115.668 112.956 117.094 113.069 118.511C113.47 123.837 117.277 127.242 121.171 126.474C125.065 125.706 127.125 121.235 126.566 115.91Z" fill="#4A5F70"/>
</g>
<g style="mix-blend-mode:multiply" opacity="0.6">
<path d="M128.714 114.931C127.963 107.056 123.476 101.416 118.429 102.062C113.383 102.708 109.384 110.514 109.943 118.441C110.502 126.369 115.81 131.38 121.328 130.35C126.846 129.32 129.482 122.806 128.714 114.931ZM121.171 128.447C115.932 129.424 111.008 124.762 110.554 117.481C110.1 110.199 113.837 103.04 118.412 102.429C122.987 101.818 127.335 106.934 128.033 114.18C128.732 121.427 126.357 127.469 121.171 128.447Z" fill="#4A5F70"/>
</g>
<path d="M124.838 116.625C125.274 120.606 123.633 124.064 120.682 124.622C117.731 125.181 114.902 122.614 114.588 118.616C114.274 114.617 116.334 111.02 119.093 110.461C121.852 109.902 124.384 112.644 124.838 116.625Z" fill="black"/>
<g style="mix-blend-mode:multiply" opacity="0.4">
<path d="M118.953 111.614C117.539 108.715 117.993 105.24 119.844 104.262C121.695 103.284 124.279 105.118 125.554 107.999C126.828 110.88 126.916 114.355 125.012 115.141C123.109 115.927 120.385 114.495 118.953 111.614Z" fill="#4A5F70"/>
</g>
<g style="mix-blend-mode:overlay" opacity="0.4">
<path d="M112.265 114.477C112.126 117.638 112.457 123.837 116.875 125.985C119.442 127.224 113.383 127.521 111.637 120.921C110.519 115.822 112.492 110.461 112.265 114.477Z" fill="white"/>
</g>
<g style="mix-blend-mode:overlay" opacity="0.4">
<path d="M112.79 111.002C113.453 111.107 113.226 112.853 112.283 112.749C111.62 112.539 111.864 110.845 112.79 111.002Z" fill="white"/>
</g>
<path d="M120.315 110.863C119.25 108.627 119.547 106.043 120.909 105.345C122.271 104.646 124.192 106.026 125.169 108.226C126.147 110.426 126.165 113.028 124.785 113.639C123.406 114.25 121.363 113.08 120.315 110.863Z" fill="white"/>
<path d="M70.5672 116.346C71.3356 124.238 68.6988 130.734 63.181 131.764C57.6631 132.795 52.3548 127.766 51.796 119.856C51.2373 111.945 55.2883 104.14 60.2824 103.477C65.2764 102.813 69.8164 108.488 70.5672 116.346Z" fill="#2C7CAC"/>
<g style="mix-blend-mode:multiply" opacity="0.6">
<path d="M70.5672 116.346C69.8163 108.488 65.2414 102.831 60.2823 103.477C55.3232 104.123 51.2372 111.928 51.796 119.856C52.3547 127.784 57.663 132.795 63.1809 131.765C68.6988 130.735 71.3355 124.239 70.5672 116.346ZM53.6643 112.382C55.2359 110.025 55.62 111.37 55.166 113.378C54.712 115.386 53.4199 121.969 56.8074 125.758C58.4488 127.504 60.5268 128.115 60.7014 128.761C60.876 129.407 56.6503 130.211 54.3453 126.177C51.6912 121.532 52.0579 114.775 53.6643 112.382Z" fill="#4A5F70"/>
</g>
<g style="mix-blend-mode:multiply" opacity="0.4">
<path d="M68.4193 117.324C67.8431 112.085 64.5079 108.366 60.8934 109.099C60.6497 109.15 60.4103 109.22 60.1774 109.309C59.6711 108.471 55.8819 111.509 55.2707 115.7C54.9324 117.081 54.8146 118.507 54.9215 119.925C55.3231 125.251 59.1298 128.656 63.0237 127.905C66.9176 127.154 68.9781 122.649 68.4193 117.324Z" fill="#4A5F70"/>
</g>
<g style="mix-blend-mode:multiply" opacity="0.6">
<path d="M70.5672 116.346C69.8163 108.488 65.2414 102.831 60.2823 103.477C55.3232 104.123 51.2372 111.928 51.796 119.856C52.3547 127.784 57.663 132.795 63.1809 131.765C68.6988 130.735 71.3355 124.239 70.5672 116.346ZM63.0238 129.879C57.7853 130.857 52.8611 126.177 52.4071 118.896C51.9531 111.614 55.6899 104.455 60.2648 103.844C64.8398 103.233 69.1877 108.349 69.8862 115.595C70.5846 122.842 68.2099 128.884 63.0238 129.879Z" fill="#4A5F70"/>
</g>
<path d="M66.6908 118.04C67.1274 122.021 65.486 125.478 62.5349 126.037C59.5839 126.596 56.7726 124.029 56.4409 120.048C56.1091 116.066 58.187 112.434 60.9459 111.893C63.7049 111.352 66.2543 114.058 66.6908 118.04Z" fill="black"/>
<g style="mix-blend-mode:multiply" opacity="0.4">
<path d="M60.806 113.028C59.3916 110.129 59.8456 106.655 61.6966 105.677C63.5475 104.699 66.1318 106.55 67.4065 109.431C68.6812 112.312 68.7685 115.77 66.8827 116.573C64.9968 117.376 62.2379 115.909 60.806 113.028Z" fill="#4A5F70"/>
</g>
<g style="mix-blend-mode:overlay" opacity="0.4">
<path d="M54.1534 115.891C54.0138 119.069 54.3455 125.251 58.7808 127.399C61.3302 128.638 55.2885 128.935 53.5423 122.335C52.2851 117.236 54.3455 111.875 54.1534 115.891Z" fill="white"/>
</g>
<g style="mix-blend-mode:overlay" opacity="0.4">
<path d="M54.6423 112.417C55.3059 112.521 55.0789 114.267 54.136 114.163C53.4724 113.953 53.7169 112.259 54.6423 112.417Z" fill="white"/>
</g>
<path d="M62.1679 112.277C61.1028 110.06 61.3996 107.458 62.7791 106.759C64.1586 106.061 66.0619 107.458 67.0223 109.64C67.9826 111.823 68.0176 114.442 66.6381 115.054C65.2587 115.665 63.2156 114.495 62.1679 112.277Z" fill="white"/>
<path d="M110.03 147.375C108.145 147.561 106.394 148.431 105.106 149.82C103.465 151.217 101.945 152.736 100.304 154.15C96.7181 157.218 92.3447 159.22 87.6793 159.93C84.9153 160.337 82.1112 160.396 79.3326 160.104C77.3595 159.93 74.1989 159.057 72.9417 161.205C72.6162 161.944 72.5355 162.768 72.7114 163.556C72.8873 164.345 73.3106 165.057 73.9195 165.587C76.5912 168.556 80.9042 169.935 84.8156 170.442C93.1365 171.625 101.595 169.582 108.459 164.732C111.561 162.519 113.683 159.189 114.378 155.442C114.884 152.212 114.186 147.462 110.03 147.375Z" fill="#AA8571"/>
<path d="M110.799 161.728C108.337 164.415 105.247 166.449 101.806 167.648C98.3387 169.031 94.6584 169.805 90.9275 169.935C86.6307 170.224 82.3293 169.444 78.4075 167.665C76.6052 166.891 75.0564 165.626 73.9374 164.016C73.3961 163.09 73.0643 161.623 74.1295 160.907C74.95 160.549 75.8359 160.365 76.7312 160.366C79.7465 160.762 82.7919 160.879 85.8287 160.715C89.6659 160.378 93.3927 159.254 96.7771 157.415C99.779 155.444 102.56 153.155 105.071 150.588C106.573 149.26 108.424 147.584 110.589 148.091C111.395 148.316 112.115 148.777 112.657 149.415C113.198 150.053 113.536 150.838 113.628 151.67C113.915 153.452 113.811 155.274 113.323 157.011C112.834 158.748 111.973 160.358 110.799 161.728Z" fill="#9E0000"/>
<path d="M81.917 164.487C84.992 164.804 88.0987 164.41 90.997 163.335C94.4853 162.199 97.7777 160.532 100.758 158.393C104.25 155.948 107.935 152.281 109.227 148.056C107.633 148.497 106.194 149.374 105.071 150.588C102.559 153.155 99.7787 155.444 96.7768 157.415C93.3923 159.255 89.6656 160.378 85.8284 160.715C82.7916 160.879 79.7462 160.762 76.7309 160.366H76.5737C76.9712 161.496 77.6873 162.486 78.6355 163.217C79.5837 163.949 80.7235 164.39 81.917 164.487Z" fill="#FEF6EC"/>
<path d="M95.6946 166.164C92.8385 166.873 90.1544 168.15 87.802 169.918C88.8497 169.918 89.8974 169.918 90.9276 169.918C94.6585 169.788 98.3388 169.014 101.806 167.63C103.086 167.123 104.333 166.54 105.543 165.884C102.287 165.172 98.9055 165.268 95.6946 166.164Z" fill="#E84F65"/>
<g style="mix-blend-mode:multiply" opacity="0.5">
<path d="M173.381 104.628C173.259 103.024 172.794 101.464 172.019 100.054L171.879 99.8789C169.659 97.9326 167.229 96.24 164.633 94.8325L162.345 93.5055L158.644 91.3751L152.253 88.3368C151.761 87.9054 151.235 87.5142 150.681 87.1669C136.712 78.0345 99.1519 77.9297 97.5629 77.9297H84.1524C82.5634 77.9297 45.0035 78.0345 31.0343 87.1669C28.0537 89.3164 25.9659 92.4854 25.1672 96.0723C23.875 96.7184 18.0079 99.8091 15.3537 103.773C12.3329 108.313 14.8997 114.023 15.022 114.25L15.4585 115.228L16.1919 114.424C16.5552 113.99 17.0055 113.637 17.5138 113.387C18.0221 113.137 18.5771 112.997 19.1429 112.975H19.3001C21.2952 113.178 23.1704 114.024 24.6433 115.385C24.783 116.415 24.9576 117.463 25.1497 118.476C27.0705 128.324 31.2962 138.731 35.6267 139.587C42.8034 141.001 73.5183 143.463 76.9932 136.653C78.1456 134.418 82.5285 127.084 90.8228 126.979C99.117 126.875 103.535 134.418 104.67 136.653C105.351 137.98 107.027 139.028 109.786 139.849C115.425 141.216 121.22 141.839 127.021 141.699C135.559 141.699 144.116 140.687 147.433 138.801C152.445 135.972 156.88 125.862 158.294 114.878C158.417 114.529 161.245 106.427 167.514 107.684C169.107 107.989 170.528 108.88 171.495 110.181L172.246 111.124L172.7 110.007C173.352 108.294 173.585 106.45 173.381 104.628ZM152.026 109.186C151.711 119.261 147.311 129.86 142.387 132.357C139.506 133.807 131.491 134.785 123.389 134.715C114.658 134.628 108.372 133.318 107.272 131.397C105.473 128.77 103.085 126.601 100.299 125.06C97.5129 123.52 94.4053 122.653 91.2244 122.527C84.4143 122.527 77.2551 128.656 74.8454 132.812C72.4357 136.967 51.0103 134.558 40.9874 132.812C37.8792 132.27 33.7059 123.766 32.0645 114.617C30.1961 103.738 32.0645 95.3738 37.1807 92.4054C49.6483 85.1239 84.7287 85.0366 85.0779 85.0366H97.301C97.6502 85.0366 132.731 85.1239 145.181 92.4054C151.537 95.8977 152.218 104.471 152.078 109.221L152.026 109.186Z" fill="#EDB89A"/>
</g>
<path d="M150.681 84.2861C136.712 75.1712 99.1518 75.0664 97.5628 75.0664H84.1523C82.5633 75.0664 45.0034 75.1712 31.0341 84.2861C23.1939 89.4024 22.8621 103.826 25.1496 115.612C27.0703 125.461 31.296 135.885 35.6265 136.741C42.8032 138.138 73.5182 140.6 76.993 133.807C78.1455 131.555 82.5284 124.238 90.8226 124.133C99.1169 124.029 103.535 131.555 104.67 133.807C105.351 135.117 107.027 136.165 109.786 137.003C115.425 138.371 121.219 138.993 127.02 138.854C135.559 138.854 144.115 137.841 147.433 135.955C153.265 132.655 158.329 119.471 158.748 106.55C158.975 100.333 158.189 89.1754 150.681 84.2861ZM157.351 106.515C156.95 118.738 152.113 131.694 146.752 134.715C141.391 137.736 120.28 138.662 110.222 135.641C107.289 134.768 106.276 133.807 105.944 133.161C104.722 130.734 99.9725 122.824 90.8401 122.684C81.7077 122.544 76.993 130.699 75.7533 133.161C73.0292 138.4 44.4272 137.02 35.9234 135.344C32.7803 134.733 28.5546 125.757 26.529 115.35C24.3289 104 24.5384 90.2056 31.7675 85.4735C45.3876 76.5855 83.7332 76.4808 84.1523 76.4808H97.5802C97.9644 76.4808 136.31 76.5855 149.965 85.4735C156.845 89.9786 157.543 100.595 157.369 106.515H157.351Z" fill="#BEC0C2"/>
<path opacity="0.51" d="M149.93 85.4214C136.31 76.5335 97.9644 76.4287 97.5454 76.4287H84.1523C83.7682 76.4287 45.4225 76.5335 31.7675 85.4214C24.521 90.1535 24.3114 103.948 26.5291 115.298C28.5546 125.775 32.7803 134.681 35.9234 135.292C44.4272 137.038 73.0293 138.417 75.7533 133.109C76.9931 130.682 81.7252 122.772 90.8401 122.632C99.9551 122.492 104.809 130.647 105.944 133.109C106.276 133.755 107.289 134.716 110.222 135.589C120.28 138.609 141.531 137.614 146.752 134.663C151.973 131.712 156.95 118.721 157.351 106.463C157.543 100.596 156.845 89.9789 149.93 85.4214ZM153.422 106.375C153.108 117.079 148.428 128.028 142.946 130.822C137.113 133.755 109.192 134.977 105.962 129.302C104.277 126.902 102.065 124.918 99.4957 123.505C96.9259 122.091 94.0666 121.285 91.137 121.148C85.1127 121.148 78.2503 126.77 75.9803 130.717C74.6881 132.987 69.7116 133.703 63.8794 133.703C56.0948 133.51 48.3338 132.764 40.6555 131.468C36.3949 130.717 32.1866 120.991 30.5802 112.12C28.5022 100.543 30.6849 91.6203 36.3949 88.2851C49.1942 80.8116 83.5412 80.7417 85.0079 80.7417H97.231C98.6804 80.7417 133.045 80.7417 145.827 88.2851C151.1 91.2536 153.754 97.6445 153.492 106.375H153.422Z" fill="white"/>
<path d="M146.036 88.2846C133.254 80.8111 98.8899 80.7412 97.4406 80.7412H85.2175C83.7682 80.7412 49.4038 80.7412 36.6044 88.2846C30.8945 91.6198 28.7118 100.508 30.7897 112.12C32.3962 121.043 36.6044 130.716 40.8651 131.467C48.5434 132.763 56.3044 133.51 64.089 133.702C69.9212 133.702 74.8977 132.986 76.1899 130.716C78.4599 126.77 85.3223 121.217 91.3465 121.147C94.2762 121.285 97.1355 122.091 99.7052 123.504C102.275 124.918 104.487 126.901 106.171 129.302C109.402 134.977 137.323 133.755 143.155 130.821C148.568 128.08 153.248 117.131 153.632 106.375C153.754 97.644 151.1 91.2531 146.036 88.2846ZM152.078 106.375C151.764 116.45 147.363 127.067 142.439 129.546C139.558 131.013 131.543 131.991 123.441 131.921C114.71 131.816 108.424 130.524 107.324 128.603C105.525 125.977 103.137 123.807 100.351 122.267C97.5652 120.727 94.4577 119.859 91.2767 119.733C84.4667 119.733 77.3074 125.862 74.8977 130.018C72.488 134.174 51.0626 131.764 41.0397 130.018C37.9315 129.459 33.7582 120.973 32.1168 111.823C30.1611 100.839 32.1168 92.4928 37.2505 89.4545C49.7181 82.1905 84.7984 82.1032 85.1477 82.1032H97.3708C97.72 82.1032 132.8 82.1905 145.25 89.4545C151.537 93.1389 152.218 101.643 152.078 106.375Z" fill="#BEC0C2"/>
<path d="M173.381 101.817C173.258 100.218 172.794 98.6642 172.019 97.2599L171.879 97.0679C169.65 95.1328 167.221 93.4411 164.633 92.0214L162.345 90.6943L158.644 88.564L148.446 83.6748L151.432 86.6258C159.412 94.501 156.967 111.543 156.932 111.718L158.312 112.05C158.312 111.963 161.175 103.529 167.549 104.803C169.136 105.122 170.552 106.01 171.53 107.3L172.281 108.261L172.735 107.126C173.365 105.432 173.586 103.613 173.381 101.817ZM171.74 105.502C170.646 104.445 169.269 103.729 167.776 103.441C163.271 102.533 160.32 105.519 158.644 108.121C158.888 103.144 158.644 94.3438 154.435 88.145L157.928 89.8911L161.595 92.004L163.882 93.3136C166.345 94.6646 168.657 96.2743 170.779 98.1155C171.422 99.3224 171.814 100.647 171.932 102.009C172.066 103.174 172.019 104.352 171.792 105.502H171.74Z" fill="#BEC0C2"/>
<path opacity="0.51" d="M170.884 98.0458C168.762 96.2046 166.45 94.5949 163.987 93.2439L161.699 91.9342L158.032 89.8214L154.54 88.0752C158.731 94.2741 158.993 103.075 158.748 108.051C160.495 105.449 163.376 102.464 167.881 103.372C169.374 103.659 170.751 104.375 171.845 105.432C172.106 104.288 172.189 103.109 172.089 101.94C171.955 100.573 171.546 99.2487 170.884 98.0458Z" fill="white"/>
<path d="M26.3893 93.9426L26.9306 92.3711L25.4115 93.087C25.1321 93.2267 18.2697 96.5793 15.3536 100.91C12.4375 105.24 14.8996 111.16 15.0218 111.387L15.4583 112.365L16.2266 111.614C16.587 111.176 17.0366 110.82 17.5456 110.57C18.0545 110.32 18.6109 110.182 19.1777 110.164H19.3348C21.432 110.421 23.391 111.346 24.9225 112.801L26.4417 114.25L26.1099 112.173C24.2066 100.7 26.3718 94.0125 26.3893 93.9426ZM24.4161 110.566C22.9302 109.456 21.1513 108.807 19.2999 108.698H19.0903C17.9445 108.741 16.8429 109.151 15.9473 109.868C15.4481 108.544 15.2426 107.127 15.3451 105.716C15.4476 104.305 15.8557 102.933 16.541 101.696C18.7481 98.9508 21.5088 96.7018 24.6431 95.0951C23.6984 100.203 23.6216 105.433 24.4161 110.566Z" fill="#BEC0C2"/>
<path opacity="0.51" d="M16.5412 101.695C15.856 102.933 15.4479 104.305 15.3454 105.716C15.2429 107.127 15.4484 108.543 15.9475 109.867C16.8431 109.151 17.9448 108.741 19.0906 108.697H19.3002C21.1516 108.806 22.9304 109.456 24.4164 110.566C23.6219 105.433 23.6987 100.202 24.6434 95.0947C21.5091 96.7014 18.7484 98.9504 16.5412 101.695Z" fill="white"/>
</g>
</svg>
