<svg width="138" height="32" viewBox="0 0 138 32" fill="none" xmlns="http://www.w3.org/2000/svg">
<g clip-path="url(#clip0_338_596)">
<path fill-rule="evenodd" clip-rule="evenodd" d="M1.08969 5.46C5.3205e-06 7.6 0 10.4 0 16C0 21.6 5.3205e-06 24.4 1.08969 26.54C2.04969 28.42 3.57978 29.95 5.46021 30.91C7.59999 32 10.4 32 16 32C21.6 32 24.4 32 26.5398 30.91C28.4202 29.95 29.9503 28.42 30.9103 26.54C32 24.4 32 21.6 32 16C32 10.4 32 7.6 30.9103 5.46C29.9503 3.58 28.4202 2.05 26.5398 1.09C24.4 0 21.6 0 16 0C10.4 0 7.59999 0 5.46021 1.09C3.57978 2.05 2.04969 3.58 1.08969 5.46ZM23.9848 8.62998C24.2653 8.62998 24.5297 8.74501 24.725 8.94004C24.9204 9.14004 25.0299 9.41002 25.0248 9.68497C24.9752 12.665 24.8598 14.945 24.6451 16.75C24.4354 18.555 24.1204 19.895 23.6455 20.98C23.3255 21.705 22.9297 22.305 22.4648 22.815C21.84 23.49 21.1251 23.98 20.3453 24.4451C20.0118 24.6445 19.6648 24.8413 19.3011 25.0479C18.5255 25.4886 17.6716 25.9731 16.7048 26.62C16.3554 26.855 15.8998 26.855 15.5503 26.62C14.5684 25.9656 13.7036 25.475 12.9204 25.0308C12.7469 24.932 12.5768 24.8355 12.4101 24.74C11.4947 24.21 10.6703 23.705 9.95031 22.975C9.47031 22.495 9.05515 21.91 8.72505 21.215C8.27536 20.285 7.96969 19.16 7.74485 17.705C7.44506 15.76 7.29516 13.215 7.24043 9.68497C7.23537 9.41002 7.33979 9.14004 7.53516 8.94004C7.72968 8.74501 7.99999 8.62998 8.28041 8.62998H8.7099C10.0354 8.63503 12.96 8.50501 15.4897 6.53501C15.8653 6.245 16.3899 6.245 16.7655 6.53501C19.2952 8.50501 22.2198 8.63503 23.5503 8.62998H23.9848ZM21.6598 20.315C21.9848 19.645 22.2552 18.72 22.4598 17.39C22.7048 15.8 22.8547 13.64 22.9255 10.7C21.3651 10.655 18.6855 10.355 16.1297 8.63503C13.5747 10.35 10.8952 10.65 9.33979 10.7C9.39537 13.13 9.50484 15.02 9.68 16.505C9.88042 18.195 10.165 19.34 10.5204 20.145C10.7554 20.68 11.0147 21.065 11.3255 21.405C11.7398 21.86 12.2653 22.235 12.9802 22.665C13.2766 22.8429 13.6034 23.028 13.9596 23.2296C14.5937 23.5885 15.3196 23.9994 16.1297 24.515C16.9255 24.0078 17.6413 23.6011 18.2678 23.2448C18.4564 23.1374 18.6375 23.0346 18.8101 22.935C19.6901 22.43 20.3402 22.01 20.8253 21.52C21.1503 21.185 21.4147 20.82 21.6598 20.315Z" fill="#0052FF"/>
<path d="M44.5361 12.8069H40.9521V10.6949H50.7121V12.8069H47.1281V21.8949H44.5361V12.8069ZM53.6469 14.4229C53.9458 14.0069 54.3458 13.6923 54.8469 13.4789C55.3589 13.2656 55.9458 13.1589 56.6069 13.1589V15.4629C56.3298 15.4416 56.1429 15.4309 56.0469 15.4309C55.3319 15.4309 54.7719 15.6336 54.3669 16.0389C53.9618 16.4336 53.7589 17.0309 53.7589 17.8309V21.8949H51.2629V13.2869H53.6469V14.4229ZM66.3458 13.2869V21.8949H63.9778V20.8709C63.6469 21.2443 63.2519 21.5323 62.7938 21.7349C62.3349 21.9269 61.8389 22.0229 61.3058 22.0229C60.1749 22.0229 59.2789 21.6976 58.6178 21.0469C57.9559 20.3963 57.6258 19.4309 57.6258 18.1509V13.2869H60.1218V17.7829C60.1218 19.1696 60.7029 19.8629 61.8658 19.8629C62.4629 19.8629 62.9429 19.6709 63.3058 19.2869C63.6679 18.8923 63.8498 18.3109 63.8498 17.5429V13.2869H66.3458ZM71.0743 22.0229C70.3593 22.0229 69.6604 21.9376 68.9783 21.7669C68.2953 21.5856 67.7513 21.3616 67.3463 21.0949L68.1783 19.3029C68.5623 19.5483 69.0263 19.7509 69.5703 19.9109C70.1143 20.0603 70.6473 20.1349 71.1703 20.1349C72.2263 20.1349 72.7543 19.8736 72.7543 19.3509C72.7543 19.1056 72.6103 18.9296 72.3223 18.8229C72.0343 18.7163 71.5913 18.6256 70.9943 18.5509C70.2903 18.4443 69.7084 18.3216 69.2503 18.1829C68.7913 18.0443 68.3913 17.7989 68.0503 17.4469C67.7193 17.0949 67.5543 16.5936 67.5543 15.9429C67.5543 15.3989 67.7084 14.9189 68.0183 14.5029C68.3383 14.0763 68.7964 13.7456 69.3943 13.5109C70.0023 13.2763 70.7164 13.1589 71.5383 13.1589C72.1463 13.1589 72.7484 13.2283 73.3463 13.3669C73.9543 13.4949 74.4553 13.6763 74.8503 13.9109L74.0183 15.6869C73.2604 15.2603 72.4343 15.0469 71.5383 15.0469C71.0044 15.0469 70.6044 15.1216 70.3383 15.2709C70.0713 15.4203 69.9383 15.6123 69.9383 15.8469C69.9383 16.1136 70.0823 16.3003 70.3703 16.4069C70.6583 16.5136 71.1164 16.6149 71.7463 16.7109C72.4503 16.8283 73.0263 16.9563 73.4743 17.0949C73.9223 17.2229 74.3113 17.4629 74.6423 17.8149C74.9724 18.1669 75.1383 18.6576 75.1383 19.2869C75.1383 19.8203 74.9783 20.2949 74.6583 20.7109C74.3383 21.1269 73.8684 21.4523 73.2503 21.6869C72.6423 21.9109 71.9164 22.0229 71.0743 22.0229ZM81.7496 21.4789C81.5046 21.6603 81.2006 21.7989 80.8376 21.8949C80.4856 21.9803 80.1126 22.0229 79.7176 22.0229C78.6936 22.0229 77.8995 21.7616 77.3336 21.2389C76.7795 20.7163 76.5016 19.9483 76.5016 18.9349V15.3989H75.1736V13.4789H76.5016V11.3829H78.9976V13.4789H81.1416V15.3989H78.9976V18.9029C78.9976 19.2656 79.0886 19.5483 79.2696 19.7509C79.4616 19.9429 79.7286 20.0389 80.0696 20.0389C80.4646 20.0389 80.8006 19.9323 81.0776 19.7189L81.7496 21.4789ZM103.826 10.6949L100.162 21.8949H97.3783L94.9143 14.3109L92.3703 21.8949H89.6023L85.9223 10.6949H88.6103L91.1383 18.5669L93.7783 10.6949H96.1783L98.7383 18.6309L101.346 10.6949H103.826ZM107.449 13.1589C108.782 13.1589 109.806 13.4789 110.521 14.1189C111.235 14.7483 111.593 15.7029 111.593 16.9829V21.8949H109.257V20.8229C108.787 21.6229 107.913 22.0229 106.633 22.0229C105.971 22.0229 105.395 21.9109 104.905 21.6869C104.425 21.4629 104.057 21.1536 103.801 20.7589C103.545 20.3643 103.417 19.9163 103.417 19.4149C103.417 18.6149 103.715 17.9856 104.313 17.5269C104.921 17.0683 105.854 16.8389 107.113 16.8389H109.097C109.097 16.2949 108.931 15.8789 108.601 15.5909C108.27 15.2923 107.774 15.1429 107.113 15.1429C106.654 15.1429 106.201 15.2176 105.753 15.3669C105.315 15.5056 104.942 15.6976 104.633 15.9429L103.737 14.1989C104.206 13.8683 104.766 13.6123 105.417 13.4309C106.078 13.2496 106.755 13.1589 107.449 13.1589ZM107.257 20.3429C107.683 20.3429 108.062 20.2469 108.393 20.0549C108.723 19.8523 108.958 19.5589 109.097 19.1749V18.2949H107.385C106.361 18.2949 105.849 18.6309 105.849 19.3029C105.849 19.6229 105.971 19.8789 106.217 20.0709C106.473 20.2523 106.819 20.3429 107.257 20.3429ZM113.372 10.0229H115.868V21.8949H113.372V10.0229ZM117.704 10.0229H120.2V21.8949H117.704V10.0229ZM130.469 17.6229C130.469 17.6549 130.453 17.8789 130.421 18.2949H123.909C124.026 18.8283 124.304 19.2496 124.741 19.5589C125.178 19.8683 125.722 20.0229 126.373 20.0229C126.821 20.0229 127.216 19.9589 127.557 19.8309C127.909 19.6923 128.234 19.4789 128.533 19.1909L129.861 20.6309C129.05 21.5589 127.866 22.0229 126.309 22.0229C125.338 22.0229 124.48 21.8363 123.733 21.4629C122.986 21.0789 122.41 20.551 122.005 19.879C121.6 19.2069 121.397 18.4443 121.397 17.5909C121.397 16.7483 121.594 15.9909 121.989 15.3189C122.394 14.6363 122.944 14.1083 123.637 13.7349C124.341 13.3509 125.125 13.1589 125.989 13.1589C126.832 13.1589 127.594 13.3403 128.277 13.7029C128.96 14.0656 129.493 14.5883 129.877 15.2709C130.272 15.9429 130.469 16.7269 130.469 17.6229ZM126.005 15.0469C125.44 15.0469 124.965 15.2069 124.581 15.5269C124.197 15.8469 123.962 16.2843 123.877 16.8389H128.117C128.032 16.2949 127.797 15.8629 127.413 15.5429C127.029 15.2123 126.56 15.0469 126.005 15.0469ZM137.202 21.4789C136.957 21.6603 136.653 21.7989 136.29 21.8949C135.938 21.9803 135.565 22.0229 135.17 22.0229C134.146 22.0229 133.352 21.7616 132.786 21.2389C132.232 20.7163 131.954 19.9483 131.954 18.9349V15.3989H130.626V13.4789H131.954V11.3829H134.45V13.4789H136.594V15.3989H134.45V18.9029C134.45 19.2656 134.541 19.5483 134.722 19.7509C134.914 19.9429 135.181 20.0389 135.522 20.0389C135.917 20.0389 136.253 19.9323 136.53 19.7189L137.202 21.4789Z" fill="#0052FF"/>
</g>
<defs>
<clipPath id="clip0_338_596">
<rect width="137.263" height="32" fill="white"/>
</clipPath>
</defs>
</svg>
