<svg width="197" height="32" viewBox="0 0 197 32" fill="none" xmlns="http://www.w3.org/2000/svg">
<path fill-rule="evenodd" clip-rule="evenodd" d="M70.826 17.5094L68.1338 27.1975H65.3335L61.5801 13.0191H64.6555L66.8859 23.2869H66.9645L69.6175 13.0191H72.123L74.776 23.2869H74.8546L77.0948 13.0191H80.1703L76.407 27.1975H73.6067L70.9145 17.5094H70.826ZM84.2577 25.2914C85.5056 25.2914 86.5373 24.4758 86.5373 23.336V22.5696L84.3167 22.7072C83.2457 22.7858 82.6365 23.2673 82.6365 24.014C82.6365 24.8001 83.285 25.2914 84.2577 25.2914ZM83.3145 27.3646C81.31 27.3646 79.7871 26.0676 79.7871 24.1712C79.7871 22.2552 81.2609 21.1449 83.8844 20.9877L86.5373 20.8305V20.1329C86.5373 19.1503 85.8495 18.5804 84.7687 18.5804C83.6977 18.5804 83.0197 19.111 82.8821 19.8872H80.2587C80.3668 17.8435 82.1059 16.4384 84.8964 16.4384C87.5985 16.4384 89.3573 17.8337 89.3573 19.956V27.1975H86.5864V25.5861H86.5275C85.9379 26.7062 84.6311 27.3646 83.3145 27.3646ZM91.2733 27.1975V13.0191H94.1424V27.1975H91.2733ZM96.1468 27.1975V13.0191H99.0159V27.1975H96.1468ZM105.678 18.5608C104.42 18.5608 103.516 19.5139 103.418 20.8305H107.888C107.83 19.4844 106.955 18.5608 105.678 18.5608ZM107.928 23.9747H110.561C110.247 26.0381 108.36 27.4235 105.756 27.4235C102.514 27.4235 100.568 25.3503 100.568 21.9801C100.568 18.6197 102.534 16.4384 105.648 16.4384C108.714 16.4384 110.65 18.5116 110.65 21.7148V22.5893H103.388V22.7662C103.388 24.2695 104.341 25.3012 105.805 25.3012C106.857 25.3012 107.663 24.7804 107.928 23.9747ZM112.89 14.2375H115.759V16.6644H117.704V18.8261H115.759V23.8666C115.759 24.6723 116.152 25.0555 116.997 25.0555C117.252 25.0555 117.518 25.0359 117.695 25.0064V27.1189C117.4 27.1877 116.908 27.2368 116.329 27.2368C113.853 27.2368 112.89 26.4115 112.89 24.3579V18.8261H111.406V16.6644H112.89V14.2375ZM125.791 27.4432C121.664 27.4432 119.08 24.6822 119.08 20.1034C119.08 15.5345 121.684 12.7734 125.791 12.7734C129.2 12.7734 131.794 14.9351 132.02 18.1088H129.132C128.856 16.3696 127.52 15.2299 125.791 15.2299C123.551 15.2299 122.106 17.1066 122.106 20.0936C122.106 23.1199 123.531 24.9868 125.801 24.9868C127.56 24.9868 128.827 23.9551 129.141 22.2749H132.03C131.696 25.4387 129.269 27.4432 125.791 27.4432ZM138.446 27.4235C135.263 27.4235 133.229 25.3798 133.229 21.9211C133.229 18.5116 135.292 16.4384 138.446 16.4384C141.6 16.4384 143.664 18.5018 143.664 21.9211C143.664 25.3896 141.63 27.4235 138.446 27.4235ZM138.446 25.2324C139.851 25.2324 140.746 24.0435 140.746 21.931C140.746 19.8381 139.842 18.6295 138.446 18.6295C137.051 18.6295 136.137 19.8381 136.137 21.931C136.137 24.0435 137.031 25.2324 138.446 25.2324ZM145.138 27.1975V16.6644H147.908V18.5411H147.967C148.527 17.2343 149.638 16.4679 151.259 16.4679C153.598 16.4679 154.914 17.9417 154.914 20.408V27.1975H152.045V21.0074C152.045 19.6318 151.397 18.8457 150.109 18.8457C148.822 18.8457 148.007 19.789 148.007 21.1547V27.1975H145.138ZM156.732 27.1975V16.6644H159.503V18.5411H159.562C160.122 17.2343 161.232 16.4679 162.853 16.4679C165.192 16.4679 166.508 17.9417 166.508 20.408V27.1975H163.639V21.0074C163.639 19.6318 162.991 18.8457 161.704 18.8457C160.417 18.8457 159.601 19.789 159.601 21.1547V27.1975H156.732ZM173.052 18.5608C171.795 18.5608 170.891 19.5139 170.792 20.8305H175.263C175.204 19.4844 174.33 18.5608 173.052 18.5608ZM175.302 23.9747H177.936C177.621 26.0381 175.735 27.4235 173.131 27.4235C169.889 27.4235 167.943 25.3503 167.943 21.9801C167.943 18.6197 169.908 16.4384 173.023 16.4384C176.089 16.4384 178.024 18.5116 178.024 21.7148V22.5893H170.763V22.7662C170.763 24.2695 171.716 25.3012 173.18 25.3012C174.231 25.3012 175.037 24.7804 175.302 23.9747ZM189.068 20.5849H186.405C186.238 19.4745 185.502 18.6885 184.322 18.6885C182.908 18.6885 182.023 19.8872 182.023 21.9211C182.023 23.9944 182.908 25.1734 184.332 25.1734C185.482 25.1734 186.229 24.4856 186.405 23.336H189.078C188.931 25.8219 187.074 27.4235 184.303 27.4235C181.129 27.4235 179.115 25.3601 179.115 21.9211C179.115 18.5411 181.129 16.4384 184.283 16.4384C187.133 16.4384 188.94 18.1972 189.068 20.5849ZM191.23 14.2375H194.099V16.6644H196.044V18.8261H194.099V23.8666C194.099 24.6723 194.492 25.0555 195.337 25.0555C195.592 25.0555 195.858 25.0359 196.035 25.0064V27.1189C195.74 27.1877 195.249 27.2368 194.669 27.2368C192.193 27.2368 191.23 26.4115 191.23 24.3579V18.8261H189.746V16.6644H191.23V14.2375Z" fill="#0052FF"/>
<path d="M10.6886 6.25752C19.1883 -2.06436 32.969 -2.06436 41.4686 6.25752L42.4916 7.25907C42.9166 7.67517 42.9166 8.34979 42.4916 8.76588L38.9923 12.192C38.7798 12.4 38.4353 12.4 38.2228 12.192L36.8151 10.8137C30.8855 5.00819 21.2717 5.00819 15.3422 10.8137L13.8346 12.2897C13.6221 12.4978 13.2776 12.4978 13.0651 12.2897L9.56584 8.86363C9.14085 8.44753 9.14085 7.77291 9.56584 7.35682L10.6886 6.25752ZM48.7055 13.3431L51.8199 16.3923C52.2449 16.8084 52.2449 17.483 51.8199 17.8991L37.7769 31.6486C37.3519 32.0647 36.6629 32.0647 36.2379 31.6486C36.2379 31.6486 36.2379 31.6486 36.2379 31.6486L26.2711 21.8902C26.1648 21.7862 25.9926 21.7862 25.8863 21.8902C25.8863 21.8902 25.8863 21.8902 25.8863 21.8902L15.9197 31.6486C15.4947 32.0647 14.8057 32.0647 14.3807 31.6486C14.3807 31.6486 14.3807 31.6486 14.3807 31.6486L0.337292 17.899C-0.0876911 17.4829 -0.0876911 16.8082 0.337292 16.3921L3.45168 13.3429C3.87667 12.9268 4.5657 12.9268 4.99068 13.3429L14.9577 23.1014C15.0639 23.2055 15.2362 23.2055 15.3424 23.1014C15.3424 23.1014 15.3424 23.1014 15.3424 23.1014L25.3089 13.3429C25.7339 12.9268 26.4229 12.9268 26.8479 13.3429C26.8479 13.3429 26.8479 13.3429 26.848 13.3429L36.8149 23.1014C36.9212 23.2055 37.0934 23.2055 37.1997 23.1014L47.1665 13.3431C47.5915 12.927 48.2805 12.927 48.7055 13.3431Z" fill="#0052FF"/>
</svg>
