<svg version="1.1" id="Layer_1" xmlns="http://www.w3.org/2000/svg" xmlns:xlink="http://www.w3.org/1999/xlink" x="0px" y="0px"
	 width="100%" viewBox="0 0 263 96" enable-background="new 0 0 263 96" xml:space="preserve">
<path fill="#000000" opacity="1.000000" stroke="none" 
	d="
M1.000000,23.000000 
	C1.000000,15.671157 1.000000,8.342314 1.000000,1.010103 
	C88.608498,1.006736 176.216995,1.006736 263.912750,1.006736 
	C263.912750,32.922024 263.912750,64.844368 263.912750,96.883354 
	C176.333420,96.883354 88.666740,96.883354 1.000026,96.888992 
	C1.000000,73.575531 1.000000,50.256424 1.387659,26.471264 
	C2.520935,27.248465 3.089523,28.653299 4.047438,29.702778 
	C6.345874,32.220913 8.446099,35.789787 11.328211,36.691719 
	C15.188665,37.899815 19.711657,36.990776 24.100346,36.990776 
	C23.973915,34.553928 23.883501,32.811317 23.795424,31.113689 
	C12.789364,30.785740 10.595696,29.548117 11.105917,23.621115 
	C11.271402,21.698751 12.295110,18.671232 13.594417,18.259933 
	C16.733826,17.266136 20.267111,17.516602 24.891787,17.172377 
	C23.717953,15.092750 23.063990,12.039881 21.458376,11.409004 
	C13.397229,8.241624 6.421530,12.159357 3.903204,20.442495 
	C3.584066,21.492191 1.998718,22.156919 1.000000,23.000000 
M55.259411,12.419995 
	C55.506275,14.525494 55.946777,16.629208 55.966202,18.736803 
	C56.046715,27.472986 56.000000,36.210342 56.000000,44.660450 
	C59.111153,44.660450 61.520565,44.660450 64.278336,44.660450 
	C64.278336,41.896099 64.278336,39.474091 64.278336,38.102867 
	C68.217049,36.830433 71.815514,36.278416 74.759499,34.587147 
	C80.524643,31.275160 79.734047,22.507017 78.001221,16.136185 
	C76.972298,12.353276 74.244881,10.662291 70.273293,10.989063 
	C65.538574,11.378624 60.797108,11.686265 55.259411,12.419995 
M152.661346,60.000004 
	C149.478363,61.794395 146.295395,63.588787 142.664597,65.635635 
	C142.664597,60.511990 142.664597,55.771183 142.664597,51.168495 
	C140.331696,51.168495 138.378647,51.168495 136.313965,51.168495 
	C136.313965,62.198845 136.313965,73.058395 136.313965,83.705788 
	C138.729141,83.705788 140.825745,83.705788 142.864395,83.705788 
	C142.994080,81.642502 143.104767,79.881653 143.297806,76.810646 
	C148.132538,81.053543 151.670578,86.799309 158.919632,83.262466 
	C156.558197,80.313591 154.206406,77.075783 151.531082,74.131989 
	C149.423218,71.812599 149.377075,69.961685 151.644516,67.816872 
	C153.962555,65.624191 156.127289,63.269428 159.322327,60.000000 
	C156.360367,60.000000 154.934113,60.000000 152.661346,60.000004 
M89.996613,34.259121 
	C89.997902,30.260447 89.531174,26.181450 90.197823,22.296961 
	C90.531456,20.352858 92.932739,18.763594 94.398865,17.013844 
	C95.265907,18.632784 96.754555,20.204899 96.880714,21.879650 
	C97.226677,26.472261 97.000000,31.108006 97.000000,35.768364 
	C99.545097,35.768364 101.614952,35.768364 104.000000,35.768364 
	C104.000000,30.576672 104.000343,25.609589 103.999924,20.642506 
	C103.999207,12.091572 101.605530,9.907069 93.373199,11.038515 
	C92.361130,11.177614 91.394760,11.649302 89.934425,12.118896 
	C89.934425,8.857909 89.934425,6.092786 89.934425,3.209752 
	C87.496513,3.209752 85.426010,3.209752 83.212738,3.209752 
	C83.212738,14.166245 83.212738,24.912380 83.212738,36.298714 
	C85.644424,35.904942 87.797951,35.556217 89.996613,34.259121 
M31.016991,40.981159 
	C26.369505,40.510262 28.397684,43.641453 27.987242,45.798214 
	C33.267342,46.255219 38.717327,47.029243 41.265064,42.021774 
	C46.132416,32.455212 50.145557,22.454041 54.750614,12.099546 
	C51.179676,12.099546 48.869579,12.099546 46.450359,12.099546 
	C44.718765,16.804323 43.003788,21.463945 40.799526,27.452967 
	C39.560455,23.740892 38.758656,21.372856 37.979229,18.997482 
	C35.484756,11.395368 35.487953,11.394319 27.295746,12.448112 
	C29.861048,18.879627 32.255310,25.348364 35.021183,31.654102 
	C36.888851,35.912079 36.136082,38.844021 31.016991,40.981159 
M108.016510,27.947359 
	C111.993523,38.341763 116.161865,37.653866 129.725159,36.454647 
	C129.725159,34.685890 129.725159,32.932392 129.725159,31.319427 
	C124.591805,29.668404 116.706047,35.053406 115.431427,24.770630 
	C120.654434,24.770630 125.757812,24.770630 130.861420,24.770630 
	C130.922791,23.966505 130.986313,23.479683 130.993149,22.992069 
	C131.083237,16.545734 128.201721,11.539355 124.100853,11.002275 
	C114.936676,9.802068 111.071419,11.914383 108.748558,19.828266 
	C108.075134,22.122574 108.227364,24.659222 108.016510,27.947359 
M166.440552,60.000328 
	C165.018127,60.079781 163.595703,60.159233 162.000519,60.248337 
	C162.000519,66.584641 161.785049,72.571617 162.076721,78.533775 
	C162.269257,82.469376 163.990540,85.502831 168.805939,85.006271 
	C173.477707,84.524529 178.154785,84.094368 182.714783,83.652664 
	C182.714783,75.651329 182.714783,67.906471 182.714783,60.289062 
	C180.354477,60.289062 178.284790,60.289062 175.999664,60.289062 
	C175.999664,64.884377 176.486755,69.273613 175.789856,73.466042 
	C175.452057,75.498230 172.894730,77.161476 171.342255,78.991760 
	C170.561508,77.285973 169.266037,75.626945 169.105942,73.864761 
	C168.760803,70.066368 169.090485,66.211021 168.925705,62.388390 
	C168.890579,61.573257 167.925995,60.798191 166.440552,60.000328 
M259.229980,64.947853 
	C259.564606,63.132877 259.899231,61.317905 260.326477,59.000526 
	C255.904068,59.000526 252.124924,59.024605 248.346207,58.994286 
	C243.861923,58.958302 241.792709,62.103607 241.271713,65.639412 
	C240.811249,68.764435 242.010574,72.060898 245.754807,73.282219 
	C247.571167,73.874680 249.493179,74.251457 251.177719,75.101654 
	C252.286743,75.661385 253.057465,76.891449 253.979675,77.821358 
	C252.592010,78.318993 251.181107,79.284370 249.821487,79.216858 
	C246.993561,79.076431 244.192810,78.388832 241.366364,77.923737 
	C240.021896,83.298569 242.674988,84.861649 246.949738,84.994415 
	C252.648026,85.171394 258.505463,85.854317 261.757294,81.219742 
	C265.419495,69.098488 253.433426,70.594643 248.262299,65.444633 
	C249.677887,65.149872 250.000626,65.026756 250.324356,65.024086 
	C252.980667,65.002159 255.637192,65.002647 259.229980,64.947853 
M109.664154,78.050438 
	C108.573044,82.943695 109.534340,84.626274 113.980782,84.956749 
	C116.955940,85.177872 120.233574,85.749931 122.876389,84.789948 
	C125.568153,83.812187 128.720993,81.589111 129.730911,79.118019 
	C131.061111,75.863228 130.377777,71.906670 125.886253,70.398117 
	C123.617874,69.636230 121.329330,68.898186 119.149437,67.926155 
	C118.229958,67.516151 117.567245,66.530319 115.804810,64.893021 
	C120.808350,64.893021 124.248787,64.893021 127.798370,64.893021 
	C127.798370,62.832668 127.798370,61.097290 127.798370,59.000614 
	C123.818626,59.000614 120.029495,58.985886 116.240509,59.004444 
	C111.789497,59.026245 109.672256,62.190769 109.238533,65.738403 
	C108.894371,68.553467 109.720711,71.946320 113.470802,73.069412 
	C115.293823,73.615379 117.159470,74.173378 118.813629,75.077553 
	C120.028847,75.741791 120.931702,76.977501 121.973755,77.958542 
	C120.543808,78.393013 119.098091,79.228035 117.687424,79.172523 
	C115.287743,79.078087 112.910126,78.423256 109.664154,78.050438 
M196.000000,71.439484 
	C196.000000,73.878227 196.000000,76.316963 196.000000,79.111572 
	C193.086807,79.111572 190.672501,79.111572 188.222565,79.111572 
	C188.222565,80.878967 188.222565,82.278564 188.222565,83.800476 
	C195.517090,83.800476 202.589142,83.800476 209.630234,83.800476 
	C209.630234,82.078690 209.630234,80.566559 209.630234,78.860878 
	C207.311890,78.860878 205.362976,78.860878 202.882996,78.860878 
	C202.882996,69.486633 202.882996,60.298206 202.882996,51.288433 
	C197.925659,51.288433 193.508606,51.288433 188.912338,51.288433 
	C189.038315,53.004845 189.142105,54.419037 189.247284,55.852119 
	C191.657135,55.980312 193.727386,56.090443 196.000000,56.211342 
	C196.000000,61.200165 196.000000,65.829544 196.000000,71.439484 
M230.000000,58.560455 
	C230.000000,56.128342 230.000000,53.696228 230.000000,51.229778 
	C225.072357,51.229778 220.663651,51.229778 216.222229,51.229778 
	C216.222229,52.867435 216.222229,54.272381 216.222229,56.046173 
	C218.509827,56.046173 220.582886,56.046173 222.808365,56.046173 
	C222.808365,63.816109 222.808365,71.212433 222.808365,78.982750 
	C220.217194,78.982750 217.807709,78.982750 215.349762,78.982750 
	C215.349762,80.879181 215.349762,82.375603 215.349762,83.707825 
	C222.776016,83.707825 229.851151,83.707825 237.094528,83.707825 
	C236.960785,81.986351 236.850800,80.570770 236.741211,79.160385 
	C234.331055,79.021370 232.261490,78.901993 230.000000,78.771561 
	C230.000000,72.125946 230.000000,65.834816 230.000000,58.560455 
M143.315750,35.937057 
	C143.544113,31.362642 143.405640,26.725374 144.173584,22.243401 
	C144.500534,20.335199 146.723419,18.751841 148.084717,17.020863 
	C149.370316,18.121866 150.655914,19.222872 152.425369,20.738243 
	C153.657364,20.738243 155.750198,20.738243 157.825104,20.738243 
	C158.202560,12.551013 156.621552,10.762733 148.791275,11.055619 
	C144.603287,11.212268 140.436646,11.939793 136.240143,12.411961 
	C136.240143,20.253246 136.240143,27.986074 136.240143,35.995537 
	C138.434860,35.995537 140.399658,35.995537 143.315750,35.937057 
z"/>
<path fill="#FFFFFF" opacity="1.000000" stroke="none" 
	d="
M1.000000,23.375000 
	C1.998718,22.156919 3.584066,21.492191 3.903204,20.442495 
	C6.421530,12.159357 13.397229,8.241624 21.458376,11.409004 
	C23.063990,12.039881 23.717953,15.092750 24.891787,17.172377 
	C20.267111,17.516602 16.733826,17.266136 13.594417,18.259933 
	C12.295110,18.671232 11.271402,21.698751 11.105917,23.621115 
	C10.595696,29.548117 12.789364,30.785740 23.795424,31.113689 
	C23.883501,32.811317 23.973915,34.553928 24.100346,36.990776 
	C19.711657,36.990776 15.188665,37.899815 11.328211,36.691719 
	C8.446099,35.789787 6.345874,32.220913 4.047438,29.702778 
	C3.089523,28.653299 2.520935,27.248465 1.387659,26.002605 
	C1.000000,25.250000 1.000000,24.500000 1.000000,23.375000 
z"/>
<path fill="#FFFFFF" opacity="1.000000" stroke="none" 
	d="
M55.658989,12.224695 
	C60.797108,11.686265 65.538574,11.378624 70.273293,10.989063 
	C74.244881,10.662291 76.972298,12.353276 78.001221,16.136185 
	C79.734047,22.507017 80.524643,31.275160 74.759499,34.587147 
	C71.815514,36.278416 68.217049,36.830433 64.278336,38.102867 
	C64.278336,39.474091 64.278336,41.896099 64.278336,44.660450 
	C61.520565,44.660450 59.111153,44.660450 56.000000,44.660450 
	C56.000000,36.210342 56.046715,27.472986 55.966202,18.736803 
	C55.946777,16.629208 55.506275,14.525494 55.658989,12.224695 
M65.340797,30.992590 
	C71.320511,30.598768 73.258301,26.592850 71.067879,19.859219 
	C69.951935,16.428688 68.558525,15.899327 66.026794,18.492334 
	C62.365063,22.242706 64.226463,26.671959 65.340797,30.992590 
z"/>
<path fill="#FFFFFF" opacity="1.000000" stroke="none" 
	d="
M153.084595,60.000000 
	C154.934113,60.000000 156.360367,60.000000 159.322327,60.000000 
	C156.127289,63.269428 153.962555,65.624191 151.644516,67.816872 
	C149.377075,69.961685 149.423218,71.812599 151.531082,74.131989 
	C154.206406,77.075783 156.558197,80.313591 158.919632,83.262466 
	C151.670578,86.799309 148.132538,81.053543 143.297806,76.810646 
	C143.104767,79.881653 142.994080,81.642502 142.864395,83.705788 
	C140.825745,83.705788 138.729141,83.705788 136.313965,83.705788 
	C136.313965,73.058395 136.313965,62.198845 136.313965,51.168495 
	C138.378647,51.168495 140.331696,51.168495 142.664597,51.168495 
	C142.664597,55.771183 142.664597,60.511990 142.664597,65.635635 
	C146.295395,63.588787 149.478363,61.794395 153.084595,60.000000 
z"/>
<path fill="#FFFFFF" opacity="1.000000" stroke="none" 
	d="
M89.974045,34.733307 
	C87.797951,35.556217 85.644424,35.904942 83.212738,36.298714 
	C83.212738,24.912380 83.212738,14.166245 83.212738,3.209752 
	C85.426010,3.209752 87.496513,3.209752 89.934425,3.209752 
	C89.934425,6.092786 89.934425,8.857909 89.934425,12.118896 
	C91.394760,11.649302 92.361130,11.177614 93.373199,11.038515 
	C101.605530,9.907069 103.999207,12.091572 103.999924,20.642506 
	C104.000343,25.609589 104.000000,30.576672 104.000000,35.768364 
	C101.614952,35.768364 99.545097,35.768364 97.000000,35.768364 
	C97.000000,31.108006 97.226677,26.472261 96.880714,21.879650 
	C96.754555,20.204899 95.265907,18.632784 94.398865,17.013844 
	C92.932739,18.763594 90.531456,20.352858 90.197823,22.296961 
	C89.531174,26.181450 89.997902,30.260447 89.974045,34.733307 
z"/>
<path fill="#FFFFFF" opacity="1.000000" stroke="none" 
	d="
M31.415897,40.848694 
	C36.136082,38.844021 36.888851,35.912079 35.021183,31.654102 
	C32.255310,25.348364 29.861048,18.879627 27.295746,12.448112 
	C35.487953,11.394319 35.484756,11.395368 37.979229,18.997482 
	C38.758656,21.372856 39.560455,23.740892 40.799526,27.452967 
	C43.003788,21.463945 44.718765,16.804323 46.450359,12.099546 
	C48.869579,12.099546 51.179676,12.099546 54.750614,12.099546 
	C50.145557,22.454041 46.132416,32.455212 41.265064,42.021774 
	C38.717327,47.029243 33.267342,46.255219 27.987242,45.798214 
	C28.397684,43.641453 26.369505,40.510262 31.415897,40.848694 
z"/>
<path fill="#FFFFFF" opacity="1.000000" stroke="none" 
	d="
M108.008804,27.516068 
	C108.227364,24.659222 108.075134,22.122574 108.748558,19.828266 
	C111.071419,11.914383 114.936676,9.802068 124.100853,11.002275 
	C128.201721,11.539355 131.083237,16.545734 130.993149,22.992069 
	C130.986313,23.479683 130.922791,23.966505 130.861420,24.770630 
	C125.757812,24.770630 120.654434,24.770630 115.431427,24.770630 
	C116.706047,35.053406 124.591805,29.668404 129.725159,31.319427 
	C129.725159,32.932392 129.725159,34.685890 129.725159,36.454647 
	C116.161865,37.653866 111.993523,38.341763 108.008804,27.516068 
M119.501282,20.954227 
	C120.301346,20.483833 121.101402,20.013439 121.901466,19.543043 
	C121.762115,19.117725 121.622772,18.692408 121.483421,18.267090 
	C119.706100,18.388927 117.928780,18.510765 116.151459,18.632605 
	C116.168724,18.950571 116.185989,19.268539 116.203255,19.586508 
	C117.118279,19.867939 118.033302,20.149368 119.501282,20.954227 
z"/>
<path fill="#FFFFFF" opacity="1.000000" stroke="none" 
	d="
M166.915070,60.002495 
	C167.925995,60.798191 168.890579,61.573257 168.925705,62.388390 
	C169.090485,66.211021 168.760803,70.066368 169.105942,73.864761 
	C169.266037,75.626945 170.561508,77.285973 171.342255,78.991760 
	C172.894730,77.161476 175.452057,75.498230 175.789856,73.466042 
	C176.486755,69.273613 175.999664,64.884377 175.999664,60.289062 
	C178.284790,60.289062 180.354477,60.289062 182.714783,60.289062 
	C182.714783,67.906471 182.714783,75.651329 182.714783,83.652664 
	C178.154785,84.094368 173.477707,84.524529 168.805939,85.006271 
	C163.990540,85.502831 162.269257,82.469376 162.076721,78.533775 
	C161.785049,72.571617 162.000519,66.584641 162.000519,60.248337 
	C163.595703,60.159233 165.018127,60.079781 166.915070,60.002495 
z"/>
<path fill="#FFFFFF" opacity="1.000000" stroke="none" 
	d="
M258.761810,64.972092 
	C255.637192,65.002647 252.980667,65.002159 250.324356,65.024086 
	C250.000626,65.026756 249.677887,65.149872 248.262299,65.444633 
	C253.433426,70.594643 265.419495,69.098488 261.757294,81.219742 
	C258.505463,85.854317 252.648026,85.171394 246.949738,84.994415 
	C242.674988,84.861649 240.021896,83.298569 241.366364,77.923737 
	C244.192810,78.388832 246.993561,79.076431 249.821487,79.216858 
	C251.181107,79.284370 252.592010,78.318993 253.979675,77.821350 
	C253.057465,76.891449 252.286743,75.661385 251.177719,75.101654 
	C249.493179,74.251457 247.571167,73.874680 245.754807,73.282219 
	C242.010574,72.060898 240.811249,68.764435 241.271713,65.639412 
	C241.792709,62.103607 243.861923,58.958302 248.346207,58.994286 
	C252.124924,59.024605 255.904068,59.000526 260.326477,59.000526 
	C259.899231,61.317905 259.564606,63.132877 258.761810,64.972092 
z"/>
<path fill="#FFFFFF" opacity="1.000000" stroke="none" 
	d="
M110.093689,78.027176 
	C112.910126,78.423256 115.287743,79.078087 117.687424,79.172523 
	C119.098091,79.228035 120.543808,78.393013 121.973755,77.958542 
	C120.931702,76.977501 120.028847,75.741791 118.813629,75.077553 
	C117.159470,74.173378 115.293823,73.615379 113.470802,73.069412 
	C109.720711,71.946320 108.894371,68.553467 109.238533,65.738403 
	C109.672256,62.190769 111.789497,59.026245 116.240509,59.004444 
	C120.029495,58.985886 123.818626,59.000614 127.798370,59.000614 
	C127.798370,61.097290 127.798370,62.832668 127.798370,64.893021 
	C124.248787,64.893021 120.808350,64.893021 115.804810,64.893021 
	C117.567245,66.530319 118.229958,67.516151 119.149437,67.926155 
	C121.329330,68.898186 123.617874,69.636230 125.886253,70.398117 
	C130.377777,71.906670 131.061111,75.863228 129.730911,79.118019 
	C128.720993,81.589111 125.568153,83.812187 122.876389,84.789948 
	C120.233574,85.749931 116.955940,85.177872 113.980782,84.956749 
	C109.534340,84.626274 108.573044,82.943695 110.093689,78.027176 
z"/>
<path fill="#FFFFFF" opacity="1.000000" stroke="none" 
	d="
M196.000000,70.949203 
	C196.000000,65.829544 196.000000,61.200165 196.000000,56.211342 
	C193.727386,56.090443 191.657135,55.980312 189.247284,55.852119 
	C189.142105,54.419037 189.038315,53.004845 188.912338,51.288433 
	C193.508606,51.288433 197.925659,51.288433 202.882996,51.288433 
	C202.882996,60.298206 202.882996,69.486633 202.882996,78.860878 
	C205.362976,78.860878 207.311890,78.860878 209.630234,78.860878 
	C209.630234,80.566559 209.630234,82.078690 209.630234,83.800476 
	C202.589142,83.800476 195.517090,83.800476 188.222565,83.800476 
	C188.222565,82.278564 188.222565,80.878967 188.222565,79.111572 
	C190.672501,79.111572 193.086807,79.111572 196.000000,79.111572 
	C196.000000,76.316963 196.000000,73.878227 196.000000,70.949203 
z"/>
<path fill="#FFFFFF" opacity="1.000000" stroke="none" 
	d="
M230.000000,59.052071 
	C230.000000,65.834816 230.000000,72.125946 230.000000,78.771561 
	C232.261490,78.901993 234.331055,79.021370 236.741211,79.160385 
	C236.850800,80.570770 236.960785,81.986351 237.094528,83.707825 
	C229.851151,83.707825 222.776016,83.707825 215.349762,83.707825 
	C215.349762,82.375603 215.349762,80.879181 215.349762,78.982750 
	C217.807709,78.982750 220.217194,78.982750 222.808365,78.982750 
	C222.808365,71.212433 222.808365,63.816109 222.808365,56.046173 
	C220.582886,56.046173 218.509827,56.046173 216.222229,56.046173 
	C216.222229,54.272381 216.222229,52.867435 216.222229,51.229778 
	C220.663651,51.229778 225.072357,51.229778 230.000000,51.229778 
	C230.000000,53.696228 230.000000,56.128342 230.000000,59.052071 
z"/>
<path fill="#FFFFFF" opacity="1.000000" stroke="none" 
	d="
M142.840103,35.966297 
	C140.399658,35.995537 138.434860,35.995537 136.240143,35.995537 
	C136.240143,27.986074 136.240143,20.253246 136.240143,12.411961 
	C140.436646,11.939793 144.603287,11.212268 148.791275,11.055619 
	C156.621552,10.762733 158.202560,12.551013 157.825104,20.738243 
	C155.750198,20.738243 153.657364,20.738243 152.425369,20.738243 
	C150.655914,19.222872 149.370316,18.121866 148.084717,17.020859 
	C146.723419,18.751841 144.500534,20.335199 144.173584,22.243401 
	C143.405640,26.725374 143.544113,31.362642 142.840103,35.966297 
z"/>
<path fill="#000000" opacity="1.000000" stroke="none" 
	d="
M64.898895,30.948086 
	C64.226463,26.671959 62.365063,22.242706 66.026794,18.492334 
	C68.558525,15.899327 69.951935,16.428688 71.067879,19.859219 
	C73.258301,26.592850 71.320511,30.598768 64.898895,30.948086 
z"/>
<path fill="#000000" opacity="1.000000" stroke="none" 
	d="
M119.224808,20.692513 
	C118.033302,20.149368 117.118279,19.867939 116.203255,19.586508 
	C116.185989,19.268539 116.168724,18.950571 116.151459,18.632605 
	C117.928780,18.510765 119.706100,18.388927 121.483421,18.267090 
	C121.622772,18.692408 121.762115,19.117725 121.901466,19.543043 
	C121.101402,20.013439 120.301346,20.483833 119.224808,20.692513 
z"/>
</svg>